<svg xmlns="http://www.w3.org/2000/svg" width="12" height="10" viewBox="0 0 12 10">
  <path id="ion-checkmark_-_Ionicons" data-name="ion-checkmark - Ionicons" d="M11.942,1.2A.373.373,0,0,1,12,1.354a.373.373,0,0,1-.058.156L4.76,9.844A.494.494,0,0,1,4.5,10a.434.434,0,0,1-.288-.13L.144,6.328.058,6.25A.373.373,0,0,1,0,6.094a.431.431,0,0,1,.058-.13l.058-.052q.808-.781,1.269-1.2.173-.156.231-.156a.487.487,0,0,1,.288.156L4.212,6.745,9.981.052A.251.251,0,0,1,10.154,0a.5.5,0,0,1,.2.052Z" fill="#fff"/>
</svg>
