<svg xmlns="http://www.w3.org/2000/svg" width="52.747" height="45.537" viewBox="0 0 52.747 45.537">
  <g id="Group_22" data-name="Group 22" transform="translate(-0.246 -0.358)">
    <path id="Path" d="M18.253,0H.733A.733.733,0,0,0,0,.733V7.841a9.578,9.578,0,0,0,.2,1.5,13.217,13.217,0,0,0,.559,2,13.015,13.015,0,0,0,5.127,6.528,4.777,4.777,0,0,1,2.173,3.98v4.128H3.735a1.3,1.3,0,0,0,0,2.605H15.251a1.3,1.3,0,1,0,0-2.605h-4.32V21.849a4.777,4.777,0,0,1,2.173-3.98,13.015,13.015,0,0,0,5.127-6.528,13.217,13.217,0,0,0,.559-2,9.577,9.577,0,0,0,.2-1.5V.733A.733.733,0,0,0,18.253,0Z" transform="translate(17.149 11.211)" fill="#fcf055"/>
    <path id="Path-2" data-name="Path" d="M5.329.187,6.7,2.924l3.058.437a.339.339,0,0,1,.187.581L7.737,6.061l.523,3a.339.339,0,0,1-.49.36L5.026,8,2.281,9.419a.339.339,0,0,1-.49-.36l.523-3L.1,3.942a.339.339,0,0,1,.187-.581L3.35,2.924,4.723.187a.339.339,0,0,1,.607,0Z" transform="translate(21.616 15.233)" fill="#fa759e"/>
    <path id="Shape" d="M20.249,45.484l-3.37-1.847c-.1-.053-.183-.116-.275-.172a1.67,1.67,0,0,1-.094.547A2.292,2.292,0,0,1,15.3,45.279a2.047,2.047,0,0,1-.857.162,6.052,6.052,0,0,1-1.992-.432.437.437,0,0,1-.253-.533c.059-.192.6-1.88,1.595-2.341a2.48,2.48,0,0,1,.679-.2c-.578-.447-1.138-.9-1.672-1.355a1.605,1.605,0,0,1-.3.759,2.292,2.292,0,0,1-1.531.858,1.586,1.586,0,0,1-.209.014,4.866,4.866,0,0,1-2.437-1.1.437.437,0,0,1-.087-.584c.112-.166,1.124-1.623,2.207-1.775a2.47,2.47,0,0,1,.353-.02c-.563-.556-1.105-1.118-1.606-1.687a1.554,1.554,0,0,1-.6,1.016,2.216,2.216,0,0,1-1.355.435,2.715,2.715,0,0,1-.351-.023c-1.079-.147-2.136-1.6-2.253-1.765a.437.437,0,0,1,.074-.586c.153-.129,1.522-1.26,2.606-1.11a2.517,2.517,0,0,1,.3.067c-.419-.568-.818-1.141-1.178-1.721a1.622,1.622,0,0,1-.517.581,2.182,2.182,0,0,1-1.227.357,2.57,2.57,0,0,1-.5-.05c-1.067-.211-2.036-1.723-2.143-1.9a.436.436,0,0,1,.109-.58,4.289,4.289,0,0,1,2.668-.953,2.609,2.609,0,0,1,.279.079c-.292-.626-.538-1.261-.762-1.9a1.569,1.569,0,0,1-.852.572,1.978,1.978,0,0,1-.518.067A2.426,2.426,0,0,1,1.743,29.3C.8,28.747.383,27,.338,26.8a.435.435,0,0,1,.293-.512c.191-.062,1.887-.58,2.832-.028.049.028.09.064.137.1a19.5,19.5,0,0,1-.308-1.988,1.6,1.6,0,0,1-.783.258c-.038,0-.075,0-.113,0a2.321,2.321,0,0,1-1.527-.625C.059,23.28,0,21.484,0,21.281a.436.436,0,0,1,.391-.442c.2-.022,1.967-.183,2.779.549.02.019.035.04.055.059a20.9,20.9,0,0,1,.209-2.124,1.531,1.531,0,0,1-.635.136,1.683,1.683,0,0,1-.357-.039,2.293,2.293,0,0,1-1.415-1.038C.442,17.464.869,15.719.92,15.523a.439.439,0,0,1,.5-.321c.2.033,1.943.352,2.53,1.274.028.043.046.089.07.133.181-.654.387-1.291.614-1.909a1.471,1.471,0,0,1-.42.068,1.641,1.641,0,0,1-.647-.136,2.3,2.3,0,0,1-1.19-1.29c-.4-1.014.358-2.645.446-2.827a.435.435,0,0,1,.547-.22c.187.071,1.839.718,2.238,1.736.028.072.044.146.065.219.323-.67.661-1.31,1.009-1.916a1.594,1.594,0,0,1-.869-.278,2.293,2.293,0,0,1-.93-1.487c-.2-1.069.841-2.533.959-2.7a.434.434,0,0,1,.579-.115c.167.1,1.615,1.01,1.863,2.058.423-.6.838-1.152,1.228-1.642a1.6,1.6,0,0,1-.87-.3,2.3,2.3,0,0,1-.886-1.515c-.172-1.076.914-2.507,1.038-2.667a.438.438,0,0,1,.582-.1c.167.109,1.643,1.094,1.816,2.173a2.658,2.658,0,0,1,.032.427c.222-.236.407-.423.537-.553a2.007,2.007,0,0,1-.146-.695A2.809,2.809,0,0,1,12.437.96C13.367-.007,15.62,0,15.871,0A.437.437,0,0,1,16.3.406c.018.249.149,2.467-.784,3.437a2.872,2.872,0,0,1-2.025.919,1.906,1.906,0,0,1-1.211-.415c-.125.124-.291.293-.487.5a2.479,2.479,0,0,1,.378-.041,4.493,4.493,0,0,1,2.49,1.409.436.436,0,0,1,.014.589c-.131.15-1.318,1.471-2.41,1.487h-.04a2.034,2.034,0,0,1-2.1-1.514c-.419.53-.868,1.132-1.326,1.8a2.261,2.261,0,0,1,.232-.062c1.075-.187,2.518.879,2.68,1a.436.436,0,0,1,.106.58c-.107.169-1.072,1.659-2.149,1.846a2.625,2.625,0,0,1-.439.038,1.989,1.989,0,0,1-1.88-1.093c-.286.506-.566,1.037-.835,1.588.05-.022.1-.049.148-.067,1.028-.356,2.626.467,2.805.563a.437.437,0,0,1,.2.556c-.078.184-.794,1.807-1.828,2.164a2.542,2.542,0,0,1-.82.139,1.909,1.909,0,0,1-1.6-.765c-.208.575-.4,1.166-.565,1.773.046-.031.087-.069.136-.1.936-.556,2.667-.074,2.861-.017a.435.435,0,0,1,.305.5c-.04.2-.411,1.931-1.352,2.489a2.451,2.451,0,0,1-1.243.351,1.768,1.768,0,0,1-1.28-.507q-.138.956-.184,1.947a2.626,2.626,0,0,1,.212-.237A4.442,4.442,0,0,1,7.1,20.65a.435.435,0,0,1,.4.428c0,.2.005,1.975-.8,2.718a2.363,2.363,0,0,1-1.581.653,1.638,1.638,0,0,1-.977-.308A18.648,18.648,0,0,0,4.438,26.1c.031-.05.054-.1.088-.153a4.438,4.438,0,0,1,2.6-1.187.435.435,0,0,1,.485.336c.044.194.416,1.93-.213,2.823a2.265,2.265,0,0,1-1.793,1.009,1.612,1.612,0,0,1-.4-.05c.222.616.472,1.228.76,1.833a2.645,2.645,0,0,1,.1-.352c.4-1.013,2.058-1.7,2.246-1.772a.436.436,0,0,1,.551.21c.089.179.862,1.776.464,2.794a2.153,2.153,0,0,1-1.885,1.453,1.566,1.566,0,0,1-.2-.018c.293.464.61.923.941,1.38.006-.038,0-.076.012-.112.21-1.068,1.723-2.039,1.894-2.145a.435.435,0,0,1,.58.108c.12.16,1.166,1.594.955,2.666a2.147,2.147,0,0,1-1.593,1.761q.554.617,1.16,1.224c0-.018,0-.035,0-.053.027-1.089,1.354-2.3,1.5-2.434a.436.436,0,0,1,.59.009c.145.137,1.417,1.374,1.391,2.467a2.13,2.13,0,0,1-1.319,2.017c.482.413.988.822,1.508,1.229a2.435,2.435,0,0,1-.025-.382c.026-1.088,1.353-2.3,1.5-2.434a.438.438,0,0,1,.59.009c.145.138,1.417,1.374,1.391,2.467a2.169,2.169,0,0,1-1.2,1.97c.055.032.109.067.164.1l3.37,1.847a.44.44,0,0,1,.176.593.435.435,0,0,1-.382.227A.44.44,0,0,1,20.249,45.484Z" transform="translate(0.246 0.359)"/>
    <path id="Shape-2" data-name="Shape" d="M.054,45.308a.436.436,0,0,1,.173-.592L3.6,42.869c.056-.031.11-.065.165-.1a2.169,2.169,0,0,1-1.2-1.97c-.027-1.093,1.246-2.329,1.391-2.467a.436.436,0,0,1,.59-.009c.151.134,1.478,1.346,1.5,2.434a2.674,2.674,0,0,1-.025.382c.519-.406,1.025-.815,1.508-1.229A2.128,2.128,0,0,1,6.214,37.9c-.027-1.093,1.246-2.329,1.391-2.467a.435.435,0,0,1,.589-.009c.151.134,1.478,1.345,1.5,2.434,0,.018,0,.035,0,.053.4-.4.792-.812,1.161-1.223a2.147,2.147,0,0,1-1.593-1.761c-.212-1.073.835-2.507.955-2.666a.436.436,0,0,1,.58-.109c.172.107,1.685,1.077,1.894,2.145.007.038.005.076.012.112.331-.456.649-.915.941-1.379a1.539,1.539,0,0,1-.2.018,2.153,2.153,0,0,1-1.885-1.453c-.4-1.018.374-2.615.464-2.794a.436.436,0,0,1,.551-.211c.188.075,1.849.76,2.246,1.773a2.607,2.607,0,0,1,.1.352c.288-.606.537-1.218.76-1.834a1.607,1.607,0,0,1-.4.051,2.264,2.264,0,0,1-1.792-1.009c-.629-.894-.258-2.629-.213-2.823a.435.435,0,0,1,.485-.336c.2.028,1.976.3,2.6,1.188.035.049.058.1.088.152a18.667,18.667,0,0,0,.287-1.96,1.639,1.639,0,0,1-.977.309,2.363,2.363,0,0,1-1.581-.653c-.8-.743-.8-2.518-.8-2.718a.437.437,0,0,1,.406-.428c.2-.014,2-.12,2.793.62a2.767,2.767,0,0,1,.213.237q-.046-.991-.184-1.947a1.765,1.765,0,0,1-1.28.507,2.453,2.453,0,0,1-1.243-.351c-.94-.557-1.312-2.292-1.352-2.489a.436.436,0,0,1,.305-.5c.194-.057,1.925-.538,2.861.017.049.029.09.067.136.1-.167-.607-.357-1.2-.565-1.772a1.91,1.91,0,0,1-1.6.764,2.523,2.523,0,0,1-.821-.139c-1.033-.356-1.749-1.98-1.827-2.164a.436.436,0,0,1,.2-.556c.178-.1,1.777-.917,2.805-.562.052.018.1.046.149.067q-.4-.826-.835-1.587a1.989,1.989,0,0,1-1.879,1.093,2.545,2.545,0,0,1-.44-.039c-1.076-.186-2.042-1.675-2.148-1.845a.436.436,0,0,1,.106-.58c.162-.122,1.607-1.186,2.68-1,.081.014.155.041.231.062-.456-.663-.905-1.266-1.326-1.795a2.033,2.033,0,0,1-2.1,1.513h-.04C7.537,8.277,6.35,6.957,6.219,6.807a.435.435,0,0,1,.014-.589A4.482,4.482,0,0,1,8.7,4.809h.021a2.5,2.5,0,0,1,.378.041c-.2-.209-.362-.378-.487-.5A1.9,1.9,0,0,1,7.4,4.762a2.871,2.871,0,0,1-2.026-.918c-.932-.971-.8-3.189-.784-3.439A.437.437,0,0,1,5.024,0c.256,0,2.5-.007,3.434.96a2.807,2.807,0,0,1,.827,1.985,1.987,1.987,0,0,1-.146.695c.13.129.314.316.537.552a2.548,2.548,0,0,1,.032-.426c.173-1.08,1.648-2.065,1.816-2.173a.436.436,0,0,1,.581.1,4.438,4.438,0,0,1,1.039,2.666,2.291,2.291,0,0,1-.886,1.515,1.584,1.584,0,0,1-.87.3c.39.49.8,1.039,1.228,1.642.247-1.048,1.695-1.956,1.863-2.058a.435.435,0,0,1,.578.115c.12.163,1.163,1.626.96,2.7a2.293,2.293,0,0,1-.931,1.487,1.606,1.606,0,0,1-.869.278c.348.607.687,1.246,1.01,1.916.021-.074.037-.147.065-.22.4-1.017,2.051-1.665,2.238-1.735a.436.436,0,0,1,.547.22c.087.183.841,1.813.445,2.827a2.288,2.288,0,0,1-1.189,1.29,1.646,1.646,0,0,1-.647.137,1.482,1.482,0,0,1-.421-.068q.342.926.615,1.909c.025-.044.043-.09.07-.133.586-.923,2.332-1.241,2.529-1.274a.438.438,0,0,1,.5.321c.05.2.478,1.941-.106,2.859a2.293,2.293,0,0,1-1.415,1.038,1.691,1.691,0,0,1-.358.039,1.533,1.533,0,0,1-.634-.136,21.189,21.189,0,0,1,.21,2.124c.02-.019.034-.041.055-.059a4.262,4.262,0,0,1,2.778-.549.436.436,0,0,1,.391.442c0,.2-.059,2-.868,2.726a2.32,2.32,0,0,1-1.527.624c-.038,0-.076,0-.113,0a1.6,1.6,0,0,1-.783-.257,19.745,19.745,0,0,1-.307,1.988c.046-.031.087-.067.136-.1a4.273,4.273,0,0,1,2.832.028.433.433,0,0,1,.292.509c-.044.2-.463,1.944-1.4,2.492a2.427,2.427,0,0,1-1.215.341,1.951,1.951,0,0,1-.518-.068,1.569,1.569,0,0,1-.852-.572c-.224.639-.472,1.274-.762,1.9a2.38,2.38,0,0,1,.28-.079,4.294,4.294,0,0,1,2.667.952.437.437,0,0,1,.109.58c-.106.172-1.076,1.685-2.143,1.9a2.642,2.642,0,0,1-.5.049,2.173,2.173,0,0,1-1.227-.358,1.608,1.608,0,0,1-.517-.581c-.36.581-.759,1.153-1.178,1.722a2.519,2.519,0,0,1,.3-.068c1.086-.149,2.452.982,2.605,1.111a.436.436,0,0,1,.074.586c-.117.165-1.174,1.617-2.253,1.764a2.576,2.576,0,0,1-.351.024,2.214,2.214,0,0,1-1.354-.435,1.554,1.554,0,0,1-.6-1.016c-.5.569-1.042,1.129-1.606,1.686a2.453,2.453,0,0,1,.352.021c1.083.151,2.1,1.609,2.207,1.775a.436.436,0,0,1-.087.583,4.853,4.853,0,0,1-2.437,1.1,1.462,1.462,0,0,1-.209-.014,2.289,2.289,0,0,1-1.53-.857,1.605,1.605,0,0,1-.3-.759c-.534.456-1.094.907-1.672,1.355a2.48,2.48,0,0,1,.679.2c.992.46,1.536,2.148,1.595,2.34a.436.436,0,0,1-.253.533,6.038,6.038,0,0,1-1.992.433,2.052,2.052,0,0,1-.857-.162A2.292,2.292,0,0,1,4.385,44.01a1.67,1.67,0,0,1-.093-.548c-.094.057-.18.12-.276.172L.646,45.481a.428.428,0,0,1-.209.054A.436.436,0,0,1,.054,45.308Z" transform="translate(32.098 0.359)"/>
  </g>
</svg>
