<svg width="36" height="75" viewBox="0 0 36 75" fill="none" xmlns="http://www.w3.org/2000/svg">
<mask id="mask0" mask-type="alpha" maskUnits="userSpaceOnUse" x="0" y="0" width="36" height="75">
<path fill-rule="evenodd" clip-rule="evenodd" d="M0.000427246 0.630249H35.342V74.5259H0.000427246V0.630249Z" fill="white"/>
</mask>
<g mask="url(#mask0)">
<path fill-rule="evenodd" clip-rule="evenodd" d="M26.5063 0.630005C28.2464 0.630005 29.6847 0.798282 30.8242 1.13232C31.9611 1.46761 32.8321 1.85206 33.434 2.28631C34.0366 2.72244 34.4885 3.4258 34.7903 4.39513C35.091 5.36635 35.258 6.16929 35.2914 6.80458C35.3248 7.44177 35.3424 8.42874 35.3424 9.76677V65.6903C35.3424 67.2313 35.2914 68.3853 35.1912 69.1542C35.091 69.9243 34.7727 70.8111 34.2376 71.8151C33.7013 72.8191 32.7969 73.5218 31.5269 73.9233C30.2544 74.3254 28.5477 74.5258 26.4061 74.5258C24.3307 74.5258 22.6567 74.3254 21.3855 73.9233C20.1137 73.5218 19.2099 72.8361 18.6748 71.8649C18.1385 70.8955 17.8214 69.9924 17.7212 69.1542C17.621 68.3178 17.5706 67.0964 17.5706 65.4899V29.6462L16.2653 30.8512C13.52 32.9266 11.2454 33.9634 9.43782 33.9634C7.3624 33.9634 5.42186 32.9594 3.61492 30.9514C1.20484 28.2748 0.000427246 25.9983 0.000427246 24.1239C0.000427246 22.3844 1.20484 20.4439 3.61492 18.301L20.0809 3.44093L20.3822 3.24051C22.1216 1.50101 24.1624 0.630005 26.5063 0.630005Z" fill="#0AC6C6"/>
</g>
<mask id="mask1" mask-type="alpha" maskUnits="userSpaceOnUse" x="0" y="0" width="36" height="34">
<path fill-rule="evenodd" clip-rule="evenodd" d="M0 0.630249H35.342V33.9633H0V0.630249Z" fill="white"/>
</mask>
<g mask="url(#mask1)">
<path fill-rule="evenodd" clip-rule="evenodd" d="M17.5702 30.851H35.342V9.76653C35.342 8.4285 35.325 7.44153 35.2916 6.80497C35.2569 6.16905 35.0905 5.36611 34.7893 4.39489C34.4887 3.42556 34.0361 2.72283 33.4342 2.28669C32.8317 1.85182 31.9613 1.46737 30.8237 1.13207C29.6849 0.798038 28.246 0.629761 26.5065 0.629761C24.1626 0.629761 22.1212 1.50077 20.3817 3.24026L20.0805 3.44132L3.6145 18.3008C1.20504 20.4436 0 22.3842 0 24.1243C0 25.9987 1.20504 28.2751 3.6145 30.9512C5.42206 32.9592 7.36261 33.9632 9.43803 33.9632C11.245 33.9632 13.5202 32.9264 16.2649 30.851L17.5702 29.6459V30.851Z" fill="#0AC6C6"/>
</g>
<path fill-rule="evenodd" clip-rule="evenodd" d="M17.5702 65.4897C17.5702 67.0956 17.6206 68.3183 17.7208 69.154C17.821 69.9922 18.138 70.8954 18.6744 71.8654C19.2101 72.8359 20.1133 73.5217 21.3857 73.9231C22.6563 74.3252 24.3303 74.5257 26.4063 74.5257C28.5473 74.5257 30.254 74.3252 31.5271 73.9231C32.7977 73.5217 33.7009 72.8189 34.2372 71.8149C34.7723 70.811 35.0906 69.9248 35.1914 69.154C35.2916 68.3857 35.342 67.2311 35.342 65.6902V30.8511H17.5702V65.4897Z" fill="#FFD400"/>
<path fill-rule="evenodd" clip-rule="evenodd" d="M26.9347 30.8511V74.5194C28.6313 74.4916 30.0374 74.329 31.1492 74.0303V30.8511H26.9347Z" fill="#FFD400"/>
<path fill-rule="evenodd" clip-rule="evenodd" d="M21.5788 30.8511V73.9786C22.688 74.3019 24.0847 74.4822 25.77 74.5181V30.8511H21.5788Z" fill="#FFD400"/>
<path fill-rule="evenodd" clip-rule="evenodd" d="M17.5702 30.8511V65.4897C17.5702 67.0956 17.6206 68.3183 17.7208 69.154C17.821 69.9922 18.138 70.8954 18.6744 71.8654C19.0614 72.5668 19.6431 73.117 20.4145 73.521V30.8511H17.5702Z" fill="#FFD400"/>
<mask id="mask2" mask-type="alpha" maskUnits="userSpaceOnUse" x="32" y="30" width="4" height="44">
<path fill-rule="evenodd" clip-rule="evenodd" d="M32.3134 30.8512H35.342V73.61H32.3134V30.8512Z" fill="white"/>
</mask>
<g mask="url(#mask2)">
<path fill-rule="evenodd" clip-rule="evenodd" d="M32.3134 30.8512V73.61C33.1762 73.1934 33.8203 72.5966 34.2376 71.8151C34.772 70.8111 35.0903 69.9249 35.1911 69.1541C35.292 68.3859 35.3424 67.2312 35.3424 65.6903V30.8512H32.3134Z" fill="#FFD400"/>
</g>
<path fill-rule="evenodd" clip-rule="evenodd" d="M20.4143 30.8511V73.521C20.7105 73.6761 21.0326 73.8122 21.3855 73.9231C21.4473 73.9427 21.5154 73.9597 21.579 73.9786V30.8511H20.4143Z" fill="#2D2216"/>
<path fill-rule="evenodd" clip-rule="evenodd" d="M25.7703 30.8511V74.5181C25.9789 74.5225 26.1888 74.5257 26.4062 74.5257C26.5871 74.5257 26.7598 74.5225 26.935 74.5194V30.8511H25.7703Z" fill="#2D2216"/>
<path fill-rule="evenodd" clip-rule="evenodd" d="M31.1489 30.8511V74.0303C31.2775 73.9962 31.4061 73.9616 31.5271 73.9231C31.8082 73.8343 32.0685 73.7284 32.3136 73.6099V30.8511H31.1489Z" fill="#2D2216"/>
</svg>
