<svg width="55" height="75" viewBox="0 0 55 75" fill="none" xmlns="http://www.w3.org/2000/svg">
<mask id="mask0" mask-type="alpha" maskUnits="userSpaceOnUse" x="0" y="0" width="55" height="75">
<path fill-rule="evenodd" clip-rule="evenodd" d="M0 0.614868H54.6466V74.7499H0V0.614868Z" fill="white"/>
</mask>
<g mask="url(#mask0)">
<path fill-rule="evenodd" clip-rule="evenodd" d="M54.6466 50.6589C54.6466 57.6456 52.0345 63.4065 46.8116 67.944C41.588 72.4827 35.0261 74.7499 27.1271 74.7499C24.1234 74.7499 21.3325 74.4229 18.7542 73.7712C16.1741 73.119 14.02 72.2866 12.2907 71.2735C10.5601 70.2622 8.9925 69.136 7.58963 67.8948C6.18492 66.6554 5.0925 65.4315 4.30869 64.2222C3.52549 63.0155 2.87201 61.9059 2.35008 60.8927C1.82693 59.8815 1.46914 59.0485 1.27303 58.3956L1.07693 57.4163C0.357665 55.2616 -0.00012207 53.4985 -0.00012207 52.1282C-0.00012207 48.3419 3.19783 46.4479 9.59742 46.4479C12.2077 46.4479 13.9388 46.7755 14.7878 47.4272C15.6355 48.0806 16.4532 49.3858 17.2364 51.3444L17.4318 51.8343C17.4964 51.9659 17.5788 52.1774 17.6771 52.4706C17.7749 52.7645 18.0687 53.2538 18.5581 53.9399C19.048 54.6253 19.6185 55.2296 20.272 55.7515C20.9236 56.2753 21.871 56.7475 23.1122 57.1716C24.3515 57.5964 25.723 57.8079 27.2255 57.8079C30.6847 57.8079 33.2316 57.1071 34.8638 55.7024C36.4954 54.2995 37.3124 52.6833 37.3124 50.8544C37.3124 49.1577 36.512 47.6399 34.913 46.3009C33.3128 44.9632 31.0769 44.2938 28.2048 44.2938C26.7017 44.2938 25.5607 44.2292 24.7769 44.0977C23.9937 43.9673 23.1275 43.6569 22.1814 43.1669C21.2341 42.6776 20.5659 41.8126 20.1743 40.572C19.782 39.3321 19.5866 37.6673 19.5866 35.5772C19.5866 33.8804 19.7489 32.477 20.0759 31.3661C20.4023 30.2565 20.7939 29.4075 21.2513 28.8198C21.7075 28.2327 22.3775 27.7913 23.2591 27.4974C24.14 27.2036 24.89 27.0419 25.5116 27.0081C26.1312 26.9761 27.0614 26.9589 28.3025 26.9589C33.2636 26.9589 35.7454 25.6858 35.7454 23.1395C35.7454 21.7686 35.0919 20.4634 33.7868 19.2222C32.4798 17.9829 30.555 17.3614 28.0087 17.3614C25.9185 17.3614 24.1892 17.753 22.8183 18.5368C21.4474 19.32 20.5978 20.1038 20.272 20.887L19.6843 22.0624C18.1818 25.328 16.0271 26.9589 13.2208 26.9589C11.588 26.9589 9.79353 26.3718 7.83492 25.1964C4.56935 23.3036 2.93779 21.1169 2.93779 18.6345C2.93779 17.3294 3.49168 15.5669 4.60254 13.3464C4.73287 13.0206 4.92898 12.5626 5.19025 11.9755C5.45029 11.3878 6.16955 10.3593 7.34496 8.89069C8.52037 7.42143 9.87406 6.1329 11.4091 5.02204C12.9423 3.91241 15.097 2.90114 17.8726 1.98638C20.647 1.07225 23.7318 0.614868 27.1271 0.614868C35.1577 0.614868 41.4902 2.90114 46.1267 7.47061C50.7614 12.0413 53.0796 17.1333 53.0796 22.7479C53.0796 24.511 52.8177 26.1604 52.2958 27.6936C51.7726 29.2286 51.1364 30.436 50.3864 31.3169C49.6351 32.1985 48.8839 32.9497 48.1339 33.57C47.3827 34.1909 46.7458 34.6317 46.2245 34.8917L45.4407 35.2833V35.9688C45.7007 36.1003 46.0284 36.2964 46.4206 36.5565C46.8116 36.8184 47.5462 37.4061 48.6239 38.3196C49.7009 39.2343 50.647 40.2136 51.464 41.2575C52.2792 42.3026 53.0138 43.6735 53.6673 45.3702C54.3189 47.0688 54.6466 48.8319 54.6466 50.6589Z" fill="#FFD400"/>
</g>
<mask id="mask1" mask-type="alpha" maskUnits="userSpaceOnUse" x="0" y="0" width="55" height="75">
<path fill-rule="evenodd" clip-rule="evenodd" d="M0 0.614868H54.6464V74.7499H0V0.614868Z" fill="white"/>
</mask>
<g mask="url(#mask1)">
<path fill-rule="evenodd" clip-rule="evenodd" d="M54.6464 50.6589C54.6464 57.645 52.0349 63.4065 46.8119 67.9434C41.5877 72.4821 35.0265 74.7499 27.1275 74.7499C24.1238 74.7499 21.3328 74.4222 18.7539 73.7706C16.1744 73.119 14.0197 72.2866 12.291 71.2735C10.5599 70.2622 8.99287 69.136 7.59 67.8948C6.18467 66.6554 5.09226 65.4309 4.30906 64.2216C3.52586 63.0149 2.87238 61.9058 2.35045 60.8921C1.8273 59.8809 1.4689 59.0485 1.2734 58.395L1.0773 57.4157C0.358035 55.261 -0.000366211 53.4985 -0.000366211 52.1276C-0.000366211 48.3419 3.1982 46.4479 9.59779 46.4479C12.208 46.4479 13.9386 46.7749 14.7882 47.4265C15.6353 48.0806 16.4529 49.3858 17.2361 51.3444L17.4322 51.8337C17.4962 51.9653 17.5791 52.1768 17.6769 52.47C17.7746 52.7638 18.0685 53.2538 18.5584 53.9393C19.0478 54.6247 19.6183 55.2296 20.2724 55.7509C20.924 56.2741 21.8714 56.7468 23.1119 57.171C24.3513 57.5964 25.7228 57.8079 27.2259 57.8079C30.6851 57.8079 33.2314 57.1065 34.8642 55.7018C36.4951 54.2989 37.3127 52.6833 37.3127 50.8544C37.3127 49.1577 36.5123 47.6393 34.9128 46.3009C33.3125 44.9632 31.0767 44.2931 28.2052 44.2931C26.7021 44.2931 25.5605 44.2286 24.7767 44.097C23.9941 43.9673 23.1273 43.6563 22.1818 43.1669C21.2345 42.677 20.5656 41.8126 20.174 40.5714C19.783 39.3321 19.5863 37.6673 19.5863 35.5772C19.5863 33.8798 19.7486 32.477 20.0763 31.3661C20.4021 30.2565 20.7937 29.4075 21.2511 28.8198C21.7078 28.2321 22.3779 27.7913 23.2589 27.4974C24.1404 27.2036 24.8904 27.0419 25.5119 27.0075C26.131 26.9761 27.0617 26.9589 28.3023 26.9589C33.2634 26.9589 35.7451 25.6858 35.7451 23.1395C35.7451 21.7686 35.0916 20.4628 33.7871 19.2222C32.4795 17.9829 30.5554 17.3614 28.0084 17.3614C25.9189 17.3614 24.1896 17.7536 22.8187 18.5368C21.4478 19.32 20.5982 20.1038 20.2724 20.887L19.6847 22.0624C18.1822 25.3274 16.0275 26.9589 13.2212 26.9589C11.5884 26.9589 9.79328 26.3712 7.83467 25.1964C4.5691 23.303 2.93816 21.1169 2.93816 18.6345C2.93816 17.3294 3.49205 15.5663 4.60291 13.3464C4.73324 13.02 4.92873 12.5626 5.19062 11.9749C5.45066 11.3872 6.16992 10.3593 7.34533 8.89069C8.52013 7.42143 9.87443 6.1329 11.4089 5.02204C12.9427 3.91241 15.0974 2.90114 17.873 1.98577C20.6474 1.07225 23.7322 0.614868 27.1275 0.614868C35.158 0.614868 41.49 2.90114 46.1265 7.47061C50.7617 12.0413 53.08 17.1333 53.08 22.7479C53.08 24.5104 52.8181 26.1597 52.2962 27.6936C51.773 29.228 51.1367 30.4354 50.3867 31.3169C49.6349 32.1985 48.8843 32.9497 48.1343 33.5694C47.383 34.1909 46.7462 34.6317 46.2242 34.8917L45.441 35.2833V35.9688C45.7011 36.1003 46.0281 36.2958 46.4203 36.5565C46.8119 36.8177 47.5466 37.4054 48.6242 38.319C49.7013 39.2343 50.6468 40.2136 51.4638 41.2569C52.2795 42.302 53.0136 43.6735 53.6671 45.3702C54.3193 47.0688 54.6464 48.8313 54.6464 50.6589Z" fill="#FFD400"/>
</g>
<path fill-rule="evenodd" clip-rule="evenodd" d="M45.4409 35.2832L46.2241 34.8916C46.746 34.6315 47.3829 34.1908 48.1341 33.5693C48.8841 32.9496 49.6347 32.1984 50.3866 31.3168C51.1366 30.4352 51.7728 29.2279 52.296 27.6934C52.8179 26.1602 53.0798 24.5109 53.0798 22.7477C53.0798 17.1338 50.7616 12.0412 46.1263 7.47048C41.4898 2.90102 35.1579 0.614746 27.1273 0.614746C23.732 0.614746 20.6472 1.07274 17.8728 1.98565C15.0972 2.90102 12.9425 3.91229 11.4093 5.02192C9.87426 6.13278 8.51996 7.4213 7.34516 8.89057C6.16975 10.3592 5.45049 11.3871 5.19045 11.9748C4.92856 12.5631 4.73307 13.0205 4.60274 13.3463C3.49188 15.5662 2.93799 17.3293 2.93799 18.6344C2.93799 21.1168 4.56893 23.3035 7.8345 25.1963C9.79311 26.3711 11.5882 26.9588 13.221 26.9588C16.0273 26.9588 18.182 25.3279 19.6845 22.0623L20.2722 20.8875C20.598 20.1037 21.4476 19.3199 22.8185 18.5367C24.1894 17.7535 25.9187 17.3613 28.0089 17.3613C30.5552 17.3613 32.48 17.9828 33.787 19.2221C35.0921 20.4633 35.7456 21.7684 35.7456 23.14C35.7456 25.6856 33.2632 26.9588 28.3027 26.9588C27.0622 26.9588 26.1308 26.976 25.5118 27.008C24.8902 27.0418 24.1409 27.2035 23.2587 27.4973C22.3777 27.7912 21.7077 28.232 21.2509 28.8197C20.7935 29.4074 20.4019 30.2563 20.0761 31.366C19.7491 32.4768 19.5861 33.8797 19.5861 35.577C19.5861 37.6672 19.7829 39.332 20.1738 40.5719C20.5654 41.8125 21.2349 42.6768 22.1816 43.1668C23.1277 43.6568 23.9939 43.9672 24.7765 44.0969C25.5603 44.2285 26.7019 44.293 28.205 44.293C31.0765 44.293 33.3124 44.9631 34.9132 46.3008L45.4409 35.9686V35.2832Z" fill="#2D2216"/>
<path fill-rule="evenodd" clip-rule="evenodd" d="M37.3126 50.8546C37.3126 52.6835 36.495 54.2991 34.8641 55.702C33.2313 57.1067 30.685 57.8081 27.2257 57.8081C25.7227 57.8081 24.3518 57.5967 23.1118 57.1706C21.8712 56.7471 20.9239 56.2737 20.2723 55.7512C19.6188 55.2292 19.0483 54.6249 18.5583 53.9395C18.0684 53.2534 17.7751 52.7635 17.6768 52.4702C17.579 52.1764 17.4966 51.9655 17.4321 51.834L17.236 51.3446C16.4528 49.3854 15.6358 48.0803 14.788 47.4268C13.9391 46.7751 12.2085 46.4481 9.59766 46.4481C3.19807 46.4481 0.00012207 48.3422 0.00012207 52.1272C0.00012207 53.4987 0.357909 55.2612 1.07717 57.4159L1.27328 58.3952C1.46877 59.0487 1.82717 59.8811 2.35033 60.8924C2.87225 61.9061 3.52574 63.0145 4.30893 64.2219C5.09213 65.4311 6.18516 66.6551 7.58988 67.895C8.99336 69.1356 10.5598 70.2618 12.2909 71.2737C14.0196 72.2862 16.1743 73.1192 18.7544 73.7702C21.3327 74.4225 24.1237 74.7495 27.1274 74.7495C35.027 74.7495 41.5876 72.4823 46.8124 67.9436C52.0348 63.4067 54.6462 57.6452 54.6462 50.6592C54.6462 48.8315 54.3192 47.069 53.6669 45.3704C53.0141 43.6731 52.2794 42.3022 51.4636 41.2571C50.6466 40.2133 49.7011 39.234 48.6241 38.3186C47.5464 37.4057 46.8124 36.818 46.4202 36.5567C46.0286 36.296 45.7016 36.1006 45.4409 35.969L34.9132 46.3006C36.5122 47.6395 37.3126 49.1573 37.3126 50.8546Z" fill="#0AC6C6"/>
<path fill-rule="evenodd" clip-rule="evenodd" d="M49.2894 22.3416C49.3515 19.2309 47.3437 11.2828 40.7413 6.56636C33.9126 1.68951 22.4923 1.77312 14.7384 6.75755C9.14659 10.3526 5.42672 17.5637 3.72815 21.4748C3.84065 21.6678 3.9636 21.8584 4.10008 22.0471C5.69352 18.2934 9.40294 10.8629 15.0458 7.23521C22.6165 2.3682 33.7583 2.2766 40.4111 7.02865C46.8298 11.6135 48.7816 19.3176 48.7214 22.3305C48.5818 29.3381 42.3679 36.575 29.7722 44.3737C30.0759 44.4039 30.3716 44.442 30.6581 44.4893C43.0361 36.7145 49.1474 29.4407 49.2894 22.3416Z" fill="white"/>
<path fill-rule="evenodd" clip-rule="evenodd" d="M42.4854 28.5134C47.3807 20.9587 41.9973 14.0003 40.2305 12.0472C38.2473 9.85498 33.0434 6.49965 26.8344 6.24022C22.5164 6.06071 18.7455 7.44207 15.6354 10.3499C10.1905 15.4394 7.33255 20.7269 5.96411 23.9371C6.1135 24.0552 6.26903 24.172 6.43009 24.2869C7.74813 21.1535 10.5643 15.8673 16.0233 10.7642C19.0184 7.96399 22.6516 6.6269 26.8104 6.80764C32.1526 7.0308 37.4949 9.87034 39.8094 12.4283C41.5074 14.3052 46.6842 20.9894 42.009 28.2042C37.3768 35.3531 31.4887 38.8984 20.3119 40.9566C20.3844 41.1441 20.4649 41.3218 20.5522 41.4896C31.8151 39.3958 37.7752 35.7835 42.4854 28.5134Z" fill="white"/>
<path fill-rule="evenodd" clip-rule="evenodd" d="M39.5265 25.4631C40.6964 21.2016 37.1733 15.5729 31.3313 12.3694C26.6136 9.78193 21.7067 11.1233 16.7474 16.3579C14.728 18.4899 11.8897 22.937 9.89478 26.2377C10.0786 26.3127 10.2599 26.3784 10.4401 26.4418C12.4263 23.1645 15.2167 18.7998 17.1593 16.7489C21.9188 11.7258 26.5946 10.42 31.0589 12.8674C36.6759 15.9479 40.081 21.2981 38.9794 25.3125C38.0413 28.7274 29.262 34.5799 19.5864 35.5801C19.5864 35.778 19.5894 35.9686 19.5931 36.1592C29.771 35.1676 38.5601 28.9838 39.5265 25.4631Z" fill="white"/>
</svg>
