<svg width="57" height="75" viewBox="0 0 57 75" fill="none" xmlns="http://www.w3.org/2000/svg">
<mask id="mask0" mask-type="alpha" maskUnits="userSpaceOnUse" x="0" y="0" width="57" height="75">
<path fill-rule="evenodd" clip-rule="evenodd" d="M0.000244141 0.625244H56.6531V74.9007H0.000244141V0.625244Z" fill="white"/>
</mask>
<g mask="url(#mask0)">
<path fill-rule="evenodd" clip-rule="evenodd" d="M47.8909 57.1777C49.4846 57.1777 50.679 57.2446 51.4752 57.3771C52.2721 57.5109 53.134 57.8252 54.064 58.3234C54.9934 58.8209 55.6577 59.7165 56.0552 61.0109C56.454 62.3059 56.6534 64.0152 56.6534 66.1384C56.6534 68.1971 56.4365 69.8571 56.0059 71.1171C55.5734 72.379 54.8765 73.2577 53.9146 73.7552C52.9521 74.2534 52.0559 74.569 51.2265 74.7015C50.3959 74.834 49.2184 74.9009 47.6921 74.9009H8.76274C6.37274 74.9009 4.31462 74.0046 2.58962 72.2121C0.862119 70.4202 0.000244141 68.329 0.000244141 65.9402C0.000244141 62.3552 1.24462 59.054 3.73399 56.0327C6.22337 53.0134 9.22587 50.4246 12.7452 48.2671C16.2621 46.1102 19.7796 43.9859 23.2984 41.8946C26.8159 39.804 29.8202 37.4315 32.309 34.7759C34.799 32.1221 36.0427 29.2996 36.0427 26.3127C36.0427 26.1134 36.0084 25.8321 35.9434 25.4665C35.8765 25.1027 35.6446 24.4552 35.2471 23.5252C34.8484 22.5959 34.3659 21.7827 33.8027 21.0852C33.2384 20.389 32.3584 19.7415 31.164 19.144C29.9696 18.5465 28.5752 18.2477 26.9827 18.2477C24.3271 18.2477 22.219 19.029 20.6609 20.5877C19.0996 22.1484 18.2202 23.6915 18.0215 25.2177L17.6227 27.5077V28.1046C17.6227 29.5659 17.574 30.6609 17.474 31.3909C17.3746 32.1221 17.059 32.934 16.5284 33.8302C15.9965 34.7259 15.1002 35.3577 13.8402 35.7215C12.5784 36.0871 10.8859 36.269 8.76274 36.269C7.03524 36.269 5.60899 36.1046 4.48087 35.7715C3.35087 35.4402 2.48962 35.0421 1.89212 34.5765C1.29462 34.1127 0.846494 33.4315 0.547744 32.5359C0.248994 31.6396 0.0833691 30.8771 0.0496191 30.2452C0.0158691 29.6152 0.000244141 28.6696 0.000244141 27.4084C0.000244141 20.5052 2.47212 14.3152 7.41774 8.83899C12.3621 3.36274 18.8502 0.625244 26.8834 0.625244C34.8484 0.625244 41.3196 3.39712 46.2984 8.93837C51.2765 14.4815 53.7652 20.804 53.7652 27.9059C53.7652 31.689 52.9346 35.274 51.2765 38.659C49.6165 42.044 47.6084 44.7821 45.2527 46.8727C42.8959 48.964 40.539 50.7902 38.184 52.349C35.8265 53.9096 33.8184 55.0215 32.1596 55.6846L29.6709 56.6802V57.1777H47.8909Z" fill="#FFD400"/>
</g>
<mask id="mask1" mask-type="alpha" maskUnits="userSpaceOnUse" x="0" y="0" width="57" height="75">
<path fill-rule="evenodd" clip-rule="evenodd" d="M0.000244141 0.625H56.6531V74.9005H0.000244141V0.625Z" fill="white"/>
</mask>
<g mask="url(#mask1)">
<path fill-rule="evenodd" clip-rule="evenodd" d="M47.8915 57.178C49.4846 57.178 50.679 57.2449 51.4752 57.3768C52.2721 57.5111 53.134 57.8249 54.0646 58.323C54.9927 58.8205 55.6577 59.7168 56.0559 61.0111C56.4534 62.3055 56.6534 64.0149 56.6534 66.1386C56.6534 68.1968 56.4365 69.8574 56.0052 71.1168C55.5734 72.3786 54.8765 73.258 53.9152 73.7555C52.9521 74.253 52.0559 74.5693 51.2265 74.7011C50.3959 74.8336 49.2177 74.9005 47.6921 74.9005H8.76212C6.37212 74.9005 4.31399 74.0043 2.58899 72.2124C0.862119 70.4199 0.000244141 68.3293 0.000244141 65.9399C0.000244141 62.3555 1.24462 59.0543 3.73399 56.0324C6.22337 53.013 9.22587 50.4249 12.7452 48.2668C16.2621 46.1105 19.7796 43.9855 23.2984 41.8949C26.8159 39.8036 29.8202 37.4311 32.309 34.7761C34.7984 32.1218 36.0434 29.2999 36.0434 26.3124C36.0434 26.1136 36.0084 25.8318 35.9434 25.4661C35.8759 25.1024 35.6446 24.4549 35.2465 23.5249C34.8484 22.5961 34.3652 21.7824 33.8021 21.0855C33.2384 20.3886 32.3584 19.7411 31.164 19.1436C29.969 18.5468 28.5759 18.248 26.9827 18.248C24.3271 18.248 22.219 19.0286 20.6602 20.5874C19.0996 22.148 18.2202 23.6911 18.0215 25.2174L17.6227 27.5074V28.1049C17.6227 29.5655 17.5734 30.6605 17.474 31.3905C17.374 32.1218 17.0584 32.9336 16.5277 33.8299C15.9959 34.7261 15.0996 35.3574 13.8402 35.7218C12.5777 36.0868 10.8852 36.2693 8.76212 36.2693C7.03524 36.2693 5.60899 36.1043 4.48024 35.7711C3.35087 35.4399 2.48899 35.0418 1.89149 34.5761C1.29462 34.113 0.846494 33.4318 0.547744 32.5355C0.248994 31.6393 0.0821191 30.8768 0.0502441 30.2455C0.0152441 29.6155 0.000244141 28.6693 0.000244141 27.408C0.000244141 20.5055 2.47212 14.3149 7.41712 8.83863C12.3615 3.363 18.8509 0.624878 26.8827 0.624878C34.8484 0.624878 41.3196 3.39738 46.2977 8.93863C51.2759 14.4818 53.7652 20.8036 53.7652 27.9061C53.7652 31.6893 52.934 35.2736 51.2759 38.6586C49.6165 42.0436 47.6077 44.7817 45.2521 46.873C42.8959 48.9636 40.5384 50.7899 38.1834 52.3493C35.8265 53.9093 33.8177 55.0218 32.1596 55.6843L29.6709 56.6799V57.178H47.8915Z" fill="#FFD400"/>
</g>
<path fill-rule="evenodd" clip-rule="evenodd" d="M51.4755 57.377C50.6792 57.2451 49.4842 57.1782 47.8917 57.1782H29.6705C38.7248 57.5776 46.8886 57.6745 53.6136 58.0995C52.8548 57.7338 52.1405 57.4888 51.4755 57.377Z" fill="#2D2216"/>
<mask id="mask2" mask-type="alpha" maskUnits="userSpaceOnUse" x="0" y="0" width="54" height="58">
<path fill-rule="evenodd" clip-rule="evenodd" d="M6.10352e-05 0.625H53.7657V57.1781H6.10352e-05V0.625Z" fill="white"/>
</mask>
<g mask="url(#mask2)">
<path fill-rule="evenodd" clip-rule="evenodd" d="M29.6707 56.68L32.1594 55.6844C33.8182 55.0219 35.8269 53.9094 38.1832 52.3494C40.5388 50.79 42.8957 48.9637 45.2526 46.8731C47.6076 44.7819 49.6163 42.0437 51.2757 38.6587C52.9344 35.2738 53.7657 31.6894 53.7657 27.9056C53.7657 20.8037 51.2757 14.4813 46.2982 8.93875C41.3201 3.3975 34.8482 0.625 26.8826 0.625C18.8507 0.625 12.3619 3.36312 7.41756 8.83875C2.47194 14.315 6.10352e-05 20.5056 6.10352e-05 27.4081C6.10352e-05 28.6694 0.015686 29.6156 0.050061 30.2456C0.081936 30.8769 0.249436 31.6394 0.547561 32.5356C0.846311 33.4319 1.29506 34.1131 1.89194 34.5762C2.48944 35.0419 3.35131 35.44 4.48006 35.7713C5.60881 36.1044 7.03506 36.2694 8.76194 36.2694C10.8851 36.2694 12.5776 36.0869 13.8401 35.7219C15.1001 35.3575 15.9957 34.7263 16.5282 33.83C17.0582 32.9338 17.3738 32.1219 17.4738 31.3906C17.5738 30.6606 17.6232 29.5656 17.6232 28.105V27.5075L18.0213 25.2175C18.2207 23.6912 19.0994 22.1481 20.6601 20.5875C22.2188 19.0287 24.3269 18.2481 26.9826 18.2481C28.5757 18.2481 29.9694 18.5469 31.1644 19.1437C32.3588 19.7412 33.2382 20.3888 33.8019 21.0856C34.3657 21.7825 34.8482 22.5963 35.2463 23.525C35.6451 24.455 35.8763 25.1025 35.9432 25.4662C36.0088 25.8319 36.0432 26.1138 36.0432 26.3125C36.0432 29.2994 34.7982 32.1219 32.3094 34.7762C29.8201 37.4312 26.8163 39.8037 23.2988 41.895C19.7801 43.9856 16.2619 46.1106 12.7451 48.2669C9.22569 50.425 6.22319 53.0131 3.73381 56.0325L29.6707 57.1781V56.68Z" fill="#FFD400"/>
</g>
<path fill-rule="evenodd" clip-rule="evenodd" d="M2.58875 72.2122C4.31437 74.0047 6.3725 74.9003 8.76188 74.9003H47.6919C49.2175 74.9003 50.3956 74.8335 51.2262 74.701C52.0556 74.5691 52.9519 74.2535 53.915 73.7553C54.8763 73.2578 55.5731 72.3785 56.0056 71.1172C56.4363 69.8572 56.6531 68.1972 56.6531 66.1385C56.6531 64.0153 56.4538 62.3053 56.0556 61.011C55.6575 59.7166 54.9931 58.821 54.0644 58.3228C53.9113 58.241 53.7625 58.1716 53.6138 58.0997C46.8888 57.6747 38.7244 57.5778 29.6706 57.1778L3.73375 56.0328C1.245 59.0541 0 62.3553 0 65.9397C0 68.3291 0.861875 70.4197 2.58875 72.2122Z" fill="#2D2216"/>
<path fill-rule="evenodd" clip-rule="evenodd" d="M32.3092 34.7759C29.8205 37.4315 26.8161 39.8034 23.2986 41.8947C19.7798 43.9853 16.2617 46.1103 12.7448 48.2665C9.22546 50.4247 6.22358 53.0134 3.73358 56.0328L29.6705 57.1778V56.6797L32.1598 55.684C33.818 55.0215 35.8267 53.909 38.183 52.349C40.5386 50.7903 42.8955 48.964 45.2523 46.8728C47.608 44.7815 49.6161 42.0434 51.2761 38.6584C52.9342 35.2734 53.7655 31.689 53.7655 27.9059C53.7655 26.3134 53.633 24.7628 53.383 23.2484L35.5967 29.3115C35.0367 31.2047 33.9486 33.0278 32.3092 34.7759Z" fill="#FF812F"/>
<mask id="mask3" mask-type="alpha" maskUnits="userSpaceOnUse" x="0" y="0" width="54" height="37">
<path fill-rule="evenodd" clip-rule="evenodd" d="M6.10352e-05 0.625H53.3826V36.2693H6.10352e-05V0.625Z" fill="white"/>
</mask>
<g mask="url(#mask3)">
<path fill-rule="evenodd" clip-rule="evenodd" d="M26.8826 0.625C18.8507 0.625 12.3619 3.36312 7.41694 8.83875C2.47194 14.315 6.10352e-05 20.5056 6.10352e-05 27.4081C6.10352e-05 28.6694 0.015686 29.6156 0.050061 30.2456C0.081936 30.8769 0.249436 31.6394 0.547561 32.5356C0.846311 33.4319 1.29506 34.1131 1.89194 34.5762C2.48944 35.0419 3.35131 35.44 4.48006 35.7713C5.60881 36.1044 7.03506 36.2694 8.76194 36.2694C10.8851 36.2694 12.5776 36.0869 13.8401 35.7219C15.0994 35.3575 15.9957 34.7263 16.5282 33.83C17.0582 32.9338 17.3738 32.1219 17.4738 31.3906C17.5732 30.6606 17.6232 29.5656 17.6232 28.105V27.5075L18.0213 25.2175C18.2207 23.6912 19.0994 22.1481 20.6601 20.5875C22.2188 19.0287 24.3269 18.2481 26.9826 18.2481C28.5757 18.2481 29.9688 18.5469 31.1644 19.1437C32.3588 19.7412 33.2382 20.3888 33.8019 21.0856C34.3657 21.7825 34.8482 22.5963 35.2463 23.525C35.6451 24.455 35.8763 25.1025 35.9432 25.4662C36.0088 25.8319 36.0432 26.1138 36.0432 26.3125C36.0432 27.3319 35.8863 28.3312 35.5963 29.3119L53.3826 23.2488C52.5176 18.01 50.1601 13.2388 46.2976 8.93875C41.3201 3.3975 34.8482 0.625 26.8826 0.625Z" fill="#FFD400"/>
</g>
<path fill-rule="evenodd" clip-rule="evenodd" d="M17.7023 52.5616C19.5692 51.1091 21.903 49.671 24.3723 48.1478C32.1917 43.3278 41.8105 37.3922 44.8173 26.1685L41.4123 27.3291C41.2473 27.9385 41.0311 28.611 40.7448 29.3291C39.6786 32.0085 37.4061 35.8278 32.6373 38.8091C31.488 39.5272 30.2155 40.3041 28.8642 41.1291C21.8673 45.3997 12.9617 50.8385 7.8067 56.2122L13.2892 56.4547C14.5255 55.2172 15.9905 53.8928 17.7023 52.5616Z" fill="#FF812F"/>
<path fill-rule="evenodd" clip-rule="evenodd" d="M25.2224 52.5647C25.808 52.201 26.3149 51.8866 26.7249 51.6035C28.963 50.0591 36.7868 44.4835 43.4674 37.5628C48.1212 32.741 48.9605 27.2591 49.0824 24.7147L45.4699 25.9466C42.5237 37.6291 32.6705 43.711 24.6762 48.6397C22.2187 50.1541 19.8987 51.5841 18.0562 53.0172C16.533 54.2022 15.2174 55.3766 14.0793 56.4897L19.6112 56.7335C21.3962 54.9441 23.588 53.5797 25.2224 52.5647Z" fill="#FF812F"/>
<path fill-rule="evenodd" clip-rule="evenodd" d="M28.5629 40.6359C29.9129 39.8121 31.1829 39.0365 32.331 38.319C36.9573 35.4278 39.1629 31.7315 40.1985 29.1403C40.4223 28.5821 40.6004 28.0515 40.7454 27.5565L35.5966 29.3115C35.0366 31.2046 33.9485 33.0278 32.3091 34.7759C29.8204 37.4315 26.816 39.8034 23.2985 41.8946C19.7798 43.9853 16.2616 46.1103 12.7448 48.2665C9.22602 50.4246 6.22352 53.0134 3.73352 56.0328L7.05102 56.179C12.2216 50.6115 21.3891 45.0146 28.5629 40.6359Z" fill="#FF812F"/>
<path fill-rule="evenodd" clip-rule="evenodd" d="M53.3828 23.2485L52.6466 23.4998C53.0766 27.0592 52.5872 31.5298 49.6403 36.4179C45.3453 43.5417 39.666 47.4967 34.6553 50.986C31.781 52.9879 29.1266 54.8379 26.9785 57.0592L29.671 57.1779V56.6798L32.1597 55.6842C33.8178 55.0217 35.8266 53.9092 38.1835 52.3492C40.5385 50.7898 42.896 48.9642 45.2522 46.8729C47.6078 44.7817 49.6166 42.0435 51.276 38.6585C52.9341 35.2735 53.7653 31.6892 53.7653 27.906C53.7653 26.3135 53.6328 24.7623 53.3828 23.2485Z" fill="#FF812F"/>
<path fill-rule="evenodd" clip-rule="evenodd" d="M34.3258 50.5124C39.2883 47.0561 44.9139 43.1386 49.1458 36.1199C52.0471 31.3074 52.4733 26.9474 52.1121 23.6818L49.6671 24.5155C49.5783 27.0499 48.7983 32.8699 43.8821 37.963C37.1646 44.923 29.3027 50.5268 27.0527 52.0786C26.6308 52.3699 26.1189 52.6874 25.5264 53.0555C23.9602 54.028 22.0196 55.2393 20.3858 56.768L26.2158 57.0255C28.4558 54.6068 31.2664 52.6424 34.3258 50.5124Z" fill="#FF812F"/>
<path fill-rule="evenodd" clip-rule="evenodd" d="M28.8644 41.1288C30.215 40.3038 31.4875 39.527 32.6369 38.8088C37.4063 35.8282 39.6788 32.0082 40.745 29.3295C41.0313 28.6113 41.2469 27.9382 41.4119 27.3295L40.7456 27.557C40.6 28.052 40.4219 28.582 40.1988 29.1401C39.1631 31.732 36.9569 35.4276 32.3313 38.3195C31.1831 39.037 29.9131 39.8126 28.5631 40.6357C21.3894 45.0151 12.2213 50.612 7.05127 56.1795L7.80689 56.2126C12.9619 50.8382 21.8675 45.3995 28.8644 41.1288Z" fill="white"/>
<path fill-rule="evenodd" clip-rule="evenodd" d="M24.6762 48.6395C32.6706 43.7108 42.5237 37.6289 45.4699 25.9464L44.8174 26.1689C41.8106 37.3927 32.1912 43.3277 24.3724 48.1483C21.9031 49.6708 19.5693 51.1095 17.7024 52.5614C15.9906 53.8927 14.5256 55.217 13.2893 56.4545L14.0793 56.4895C15.2174 55.3764 16.5331 54.202 18.0562 53.017C19.8987 51.5839 22.2187 50.1539 24.6762 48.6395Z" fill="white"/>
<path fill-rule="evenodd" clip-rule="evenodd" d="M27.0529 52.0788C29.3029 50.5269 37.1648 44.9231 43.8823 37.9631C48.7985 32.87 49.5785 27.05 49.6673 24.515L49.0823 24.715C48.961 27.2588 48.121 32.7406 43.4679 37.5625C36.7866 44.4838 28.9635 50.0594 26.7254 51.6031C26.3148 51.8863 25.8085 52.2006 25.2223 52.5644C23.5879 53.5794 21.396 54.9438 19.6116 56.7338L20.386 56.7681C22.0191 55.2394 23.9604 54.0281 25.5266 53.055C26.1191 52.6875 26.631 52.3694 27.0529 52.0788Z" fill="white"/>
<path fill-rule="evenodd" clip-rule="evenodd" d="M49.6401 36.4181C52.587 31.53 53.0764 27.0594 52.647 23.5L52.112 23.6819C52.4733 26.9475 52.047 31.3075 49.1458 36.12C44.9139 43.1388 39.2889 47.0563 34.3258 50.5125C31.267 52.6425 28.4558 54.6069 26.2158 57.0256L26.9783 57.0588C29.127 54.8381 31.7814 52.9875 34.6551 50.9862C39.6658 47.4969 45.3451 43.5419 49.6401 36.4181Z" fill="white"/>
<path fill-rule="evenodd" clip-rule="evenodd" d="M9.35875 28.9014C9.35875 29.7589 8.66438 30.4532 7.80688 30.4532C6.95 30.4532 6.255 29.7589 6.255 28.9014C6.255 28.0445 6.95 27.3495 7.80688 27.3495C8.66438 27.3495 9.35875 28.0445 9.35875 28.9014Z" fill="white"/>
<path fill-rule="evenodd" clip-rule="evenodd" d="M11.8551 18.4469C11.8551 19.3044 11.1601 19.9988 10.3032 19.9988C9.44636 19.9988 8.75073 19.3044 8.75073 18.4469C8.75073 17.59 9.44636 16.895 10.3032 16.895C11.1601 16.895 11.8551 17.59 11.8551 18.4469Z" fill="white"/>
<path fill-rule="evenodd" clip-rule="evenodd" d="M18.5464 10.2804C18.5464 11.1373 17.8514 11.8323 16.9945 11.8323C16.1376 11.8323 15.442 11.1373 15.442 10.2804C15.442 9.42289 16.1376 8.72852 16.9945 8.72852C17.8514 8.72852 18.5464 9.42289 18.5464 10.2804Z" fill="white"/>
<path fill-rule="evenodd" clip-rule="evenodd" d="M29.8788 7.17639C29.8788 8.03389 29.1838 8.72826 28.3269 8.72826C27.4694 8.72826 26.7744 8.03389 26.7744 7.17639C26.7744 6.31889 27.4694 5.62451 28.3269 5.62451C29.1838 5.62451 29.8788 6.31889 29.8788 7.17639Z" fill="white"/>
<path fill-rule="evenodd" clip-rule="evenodd" d="M41.0507 10.2804C41.0507 11.1373 40.3563 11.8323 39.4995 11.8323C38.642 11.8323 37.947 11.1373 37.947 10.2804C37.947 9.42289 38.642 8.72852 39.4995 8.72852C40.3563 8.72852 41.0507 9.42289 41.0507 10.2804Z" fill="white"/>
<path fill-rule="evenodd" clip-rule="evenodd" d="M46.3687 19.0695C46.3687 19.927 45.6743 20.6213 44.8175 20.6213C43.96 20.6213 43.265 19.927 43.265 19.0695C43.265 18.2126 43.96 17.5176 44.8175 17.5176C45.6743 17.5176 46.3687 18.2126 46.3687 19.0695Z" fill="white"/>
</svg>
