<svg xmlns="http://www.w3.org/2000/svg" width="36.877" height="47.765" viewBox="0 0 36.877 47.765">
  <g id="files-and-folders-2" transform="translate(-0.182 -0.117)">
    <path id="Path" d="M35.222,1.948a1.842,1.842,0,0,0-.044-.406A1.954,1.954,0,0,0,33.27,0H1.952A1.952,1.952,0,0,0,0,1.948V44.162a1.959,1.959,0,0,0,1.537,1.9,1.926,1.926,0,0,0,.415.045H33.27a1.952,1.952,0,0,0,1.952-1.948Z" transform="translate(1.837 1.773)" fill="#e6e7e8"/>
    <path id="Path-2" data-name="Path" d="M34.394,1.534V43.748a1.537,1.537,0,0,1-1.538,1.534H1.538a1.5,1.5,0,0,1-.326-.035A1.537,1.537,0,0,1,0,43.748V1.534A1.537,1.537,0,0,1,1.538,0H32.856a1.533,1.533,0,0,1,1.5,1.213A1.416,1.416,0,0,1,34.394,1.534Z" transform="translate(0.596 0.531)" fill="#5dc2a7"/>
    <path id="Path-3" data-name="Path" d="M34.359,1.213A1.533,1.533,0,0,0,32.856,0H1.538A1.538,1.538,0,0,0,0,1.534V2.776A1.537,1.537,0,0,1,1.538,1.241H32.856a1.533,1.533,0,0,1,1.5,1.213,1.443,1.443,0,0,1,.035.322V1.535a1.417,1.417,0,0,0-.035-.322Z" transform="translate(0.596 0.531)" fill="#fff"/>
    <path id="Path-4" data-name="Path" d="M0,0H40.575V29.682H0Z" transform="translate(32.634 2.886) rotate(90)" fill="#d4fbff"/>
    <path id="Path-5" data-name="Path" d="M3.447.373A1.864,1.864,0,0,1,1.772,0L0,4.192l2.338-.949.949,2.338L5.042,1.43A1.863,1.863,0,0,1,3.447.373Z" transform="translate(18.679 36.503)" fill="#eb9138"/>
    <path id="Path-6" data-name="Path" d="M1.58.3A1.863,1.863,0,0,1,0,1.225L1.753,5.372,2.7,3.034l2.338.949L3.356,0A1.864,1.864,0,0,1,1.58.3Z" transform="translate(23.842 36.713)" fill="#eb9138"/>
    <path id="Path-7" data-name="Path" d="M9.951,5.1A1.864,1.864,0,0,0,9.02,3.487,1.863,1.863,0,0,0,6.782,1.063a1.863,1.863,0,0,0-3.3-.132A1.863,1.863,0,0,0,1.063,3.169a1.863,1.863,0,0,0-.132,3.3A1.863,1.863,0,0,0,3.169,8.888a1.863,1.863,0,0,0,3.3.132A1.863,1.863,0,0,0,8.888,6.782,1.864,1.864,0,0,0,9.951,5.1Z" transform="translate(18.957 27.988)" fill="#fcf055"/>
    <circle id="Oval" cx="2.483" cy="2.483" r="2.483" transform="translate(21.45 30.481)" fill="#eb9138"/>
    <path id="Path-8" data-name="Path" d="M16.311,2.616h-15A1.308,1.308,0,1,1,1.308,0h15a1.308,1.308,0,0,1,0,2.616Z" transform="translate(8.983 8.285)" fill="#eb9138"/>
    <g id="Group">
      <path id="Path-9" data-name="Path" d="M35.178,1.542A1.954,1.954,0,0,0,33.27,0H1.952A1.952,1.952,0,0,0,0,1.948V44.162a1.959,1.959,0,0,0,1.537,1.9,1.926,1.926,0,0,0,.415.045H33.27a1.952,1.952,0,0,0,1.952-1.948V18.794a.414.414,0,1,0-.828,0V44.162a1.124,1.124,0,0,1-1.125,1.121H1.952A1.125,1.125,0,0,1,.828,44.162V1.948A1.124,1.124,0,0,1,1.952.828H33.27a1.125,1.125,0,0,1,1.1.893,1.021,1.021,0,0,1,.025.228v9.2a.414.414,0,1,0,.828,0v-9.2A1.873,1.873,0,0,0,35.178,1.542Z" transform="translate(0.182 0.118)"/>
      <path id="Path-10" data-name="Path" d="M.414,0A.414.414,0,0,0,0,.414V3.94a.414.414,0,0,0,.828,0V.414A.414.414,0,0,0,.414,0Z" transform="translate(34.577 12.879)" fill="#3a2c60"/>
      <path id="Path-11" data-name="Path" d="M.414.828H20.849a.414.414,0,1,0,0-.828H.414a.414.414,0,0,0,0,.828Z" transform="translate(7.162 15.744)"/>
      <path id="Path-12" data-name="Path" d="M.414.828H20.849a.414.414,0,1,0,0-.828H.414a.414.414,0,0,0,0,.828Z" transform="translate(7.162 20.323)"/>
      <path id="Path-13" data-name="Path" d="M21.262.414A.414.414,0,0,0,20.849,0H.414a.414.414,0,0,0,0,.828H20.849A.414.414,0,0,0,21.262.414Z" transform="translate(7.162 25.08)"/>
      <path id="Path-14" data-name="Path" d="M.414,0a.414.414,0,0,0,0,.828H7.426a.414.414,0,0,0,0-.828Z" transform="translate(7.162 30.291)"/>
    </g>
  </g>
</svg>
