<svg width="20" height="32" viewBox="0 0 20 32" fill="none" xmlns="http://www.w3.org/2000/svg">
<path d="M17.2084 0H2.54175C1.43719 0 0.541748 0.895437 0.541748 2C0.541748 3.10456 1.43719 4 2.54175 4H17.2084C18.313 4 19.2084 3.10456 19.2084 2C19.2084 0.895437 18.3129 0 17.2084 0Z" fill="#5DC2A7"/>
<path d="M17.2083 29.3334H2.54169C2.1735 29.3334 1.875 29.0349 1.875 28.6667V23.0867C1.87494 21.3562 2.62194 19.7101 3.92431 18.5707L6.28831 16.5014C6.56519 16.2587 6.59288 15.8375 6.35019 15.5606C6.33094 15.5387 6.31025 15.518 6.28831 15.4987L3.92431 13.4294C2.62194 12.2901 1.87494 10.6439 1.875 8.91344V3.33344C1.875 2.96525 2.1735 2.66675 2.54169 2.66675H17.2084C17.5766 2.66675 17.8751 2.96525 17.8751 3.33344V8.91344C17.8751 10.6439 17.1281 12.2901 15.8258 13.4294L13.4618 15.4987C13.1849 15.7414 13.1572 16.1626 13.3999 16.4395C13.4191 16.4614 13.4398 16.4821 13.4618 16.5014L15.8258 18.5707C17.1281 19.7101 17.8751 21.3562 17.8751 23.0867V28.6667C17.875 29.0349 17.5765 29.3334 17.2083 29.3334Z" fill="#5DC2A7"/>
<path d="M3.20825 28H16.5416V23.0867C16.5399 21.74 15.9566 20.4596 14.9416 19.5747L12.5776 17.5054C11.7462 16.7781 11.6618 15.5146 12.3891 14.6833C12.4476 14.6163 12.5106 14.5533 12.5776 14.4948L14.9416 12.4254C15.9566 11.5405 16.5399 10.2601 16.5416 8.91344V4H3.20825V8.91331C3.20988 10.26 3.79319 11.5404 4.80825 12.4253L7.17225 14.4946C8.00325 15.2223 8.087 16.4859 7.35938 17.3169C7.30119 17.3833 7.23869 17.4458 7.17225 17.504L4.80825 19.5747C3.79319 20.4596 3.20988 21.74 3.20825 23.0867V28Z" fill="white"/>
<path d="M13.8243 11.0786C13.7212 10.8293 13.4781 10.6667 13.2083 10.6666H6.54166C6.17347 10.6659 5.87447 10.9639 5.87378 11.3321C5.87347 11.5096 5.94397 11.6799 6.06966 11.8053L9.40297 15.1386C9.66328 15.3989 10.0853 15.3989 10.3457 15.1386L13.679 11.8053C13.87 11.6148 13.9273 11.3279 13.8243 11.0786Z" fill="#EB9138"/>
<path d="M17.2084 28H2.54175C1.43719 28 0.541748 28.8954 0.541748 30C0.541748 31.1046 1.43719 32 2.54175 32H17.2084C18.313 32 19.2084 31.1046 19.2084 30C19.2084 28.8954 18.3129 28 17.2084 28Z" fill="#5DC2A7"/>
<path d="M10.3229 20.84C10.0596 20.6016 9.65556 20.6116 9.40425 20.8627L3.20825 27.0574V28H16.5416V26.4934L10.3229 20.84Z" fill="#EB9138"/>
</svg>
