<svg width="16" height="17" viewBox="0 0 16 17" fill="none" xmlns="http://www.w3.org/2000/svg">
<rect x="0.333374" y="7.32617" width="4.66667" height="8.34784" fill="white"/>
<path fill-rule="evenodd" clip-rule="evenodd" d="M0.333345 16.0215H5.00002C5.18411 16.0215 5.33336 15.8658 5.33336 15.6737V7.32586C5.33336 7.13377 5.18411 6.97803 5.00002 6.97803H0.333345C0.149251 6.97803 0 7.13377 0 7.32586V15.6737C0 15.8658 0.149251 16.0215 0.333345 16.0215ZM4.66664 15.3258H0.666626V7.67358H4.66664V15.3258Z" fill="white"/>
<path fill-rule="evenodd" clip-rule="evenodd" d="M6.99998 15.3258H13.1667C13.9944 15.3247 14.6652 14.625 14.6666 13.7613C14.6673 13.5198 14.6137 13.2815 14.5099 13.0657C15.0141 12.8013 15.3326 12.2631 15.3333 11.6743C15.334 11.4329 15.2804 11.1946 15.1766 10.9787C15.318 10.9048 15.4473 10.8078 15.5595 10.6915C16.1436 10.0861 16.1468 9.10123 15.5666 8.49174C15.8463 8.1737 16.001 7.75745 15.9999 7.32581C15.9999 6.36532 15.2538 5.58669 14.3333 5.58669H10.1333C10.4366 4.69024 10.6162 3.75333 10.6666 2.80409C10.6666 1.29521 9.43796 0.0214844 8.66661 0.0214844C8.2313 0.0280387 7.80876 0.176115 7.45795 0.445137C7.37895 0.5113 7.33307 0.611409 7.33329 0.717127V3.07608L5.41263 7.41695L4.85063 7.71053C4.73785 7.76948 4.66663 7.88984 4.66663 8.02149V14.2824C4.66647 14.3747 4.7015 14.4633 4.76397 14.5286C5.40719 15.0394 6.1917 15.3191 6.99998 15.3258ZM7.00004 14.6303C6.41203 14.613 5.83816 14.4384 5.33337 14.1232V8.23653L5.81603 7.9847C5.88356 7.94945 5.93763 7.8913 5.96938 7.81983L7.96938 3.29807C7.98954 3.25222 7.99998 3.2024 8.00004 3.15198V0.90573C8.20373 0.785958 8.43289 0.721164 8.6667 0.717218C9.03204 0.717218 10 1.6647 10 2.80418C9.92377 3.83334 9.70667 4.84581 9.35539 5.8108C9.34095 5.85029 9.33358 5.89219 9.33354 5.93445C9.33345 6.12655 9.48261 6.28236 9.6667 6.28245H14.3333C14.6757 6.28539 14.9928 6.47084 15.1738 6.77403C15.4659 7.26313 15.3228 7.9067 14.854 8.21149C14.8024 8.24465 14.7605 8.29187 14.7327 8.34809C14.6483 8.51883 14.7124 8.7286 14.876 8.81671C15.1286 8.94809 15.2993 9.20492 15.3289 9.49774C15.3767 9.97112 15.0477 10.3953 14.594 10.4452C14.5157 10.4545 14.443 10.4925 14.3889 10.5525C14.2628 10.6924 14.2693 10.9126 14.4034 11.0442C14.5492 11.1858 14.641 11.3777 14.662 11.5844C14.7099 12.0578 14.381 12.4822 13.9274 12.5322C13.849 12.5415 13.7763 12.5795 13.7223 12.6395C13.5962 12.7794 13.6026 12.9995 13.7367 13.1311C13.9047 13.2936 14.0001 13.5218 14.0001 13.7607C13.9997 14.2408 13.6268 14.6299 13.1667 14.6303H7.00004Z" fill="white"/>
</svg>
