<svg width="25" height="16" viewBox="0 0 25 16" fill="none" xmlns="http://www.w3.org/2000/svg">
<path fill-rule="evenodd" clip-rule="evenodd" d="M20.0724 0.133818C21.4673 0.212364 22.1524 0.418909 22.7836 1.54182C23.4411 2.66327 23.7727 4.59491 23.7727 7.99709V8.00145V8.00873C23.7727 11.3949 23.4411 13.3411 22.7851 14.4509C22.1538 15.5738 21.4687 15.7775 20.0738 15.872C18.6789 15.952 15.1749 16 12.1393 16C9.09782 16 5.59236 15.952 4.19891 15.8705C2.80691 15.776 2.12182 15.5724 1.48473 14.4495C0.834545 13.3396 0.5 11.3935 0.5 8.00727V8.00436V8V7.99564C0.5 4.59491 0.834545 2.66327 1.48473 1.54182C2.12182 0.417454 2.80836 0.212364 4.20036 0.132364C5.59236 0.0392727 9.09782 0 12.1393 0C15.1749 0 18.6789 0.0392727 20.0724 0.133818ZM16.5 8L9.22727 3.63636V12.3636L16.5 8Z" fill="white"/>
</svg>
