<svg width="12" height="17" viewBox="0 0 12 17" fill="none" xmlns="http://www.w3.org/2000/svg">
<path d="M11.2079 8.14526C11.2079 8.33302 11.1454 8.52218 11.0313 8.66335L5.82349 15.7218C5.63599 15.9759 5.32349 16.1453 4.95942 16.1453H1.83442C1.26099 16.1453 0.792236 15.7218 0.792236 15.2037C0.792236 15.0159 0.854736 14.8268 0.968799 14.6856L5.79224 8.14526L0.968799 1.60494C0.854736 1.46377 0.792236 1.27602 0.792236 1.08686C0.792236 0.568768 1.26099 0.145264 1.83442 0.145264H4.95942C5.32349 0.145264 5.63599 0.314665 5.82349 0.568768L11.0313 7.62718C11.1454 7.76834 11.2079 7.95751 11.2079 8.14526Z" fill="white"/>
</svg>
