<svg width="48" height="48" viewBox="0 0 48 48" fill="none" xmlns="http://www.w3.org/2000/svg">
<path fill-rule="evenodd" clip-rule="evenodd" d="M24 0C30.4106 0 36.4375 2.49638 40.9705 7.02938C45.5035 11.5625 48 17.5894 48 24C48 30.4106 45.5035 36.4375 40.9705 40.9706C36.4375 45.5036 30.4106 48 24 48C17.5893 48 11.5623 45.5035 7.02938 40.9706C2.49638 36.4376 0 30.4106 0 24C0 17.5894 2.49638 11.5624 7.02938 7.02938C11.5623 2.49647 17.5893 0 24 0ZM2.8125 24C2.8125 35.6828 12.3172 45.1875 24 45.1875C35.6828 45.1875 45.1875 35.6828 45.1875 24C45.1875 12.3172 35.6828 2.8125 24 2.8125C12.3172 2.8125 2.8125 12.3172 2.8125 24Z" fill="white"/>
<path fill-rule="evenodd" clip-rule="evenodd" d="M19.508 10.7796L37.583 22.8298C37.9742 23.0906 38.2092 23.5297 38.2093 23.9998C38.2093 24.4699 37.9742 24.9091 37.583 25.1699L19.508 37.2198C19.2728 37.3766 19.0007 37.4559 18.7279 37.4559C18.5004 37.4559 18.2724 37.4008 18.0645 37.2895C17.6072 37.0448 17.3218 36.5683 17.3218 36.0497V11.9497C17.3218 11.4311 17.6072 10.9546 18.0645 10.7099C18.5218 10.4651 19.0765 10.492 19.508 10.7796ZM20.1342 14.5774V33.4222L34.2677 23.9999L20.1342 14.5774Z" fill="white"/>
</svg>
