<svg width="16" height="16" viewBox="0 0 16 16" fill="none" xmlns="http://www.w3.org/2000/svg">
<path d="M3.99889 0C3.68338 0 3.42761 0.255766 3.42761 0.57128V1.71381H4.57014V0.57128C4.57014 0.255766 4.31437 0 3.99889 0Z" fill="white"/>
<path d="M11.9966 0C11.6811 0 11.4254 0.255766 11.4254 0.57128V1.71381H12.5679V0.57128C12.5679 0.255766 12.3121 0 11.9966 0Z" fill="white"/>
<path fill-rule="evenodd" clip-rule="evenodd" d="M12.5679 1.71387H14.2817C15.2283 1.71387 15.9955 2.48116 15.9955 3.42767V14.2818C15.9955 15.2283 15.2283 15.9956 14.2817 15.9956H1.71381C0.767297 15.9956 0 15.2283 0 14.2818V3.42767C0 2.48116 0.767297 1.71387 1.71381 1.71387H3.42758V3.99896C3.42758 4.31447 3.68335 4.57024 3.99886 4.57024C4.31438 4.57024 4.57014 4.31447 4.57014 3.99896V1.71387H11.4254V3.99896C11.4254 4.31447 11.6811 4.57024 11.9967 4.57024C12.3122 4.57024 12.5679 4.31447 12.5679 3.99896V1.71387ZM14.2817 14.8531C14.5972 14.8531 14.853 14.5973 14.853 14.2818V6.85529H1.14253V14.2818C1.14253 14.5973 1.39829 14.8531 1.71381 14.8531H14.2817Z" fill="white"/>
<path d="M4.57013 7.9978H3.4276C3.11209 7.9978 2.85632 8.25357 2.85632 8.56908C2.85632 8.8846 3.11209 9.14036 3.4276 9.14036H4.57013C4.88565 9.14036 5.14141 8.8846 5.14141 8.56908C5.14141 8.25357 4.88565 7.9978 4.57013 7.9978Z" fill="white"/>
<path d="M8.56903 7.9978H7.4265C7.11099 7.9978 6.85522 8.25357 6.85522 8.56908C6.85522 8.8846 7.11099 9.14036 7.4265 9.14036H8.56903C8.88455 9.14036 9.14031 8.8846 9.14031 8.56908C9.14031 8.25357 8.88455 7.9978 8.56903 7.9978Z" fill="white"/>
<path d="M12.5679 7.9978H11.4254C11.1099 7.9978 10.8541 8.25357 10.8541 8.56908C10.8541 8.8846 11.1099 9.14036 11.4254 9.14036H12.5679C12.8834 9.14036 13.1392 8.8846 13.1392 8.56908C13.1392 8.25357 12.8834 7.9978 12.5679 7.9978Z" fill="white"/>
<path d="M4.57013 10.283H3.4276C3.11209 10.283 2.85632 10.5387 2.85632 10.8542C2.85632 11.1698 3.11209 11.4255 3.4276 11.4255H4.57013C4.88565 11.4255 5.14141 11.1698 5.14141 10.8542C5.14141 10.5387 4.88565 10.283 4.57013 10.283Z" fill="white"/>
<path d="M8.56903 10.283H7.4265C7.11099 10.283 6.85522 10.5387 6.85522 10.8542C6.85522 11.1698 7.11099 11.4255 7.4265 11.4255H8.56903C8.88455 11.4255 9.14031 11.1698 9.14031 10.8542C9.14031 10.5387 8.88455 10.283 8.56903 10.283Z" fill="white"/>
<path d="M12.5679 10.283H11.4254C11.1099 10.283 10.8541 10.5387 10.8541 10.8542C10.8541 11.1698 11.1099 11.4255 11.4254 11.4255H12.5679C12.8834 11.4255 13.1392 11.1698 13.1392 10.8542C13.1392 10.5387 12.8834 10.283 12.5679 10.283Z" fill="white"/>
<path d="M4.57013 12.5679H3.4276C3.11209 12.5679 2.85632 12.8236 2.85632 13.1392C2.85632 13.4547 3.11209 13.7104 3.4276 13.7104H4.57013C4.88565 13.7104 5.14141 13.4546 5.14141 13.1391C5.14141 12.8236 4.88565 12.5679 4.57013 12.5679Z" fill="white"/>
<path d="M8.56903 12.5679H7.4265C7.11099 12.5679 6.85522 12.8236 6.85522 13.1392C6.85522 13.4547 7.11099 13.7104 7.4265 13.7104H8.56903C8.88455 13.7104 9.14031 13.4547 9.14031 13.1392C9.14031 12.8236 8.88455 12.5679 8.56903 12.5679Z" fill="white"/>
<path d="M12.5679 12.5679H11.4254C11.1099 12.5679 10.8541 12.8236 10.8541 13.1392C10.8541 13.4547 11.1099 13.7104 11.4254 13.7104H12.5679C12.8834 13.7104 13.1392 13.4547 13.1392 13.1392C13.1392 12.8236 12.8834 12.5679 12.5679 12.5679Z" fill="white"/>
</svg>
