<svg width="28" height="32" viewBox="0 0 28 32" fill="none" xmlns="http://www.w3.org/2000/svg">
<path d="M7.02211 13.828L0.0371094 26.988L6.38011 26.402L9.45011 31.984L16.4351 18.824L7.02211 13.828Z" fill="#E95454"/>
<path d="M7.8221 28.152C8.0181 27.731 7.8131 27.228 7.4031 27.01L7.0011 26.796C6.5991 26.567 6.4461 26.058 6.6651 25.646C6.8871 25.227 7.4091 25.067 7.8281 25.289L8.9641 25.892C9.3151 26.078 9.7551 25.943 9.9361 25.59L9.9641 25.536C10.1721 25.203 10.0491 24.763 9.7031 24.58L6.3051 22.777C5.8911 22.557 5.6881 22.056 5.8811 21.634C6.0941 21.185 6.6321 21.008 7.0651 21.238L10.2171 22.911C10.5681 23.097 11.0081 22.962 11.1941 22.611L11.2121 22.565L11.2171 22.555C11.4181 22.187 11.2771 21.725 10.9061 21.528L9.1381 20.59C8.7241 20.37 8.5211 19.869 8.7171 19.442C8.9281 18.998 9.4681 18.816 9.9011 19.046L11.8541 20.083C12.2191 20.277 12.6551 20.115 12.8441 19.747C12.8471 19.742 12.8471 19.742 12.8491 19.737C12.8521 19.732 12.8521 19.732 12.8541 19.727C13.0531 19.364 12.9431 18.912 12.5771 18.719L10.4701 17.601C10.0611 17.384 9.8581 16.883 10.0511 16.461C10.2641 16.012 10.8021 15.835 11.2351 16.065L16.4331 18.824L9.4481 31.984L7.5231 28.485C7.6471 28.401 7.7551 28.297 7.8221 28.152Z" fill="#ED6362"/>
<path d="M20.0878 13.828L27.0728 26.988L20.7298 26.402L17.6598 31.984L10.6748 18.824L20.0878 13.828Z" fill="#ED6362"/>
<path d="M19.2878 28.152C19.0918 27.731 19.2968 27.228 19.7068 27.01L20.1088 26.796C20.5108 26.567 20.6638 26.058 20.4448 25.646C20.2228 25.227 19.7008 25.067 19.2818 25.289L18.1458 25.892C17.7948 26.078 17.3548 25.943 17.1738 25.59L17.1458 25.536C16.9378 25.203 17.0608 24.763 17.4068 24.58L20.8058 22.776C21.2198 22.556 21.4228 22.055 21.2298 21.633C21.0168 21.184 20.4788 21.007 20.0458 21.237L16.8938 22.91C16.5428 23.096 16.1028 22.961 15.9168 22.61L15.8988 22.564L15.8938 22.554C15.6928 22.186 15.8338 21.724 16.2048 21.527L17.9728 20.589C18.3868 20.369 18.5898 19.868 18.3938 19.441C18.1828 18.997 17.6428 18.815 17.2098 19.045L15.2548 20.084C14.8898 20.278 14.4538 20.116 14.2648 19.748C14.2618 19.743 14.2618 19.743 14.2598 19.738C14.2568 19.733 14.2568 19.733 14.2548 19.728C14.0558 19.365 14.1658 18.913 14.5318 18.72L16.6388 17.602C17.0478 17.385 17.2508 16.884 17.0578 16.462C16.8448 16.013 16.3068 15.836 15.8738 16.066L10.6758 18.825L17.6608 31.985L19.5858 28.486C19.4628 28.401 19.3548 28.297 19.2878 28.152Z" fill="#E95454"/>
<circle cx="13.5548" cy="11.671" r="11.671" fill="#FFCC5B"/>
<path d="M15.138 10.332H7.74197C7.16697 10.332 6.69497 9.85998 6.69497 9.28498L6.70297 9.21298V9.19698C6.69497 8.58998 7.18997 8.09398 7.79797 8.09398H12.924C13.603 8.09398 14.203 7.59098 14.243 6.91098C14.275 6.19998 13.708 5.59998 12.996 5.59998H7.56597C6.96697 5.59998 6.51897 5.09698 6.52697 4.49698C6.52697 4.48898 6.52697 4.48898 6.52697 4.48098C6.52697 4.47298 6.52697 4.47298 6.52697 4.46498C6.51897 3.86598 6.96597 3.36198 7.56597 3.36198H13.248C13.919 3.36198 14.519 2.85898 14.559 2.18698C14.591 1.46798 14.024 0.875977 13.312 0.875977H9.15097C4.90797 2.62498 1.91797 6.79698 1.91797 11.671C1.91797 16.545 4.90797 20.716 9.15197 22.463H14.435C15.106 22.463 15.706 21.96 15.746 21.288C15.778 20.569 15.211 19.978 14.499 19.978L8.48897 19.977C7.77997 19.977 7.20897 19.384 7.24697 18.666C7.28197 17.994 7.88597 17.489 8.55897 17.489H10.889C11.559 17.47 12.1 16.921 12.1 16.246C12.1 15.559 11.541 14.999 10.853 14.999H7.32097C6.74597 14.999 6.27397 14.528 6.28197 13.952V13.864C6.24197 13.297 6.69797 12.817 7.26497 12.817H15.066C15.745 12.817 16.345 12.314 16.385 11.642C16.417 10.924 15.849 10.332 15.138 10.332Z" fill="#FDBC4B"/>
<path d="M13.5551 20.001C8.96112 20.001 5.22412 16.263 5.22412 11.67C5.22412 7.07703 8.96112 3.34003 13.5551 3.34003C18.1491 3.34003 21.8861 7.07803 21.8861 11.671C21.8861 16.264 18.1491 20.001 13.5551 20.001Z" fill="#FFDB70"/>
<path opacity="0.2" d="M21.886 11.671C21.886 7.23901 18.404 3.61401 14.033 3.36401H13.257C12.745 3.36401 12.288 3.74801 12.257 4.26001C12.233 4.80801 12.665 5.26001 13.208 5.26001L17.792 5.26101C18.333 5.26101 18.768 5.71301 18.739 6.26101C18.712 6.77401 18.252 7.15901 17.738 7.15901H15.961C15.45 7.17401 15.037 7.59201 15.037 8.10701C15.037 8.63101 15.464 9.05801 15.988 9.05801H18.682C19.121 9.05801 19.48 9.41801 19.474 9.85601V9.92201C19.504 10.355 19.157 10.72 18.724 10.72H12.775C12.257 10.72 11.8 11.104 11.769 11.616C11.745 12.164 12.177 12.616 12.72 12.616H18.36C18.799 12.616 19.158 12.976 19.158 13.414L19.152 13.469V13.481C19.158 13.944 18.78 14.322 18.317 14.322H14.407C13.889 14.322 13.432 14.706 13.401 15.224C13.377 15.766 13.809 16.224 14.352 16.224H18.493C18.95 16.224 19.291 16.608 19.285 17.065C19.285 17.071 19.285 17.071 19.285 17.077C19.285 17.083 19.285 17.083 19.285 17.089C19.291 17.546 18.95 17.93 18.493 17.93H14.16C13.648 17.93 13.191 18.314 13.16 18.826C13.136 19.375 13.568 19.826 14.111 19.826H15.254C19.037 19.038 21.886 15.681 21.886 11.671Z" fill="white"/>
<path d="M19.3712 9.82602H15.3192L14.0662 5.97202C13.9052 5.47702 13.2042 5.47702 13.0432 5.97202L11.7912 9.82602H7.73918C7.21818 9.82602 7.00118 10.493 7.42318 10.799L10.7012 13.181L9.44918 17.035C9.28818 17.53 9.85518 17.942 10.2772 17.636L13.5552 15.254L16.8332 17.636C17.2552 17.942 17.8222 17.53 17.6612 17.035L16.4092 13.181L19.6872 10.799C20.1082 10.493 19.8922 9.82602 19.3712 9.82602Z" fill="#EC9922"/>
</svg>
