<svg width="24" height="24" viewBox="0 0 24 24" fill="none" xmlns="http://www.w3.org/2000/svg">
<path d="M19.4297 0.351562H18.0234V23.6484H19.4297C21.75 23.6484 23.6484 21.75 23.6484 19.4297V4.57031C23.6484 2.25 21.75 0.351562 19.4297 0.351562Z" fill="#0968A7"/>
<path d="M22.2422 4.57031V19.4297C22.2422 21.75 20.3438 23.6484 18.0234 23.6484H4.57031C2.25 23.6484 0.351562 21.75 0.351562 19.4297V4.57031C0.351562 2.25 2.25 0.351562 4.57031 0.351562H18.0234C20.3438 0.351562 22.2422 2.25 22.2422 4.57031Z" fill="#0789DE"/>
<path d="M17.8269 7.39526L17.1256 8.09605L12.0898 4.57104C14.4125 4.59823 16.482 5.69745 17.8269 7.39526Z" fill="#C6E8FF"/>
<path d="M12 4.57013C12.03 4.57013 12.06 4.5706 12.09 4.57107C14.2181 4.6095 16.0791 6.00919 17.1258 8.09607L15.817 9.40482C14.9855 8.18513 13.5844 7.38263 12 7.38263C9.45422 7.38263 7.38281 9.45404 7.38281 11.9998H8.78906L5.97656 14.8123L3.16406 11.9998H4.57031C4.57031 7.90294 7.90312 4.57013 12 4.57013Z" fill="white"/>
<path d="M20.8358 12H19.4295C19.4295 16.0711 16.1389 19.3875 12.0776 19.4292L17.0858 13.4062L18.0233 9.1875L20.8358 12Z" fill="#DEF1FF"/>
<path d="M18.0233 9.1875V12C18.0233 16.065 15.3636 19.3777 12.0777 19.4292C12.0519 19.4297 12.0257 19.4297 11.9999 19.4297C9.64066 19.4297 7.53504 18.3244 6.17285 16.6045L8.18098 14.5927C9.01301 15.8137 10.4141 16.6172 11.9999 16.6172C14.5457 16.6172 16.6171 14.5458 16.6171 12H15.2108L18.0233 9.1875Z" fill="white"/>
<path fill-rule="evenodd" clip-rule="evenodd" d="M4.57031 0H19.4297C21.9498 0 24 2.05022 24 4.57031V19.4297C24 21.9498 21.9498 24 19.4297 24H4.57031C2.05022 24 0 21.9498 0 19.4297V4.57031C0 2.05022 2.05022 0 4.57031 0ZM19.4297 23.2969C21.5621 23.2969 23.2969 21.562 23.2969 19.4297V4.57031C23.2969 2.43797 21.5621 0.703125 19.4297 0.703125H4.57031C2.43792 0.703125 0.703125 2.43797 0.703125 4.57031V19.4297C0.703125 21.562 2.43792 23.2969 4.57031 23.2969H19.4297Z" fill="black"/>
<path fill-rule="evenodd" clip-rule="evenodd" d="M17.775 8.93887C17.9123 8.80162 18.1349 8.80162 18.2722 8.93887L21.0847 11.7514C21.1852 11.852 21.2153 12.0031 21.1609 12.1345C21.1065 12.2659 20.9783 12.3516 20.8361 12.3516H19.7736C19.589 16.4796 16.1729 19.7812 12.0002 19.7812C9.61085 19.7812 7.38663 18.703 5.89774 16.823C5.78702 16.6832 5.79851 16.4826 5.92451 16.3564L7.93254 14.3444C8.00656 14.2702 8.10996 14.2331 8.21412 14.2426C8.31841 14.2524 8.41296 14.3082 8.47193 14.3948C9.26984 15.5662 10.5888 16.2656 12.0002 16.2656C14.2339 16.2656 16.0722 14.5399 16.2514 12.3516H15.2111C15.0689 12.3516 14.9407 12.2659 14.8863 12.1345C14.8319 12.0031 14.862 11.852 14.9625 11.7514L17.775 8.93887ZM19.0783 12C19.0783 11.8058 19.2357 11.6484 19.4299 11.6484H19.9874L18.0236 9.68466L16.0598 11.6484H16.6174C16.8115 11.6484 16.9689 11.8058 16.9689 12C16.9689 14.7397 14.74 16.9688 12.0002 16.9688C10.4969 16.9688 9.08393 16.2881 8.14277 15.129L6.64788 16.6269C7.99756 18.1886 9.93096 19.0781 12.0002 19.0781C15.9031 19.0781 19.0783 15.9029 19.0783 12Z" fill="black"/>
<path d="M6.22515 15.0611L9.03765 12.2486C9.13819 12.148 9.16829 11.9969 9.11387 11.8655C9.05944 11.7341 8.93124 11.6484 8.78907 11.6484H7.7491C7.9119 9.71217 9.40543 8.08219 11.3502 7.78378C11.5421 7.75434 11.6738 7.57491 11.6443 7.38295C11.6149 7.191 11.4354 7.05938 11.2435 7.08881C10.0832 7.26684 9.01801 7.85686 8.24405 8.7502C7.46199 9.65297 7.03126 10.8071 7.03126 12C7.03126 12.1942 7.18866 12.3516 7.38282 12.3516H7.94035L5.97657 14.3153L4.01279 12.3516H4.57032C4.76448 12.3516 4.92188 12.1942 4.92188 12C4.92188 8.09709 8.0971 4.92188 12 4.92188C14.0691 4.92188 16.0024 5.81133 17.3521 7.37283L15.8558 8.86927C15.0801 7.91663 13.9715 7.27552 12.7565 7.08905C12.5643 7.05909 12.3851 7.19123 12.3556 7.38319C12.3262 7.57514 12.4579 7.75458 12.6498 7.78402C13.8113 7.96228 14.8599 8.62528 15.5267 9.60305C15.5857 9.68953 15.6802 9.74522 15.7844 9.75502C15.8887 9.76481 15.9918 9.72759 16.0658 9.65353L18.0754 7.64381C18.2016 7.51767 18.2132 7.31686 18.1024 7.17698C16.6136 5.29702 14.3894 4.21875 12 4.21875C7.82724 4.21875 4.41113 7.52044 4.22658 11.6484H3.16407C3.02185 11.6484 2.89369 11.7341 2.83927 11.8655C2.78485 11.9969 2.81494 12.148 2.91549 12.2486L5.72799 15.0611C5.79662 15.1298 5.88662 15.1641 5.97657 15.1641C6.06652 15.1641 6.15652 15.1298 6.22515 15.0611Z" fill="black"/>
</svg>
