<svg width="36" height="42" viewBox="0 0 36 42" fill="none" xmlns="http://www.w3.org/2000/svg">
<path d="M9.21615 18.1492L0.0483398 35.4217L8.37353 34.6526L12.4029 41.979L21.5707 24.7065L9.21615 18.1492Z" fill="#E95454"/>
<path d="M10.2666 36.9495C10.5238 36.3969 10.2548 35.7368 9.71663 35.4506L9.18901 35.1698C8.66138 34.8692 8.46057 34.2011 8.74801 33.6604C9.03938 33.1104 9.72451 32.9004 10.2744 33.1918L11.7654 33.9833C12.2261 34.2274 12.8036 34.0502 13.0412 33.5869L13.0779 33.516C13.3509 33.0789 13.1895 32.5014 12.7354 32.2613L8.27551 29.8948C7.73213 29.6061 7.46569 28.9485 7.71901 28.3946C7.99857 27.8053 8.70469 27.573 9.27301 27.8749L13.41 30.0707C13.8707 30.3148 14.4482 30.1376 14.6923 29.6769L14.7159 29.6166L14.7225 29.6034C14.9863 29.1204 14.8013 28.5141 14.3143 28.2555L11.9938 27.0244C11.4504 26.7356 11.184 26.0781 11.4413 25.5176C11.7182 24.9349 12.4269 24.696 12.9953 24.9979L15.5586 26.3589C16.0376 26.6136 16.6099 26.4009 16.8579 25.9179C16.8619 25.9114 16.8619 25.9114 16.8645 25.9048C16.8684 25.8983 16.8684 25.8983 16.8711 25.8917C17.1323 25.4153 16.9879 24.822 16.5075 24.5687L13.7421 23.1013C13.2053 22.8165 12.9388 22.1589 13.1921 21.6051C13.4717 21.0158 14.1778 20.7834 14.7461 21.0853L21.5685 24.7065L12.4007 41.979L9.87413 37.3866C10.0369 37.2763 10.1786 37.1398 10.2666 36.9495Z" fill="#ED6362"/>
<path d="M26.3653 18.1492L35.5331 35.4217L27.2079 34.6526L23.1786 41.979L14.0107 24.7065L26.3653 18.1492Z" fill="#ED6362"/>
<path d="M25.3155 36.9495C25.0582 36.3969 25.3273 35.7368 25.8654 35.4506L26.393 35.1698C26.9206 34.8692 27.1215 34.2011 26.834 33.6604C26.5426 33.1104 25.8575 32.9004 25.3076 33.1918L23.8166 33.9833C23.3559 34.2274 22.7784 34.0502 22.5408 33.5869L22.5041 33.516C22.2311 33.0789 22.3925 32.5014 22.8466 32.2613L27.3078 29.8935C27.8512 29.6048 28.1176 28.9472 27.8643 28.3933C27.5848 27.804 26.8786 27.5717 26.3103 27.8736L22.1733 30.0694C21.7126 30.3135 21.1351 30.1363 20.891 29.6756L20.8674 29.6153L20.8608 29.6021C20.597 29.1191 20.7821 28.5128 21.269 28.2542L23.5895 27.0231C24.1329 26.7343 24.3993 26.0768 24.1421 25.5163C23.8651 24.9336 23.1564 24.6947 22.5881 24.9966L20.0221 26.3603C19.5431 26.6149 18.9708 26.4023 18.7228 25.9193C18.7188 25.9127 18.7188 25.9127 18.7162 25.9061C18.7123 25.8996 18.7123 25.8996 18.7096 25.893C18.4485 25.4166 18.5928 24.8233 19.0732 24.57L21.8386 23.1026C22.3755 22.8178 22.6419 22.1603 22.3886 21.6064C22.109 21.0171 21.4029 20.7848 20.8346 21.0866L14.0122 24.7078L23.18 41.9803L25.7066 37.3879C25.5451 37.2763 25.4034 37.1398 25.3155 36.9495Z" fill="#E95454"/>
<circle cx="17.7908" cy="15.3182" r="15.3182" fill="#FFCC5B"/>
<path d="M19.8688 13.5608H10.1616C9.40689 13.5608 8.78739 12.9412 8.78739 12.1866L8.79789 12.0921V12.0711C8.78739 11.2744 9.43708 10.6234 10.2351 10.6234H16.963C17.8541 10.6234 18.6416 9.96319 18.6941 9.07069C18.7361 8.1375 17.992 7.35 17.0575 7.35H9.93058C9.14439 7.35 8.55639 6.68981 8.56689 5.90231C8.56689 5.89181 8.56689 5.89181 8.56689 5.88131C8.56689 5.87081 8.56689 5.87081 8.56689 5.86031C8.55639 5.07412 9.14308 4.41262 9.93058 4.41262H17.3882C18.2689 4.41262 19.0564 3.75244 19.1089 2.87044C19.1509 1.92675 18.4067 1.14975 17.4722 1.14975H12.0109C6.44195 3.44531 2.51758 8.92106 2.51758 15.3182C2.51758 21.7153 6.44195 27.1897 12.0122 29.4827H18.9461C19.8268 29.4827 20.6143 28.8225 20.6668 27.9405C20.7088 26.9968 19.9646 26.2211 19.0301 26.2211L11.142 26.2198C10.2115 26.2198 9.46202 25.4415 9.51189 24.4991C9.55783 23.6171 10.3506 22.9543 11.2339 22.9543H14.292C15.1714 22.9294 15.8815 22.2088 15.8815 21.3229C15.8815 20.4212 15.1478 19.6862 14.2448 19.6862H9.60902C8.85433 19.6862 8.23483 19.068 8.24533 18.312V18.1965C8.19283 17.4523 8.79133 16.8223 9.53552 16.8223H19.7743C20.6655 16.8223 21.453 16.1621 21.5055 15.2801C21.5475 14.3377 20.802 13.5608 19.8688 13.5608Z" fill="#FDBC4B"/>
<path d="M17.7909 26.2513C11.7613 26.2513 6.85645 21.3452 6.85645 15.3169C6.85645 9.28856 11.7613 4.38374 17.7909 4.38374C23.8205 4.38374 28.7253 9.28987 28.7253 15.3182C28.7253 21.3465 23.8205 26.2513 17.7909 26.2513Z" fill="#FFDB70"/>
<path opacity="0.2" d="M28.7256 15.3182C28.7256 9.50119 24.1555 4.74338 18.4186 4.41525H17.4001C16.7281 4.41525 16.1282 4.91925 16.0876 5.59125C16.0561 6.3105 16.6231 6.90375 17.3357 6.90375L23.3522 6.90507C24.0623 6.90507 24.6332 7.49832 24.5952 8.21757C24.5597 8.89088 23.956 9.39619 23.2814 9.39619H20.9491C20.2784 9.41588 19.7363 9.9645 19.7363 10.6404C19.7363 11.3282 20.2967 11.8886 20.9845 11.8886H24.5204C25.0966 11.8886 25.5677 12.3611 25.5599 12.936V13.0226C25.5992 13.5909 25.1438 14.07 24.5755 14.07H16.7674C16.0876 14.07 15.4877 14.574 15.4471 15.246C15.4156 15.9653 15.9826 16.5585 16.6952 16.5585H24.0977C24.6739 16.5585 25.1451 17.031 25.1451 17.6059L25.1372 17.6781V17.6938C25.1451 18.3015 24.649 18.7976 24.0413 18.7976H18.9094C18.2296 18.7976 17.6297 19.3016 17.5891 19.9815C17.5576 20.6929 18.1246 21.294 18.8372 21.294H24.2723C24.8721 21.294 25.3197 21.798 25.3118 22.3978C25.3118 22.4057 25.3118 22.4057 25.3118 22.4136C25.3118 22.4214 25.3118 22.4214 25.3118 22.4293C25.3197 23.0291 24.8721 23.5331 24.2723 23.5331H18.5852C17.9132 23.5331 17.3134 24.0371 17.2727 24.7091C17.2412 25.4297 17.8082 26.0216 18.5209 26.0216H20.0211C24.9863 24.9874 28.7256 20.5813 28.7256 15.3182Z" fill="white"/>
<path d="M25.4246 12.8966H20.1064L18.4618 7.83825C18.2505 7.18856 17.3304 7.18856 17.1191 7.83825L15.4759 12.8966H10.1576C9.4738 12.8966 9.18899 13.7721 9.74287 14.1737L14.0452 17.3001L12.402 22.3584C12.1907 23.0081 12.9349 23.5489 13.4887 23.1472L17.7911 20.0209L22.0935 23.1472C22.6474 23.5489 23.3916 23.0081 23.1802 22.3584L21.537 17.3001L25.8394 14.1737C26.3919 13.7721 26.1084 12.8966 25.4246 12.8966Z" fill="#EC9922"/>
</svg>
