<svg width="128" height="128" viewBox="0 0 128 128" fill="none" xmlns="http://www.w3.org/2000/svg">
<path d="M103.625 1.875H96.125V126.125H103.625C116 126.125 126.125 116 126.125 103.625V24.375C126.125 12 116 1.875 103.625 1.875Z" fill="#FCF055"/>
<path d="M118.625 24.375V103.625C118.625 116 108.5 126.125 96.125 126.125H24.375C12 126.125 1.875 116 1.875 103.625V24.375C1.875 12 12 1.875 24.375 1.875H96.125C108.5 1.875 118.625 12 118.625 24.375Z" fill="#5DC2A7"/>
<path d="M40.2397 88.4498V37.0736C40.2397 34.0356 43.6047 32.2046 46.1548 33.8554L85.8448 59.5435C88.1789 61.054 88.1789 64.4696 85.8448 65.9801L46.1548 91.6682C43.6047 93.3187 40.2397 91.4878 40.2397 88.4498Z" fill="#61BEA5"/>
<path d="M85.8448 59.5432L46.1548 33.8551C43.6047 32.2046 40.2397 34.0353 40.2397 37.0733V39.1094V86.4137V88.4498C40.2397 91.4878 43.6047 93.3187 46.1548 91.668L85.8448 65.9799C88.1789 64.4693 88.1789 61.0538 85.8448 59.5432Z" fill="white"/>
<path d="M43.1855 35.4415C43.4764 35.2827 44.2446 34.9723 45.0813 35.5134L58.6079 44.2681C59.5244 44.8614 60.7473 44.5993 61.34 43.683C61.933 42.7668 61.6712 41.5436 60.7549 40.9509L47.228 32.1959C45.4406 31.0392 43.1679 30.9525 41.2969 31.9702C39.426 32.9878 38.2637 34.9434 38.2637 37.0733V88.4498C38.2637 90.5797 39.426 92.5352 41.2969 93.5529C42.165 94.0252 43.1197 94.2597 44.0723 94.2597C45.1724 94.2597 46.2702 93.947 47.228 93.3269L86.918 67.6387C88.579 66.5636 89.5706 64.7406 89.5706 62.7619C89.5706 60.783 88.579 58.9597 86.918 57.8846L69.2343 46.4394C68.3181 45.8466 67.0952 46.1082 66.5022 47.0245C65.9092 47.9407 66.171 49.1639 67.0873 49.7566L84.771 61.2018C85.31 61.5509 85.6193 62.1191 85.6193 62.7617C85.6193 63.4039 85.31 63.9724 84.771 64.3212L45.0813 90.0093C44.2446 90.5507 43.4764 90.2404 43.1853 90.0815C42.8936 89.9229 42.2153 89.4464 42.2153 88.4498V37.0735C42.2155 36.0767 42.8936 35.6001 43.1855 35.4415Z" fill="black"/>
<path fill-rule="evenodd" clip-rule="evenodd" d="M24.375 0H103.625C117.065 0 128 10.9345 128 24.375V103.625C128 117.065 117.065 128 103.625 128H24.375C10.9345 128 0 117.065 0 103.625V24.375C0 10.9345 10.9345 0 24.375 0ZM103.625 124.25C114.998 124.25 124.25 114.997 124.25 103.625V24.375C124.25 13.0025 114.998 3.75 103.625 3.75H24.375C13.0022 3.75 3.75 13.0025 3.75 24.375V103.625C3.75 114.997 13.0022 124.25 24.375 124.25H103.625Z" fill="black"/>
</svg>
