<svg width="32" height="31" viewBox="0 0 32 31" fill="none" xmlns="http://www.w3.org/2000/svg">
<path fill-rule="evenodd" clip-rule="evenodd" d="M0.625 6.54563H28.1418V1.89119C28.1418 1.21263 27.5855 0.65625 26.907 0.65625H1.85981C1.18131 0.65625 0.625 1.21256 0.625 1.89119L0.625 6.54563Z" fill="#FF7D95"/>
<path fill-rule="evenodd" clip-rule="evenodd" d="M1.85981 23.8382H21.9588C22.4584 21.7369 24.3469 20.1741 26.6022 20.1741C27.1408 20.1741 27.6581 20.2627 28.1418 20.4275V6.54562H0.625V22.6032C0.625 23.2819 1.18131 23.8382 1.85981 23.8382Z" fill="white"/>
<path fill-rule="evenodd" clip-rule="evenodd" d="M21.8296 24.9456C21.8296 27.582 23.9662 29.7188 26.6023 29.7188C29.2367 29.7188 31.3751 27.582 31.3751 24.9456C31.3751 22.8496 30.0216 21.0689 28.1419 20.4275C27.6583 20.2628 27.141 20.1741 26.6023 20.1741C24.3471 20.1741 22.4585 21.7368 21.9589 23.8382C21.8739 24.1943 21.8296 24.5646 21.8296 24.9456Z" fill="#A0E5A5"/>
<path fill-rule="evenodd" clip-rule="evenodd" d="M28.7668 20.0036V1.89119C28.7668 0.865625 27.9325 0.03125 26.907 0.03125H10.2856C9.9405 0.03125 9.66063 0.311063 9.66063 0.65625C9.66063 1.00144 9.9405 1.28125 10.2856 1.28125H26.9069C27.2375 1.28125 27.5168 1.56056 27.5168 1.89119V5.92069H1.25V1.89119C1.25 1.56056 1.52925 1.28125 1.85981 1.28125H4.67319C5.01831 1.28125 5.29819 1.00144 5.29819 0.65625C5.29819 0.311063 5.01831 0.03125 4.67319 0.03125H1.85981C0.834312 0.03125 0 0.865625 0 1.89119V22.6033C0 23.6289 0.834312 24.4632 1.85981 24.4632H21.2272C21.2131 24.6223 21.2046 24.7829 21.2046 24.9456C21.2046 27.9222 23.6259 30.3438 26.6022 30.3438C29.5786 30.3438 32 27.9221 32 24.9456C32 22.7394 30.6683 20.8393 28.7668 20.0036ZM1.85981 23.2133C1.52925 23.2133 1.25 22.9339 1.25 22.6033V7.17063H27.5168V19.6282C27.2193 19.5772 26.9141 19.5491 26.6022 19.5491C24.232 19.5491 22.2152 21.0851 21.4915 23.2132H1.85981V23.2133ZM22.4546 24.9456C22.4546 27.2329 24.3152 29.0938 26.6023 29.0938C28.8893 29.0938 30.75 27.2329 30.75 24.9456C30.75 22.6592 28.8894 20.7991 26.6023 20.7991C24.3153 20.7991 22.4546 22.6592 22.4546 24.9456Z" fill="black"/>
<path d="M7.82015 15.1996C7.86577 15.2098 7.9114 15.2146 7.95633 15.2146C8.24283 15.2146 8.50115 15.0164 8.56583 14.7251L9.78115 9.25558C9.85602 8.91864 9.64358 8.58476 9.30658 8.50989C8.96971 8.43501 8.63577 8.64745 8.5609 8.98445L7.34558 14.454C7.27071 14.791 7.48315 15.1248 7.82015 15.1996Z" fill="black"/>
<path d="M4.53378 14.5099C4.65746 14.659 4.83571 14.7362 5.0154 14.7362C5.15584 14.7362 5.29721 14.689 5.41384 14.5924C5.67959 14.3721 5.71653 13.9781 5.49628 13.7123L3.95765 11.8556L5.49628 9.99892C5.71646 9.73311 5.67959 9.33911 5.41384 9.11886C5.14803 8.89861 4.75403 8.93549 4.53378 9.2013L2.66471 11.4569C2.47309 11.6882 2.47309 12.0232 2.66471 12.2545L4.53378 14.5099Z" fill="black"/>
<path d="M11.7152 14.5926C11.8318 14.6891 11.973 14.7362 12.1134 14.7362C12.2932 14.7362 12.4716 14.659 12.5952 14.5097L14.4625 12.2542C14.6539 12.023 14.6539 11.6884 14.4625 11.4571L12.5952 9.20162C12.3752 8.93574 11.9812 8.89862 11.7152 9.11874C11.4494 9.33887 11.4122 9.73287 11.6324 9.99874L13.1697 11.8557L11.6324 13.7126C11.4123 13.9784 11.4494 14.3724 11.7152 14.5926Z" fill="black"/>
<path d="M16.6616 10.9197H17.7654C18.1105 10.9197 18.3904 10.6399 18.3904 10.2947C18.3904 9.94955 18.1105 9.66974 17.7654 9.66974H16.6616C16.3165 9.66974 16.0366 9.94955 16.0366 10.2947C16.0366 10.6399 16.3164 10.9197 16.6616 10.9197Z" fill="black"/>
<path d="M20.4302 10.9197H25.6211C25.9662 10.9197 26.2461 10.6399 26.2461 10.2947C26.2461 9.94955 25.9662 9.66974 25.6211 9.66974H20.4302C20.0851 9.66974 19.8052 9.94955 19.8052 10.2947C19.8052 10.6399 20.085 10.9197 20.4302 10.9197Z" fill="black"/>
<path d="M16.6616 14.3322H21.8507C22.1958 14.3322 22.4757 14.0524 22.4757 13.7072C22.4757 13.362 22.1958 13.0822 21.8507 13.0822H16.6616C16.3165 13.0822 16.0366 13.362 16.0366 13.7072C16.0366 14.0524 16.3164 14.3322 16.6616 14.3322Z" fill="black"/>
<path d="M25.6206 13.0822H24.5151C24.17 13.0822 23.8901 13.362 23.8901 13.7072C23.8901 14.0524 24.17 14.3322 24.5151 14.3322H25.6206C25.9658 14.3322 26.2456 14.0524 26.2456 13.7072C26.2456 13.362 25.9658 13.0822 25.6206 13.0822Z" fill="black"/>
<path d="M3.146 17.7446H16.1266C16.4717 17.7446 16.7516 17.4648 16.7516 17.1196C16.7516 16.7744 16.4717 16.4946 16.1266 16.4946H3.146C2.80087 16.4946 2.521 16.7744 2.521 17.1196C2.521 17.4648 2.80081 17.7446 3.146 17.7446Z" fill="black"/>
<path d="M26.2457 17.1196C26.2457 16.7744 25.9658 16.4946 25.6207 16.4946H20.6655C20.3204 16.4946 20.0405 16.7744 20.0405 17.1196C20.0405 17.4648 20.3204 17.7446 20.6655 17.7446H25.6207C25.9658 17.7446 26.2457 17.4648 26.2457 17.1196Z" fill="black"/>
<path d="M19.9959 19.9071H12.6401C12.295 19.9071 12.0151 20.1869 12.0151 20.5321C12.0151 20.8773 12.295 21.1571 12.6401 21.1571H19.9959C20.341 21.1571 20.6209 20.8773 20.6209 20.5321C20.6209 20.1869 20.3411 19.9071 19.9959 19.9071Z" fill="black"/>
<path d="M8.10125 19.9071H3.146C2.80087 19.9071 2.521 20.1869 2.521 20.5321C2.521 20.8773 2.80087 21.1571 3.146 21.1571H8.10125C8.44637 21.1571 8.72625 20.8773 8.72625 20.5321C8.72625 20.1869 8.44643 19.9071 8.10125 19.9071Z" fill="black"/>
<path d="M22.3764 3.60095C22.3764 3.25576 22.0965 2.97595 21.7514 2.97595H21.7496C21.4045 2.97595 21.1255 3.25576 21.1255 3.60095C21.1255 3.94614 21.4062 4.22595 21.7514 4.22595C22.0966 4.22595 22.3764 3.94614 22.3764 3.60095Z" fill="black"/>
<path d="M25.3954 3.60095C25.3954 3.25576 25.1155 2.97595 24.7704 2.97595H24.7668C24.4217 2.97595 24.1436 3.25576 24.1436 3.60095C24.1436 3.94614 24.4252 4.22595 24.7703 4.22595C25.1154 4.22595 25.3954 3.94614 25.3954 3.60095Z" fill="black"/>
<path d="M19.3597 3.60095C19.3597 3.25576 19.0798 2.97595 18.7347 2.97595H18.7312C18.386 2.97595 18.1079 3.25576 18.1079 3.60095C18.1079 3.94614 18.3895 4.22595 18.7347 4.22595C19.0798 4.22595 19.3597 3.94614 19.3597 3.60095Z" fill="black"/>
<path d="M3.37158 3.60095C3.37158 3.94614 3.65146 4.22595 3.99658 4.22595H12.3993C12.7445 4.22595 13.0243 3.94614 13.0243 3.60095C13.0243 3.25576 12.7445 2.97595 12.3993 2.97595H3.99658C3.65146 2.97595 3.37158 3.25576 3.37158 3.60095Z" fill="black"/>
<path d="M28.8458 23.0294C28.5812 22.8079 28.187 22.8427 27.9654 23.1074L25.9614 25.5009L25.162 24.8232C24.8986 24.6 24.5043 24.6326 24.2811 24.8958C24.0579 25.1591 24.0904 25.5535 24.3536 25.7767L25.6328 26.861C25.7461 26.9571 25.8894 27.0092 26.0369 27.0092C26.0546 27.0092 26.0724 27.0085 26.0902 27.007C26.256 26.9928 26.4093 26.9131 26.5161 26.7855L28.9238 23.9099C29.1454 23.6452 29.1105 23.2511 28.8458 23.0294Z" fill="black"/>
<path d="M7.47955 1.28125H7.4813C7.82643 1.28125 8.10543 1.00144 8.10543 0.65625C8.10543 0.311063 7.82468 0.03125 7.47949 0.03125C7.1343 0.03125 6.85449 0.311063 6.85449 0.65625C6.85449 1.00144 7.13437 1.28125 7.47955 1.28125Z" fill="black"/>
</svg>
