<svg width="48" height="48" viewBox="0 0 48 48" fill="none" xmlns="http://www.w3.org/2000/svg">
<path d="M7.5 36.75V11.25C7.5 6.07228 11.6973 1.875 16.875 1.875H11.25C6.07228 1.875 1.875 6.07228 1.875 11.25V36.75C1.875 41.9276 6.07228 46.125 11.25 46.125L16.1304 46.0956C11.3009 45.7161 7.5 41.677 7.5 36.75Z" fill="#5DC2A7" fill-opacity="0.2"/>
<path d="M28.875 36.0001C28.394 36.0001 27.9132 35.8162 27.5469 35.4486C26.8159 34.7151 26.818 33.528 27.5514 32.797L30.9535 29.4064C31.3058 29.0553 31.5 28.5883 31.5 28.0921C31.5 27.5981 31.3077 27.1334 30.9585 26.7826L27.5646 23.4661C26.824 22.7423 26.8102 21.5552 27.534 20.8146C28.2577 20.0739 29.4449 20.0602 30.1854 20.784L33.5875 24.1084C33.592 24.1128 33.5965 24.1173 33.601 24.1218C34.6644 25.182 35.25 26.5921 35.25 28.0922C35.25 29.5923 34.6644 31.0023 33.6009 32.0625L30.1986 35.4532C29.8326 35.8178 29.3536 36.0001 28.875 36.0001Z" fill="#FCF055"/>
<path fill-rule="evenodd" clip-rule="evenodd" d="M11.25 48H36.75C42.9533 48 48 42.9533 48 36.75V11.25C48 5.04675 42.9533 0 36.75 0H11.25C5.04675 0 0 5.04675 0 11.25V36.75C0 42.9533 5.04675 48 11.25 48ZM3.75 11.25C3.75 7.1145 7.1145 3.75 11.25 3.75H36.75C40.8855 3.75 44.25 7.1145 44.25 11.25V36.75C44.25 40.8855 40.8855 44.25 36.75 44.25H11.25C7.1145 44.25 3.75 40.8855 3.75 36.75V11.25ZM40.5 12.0938C40.5 11.0582 39.6606 10.2188 38.625 10.2188H9.375C8.33944 10.2188 7.5 11.0582 7.5 12.0938C7.5 13.1293 8.33944 13.9688 9.375 13.9688H38.625C39.6606 13.9688 40.5 13.1293 40.5 12.0938ZM21.1986 32.7969C21.932 33.5279 21.934 34.7151 21.2031 35.4486C20.8368 35.8161 20.3559 36 19.875 36C19.3962 36 18.9173 35.8178 18.5514 35.4531L15.1493 32.0625C14.0857 31.0021 13.5001 29.5921 13.5 28.092C13.5 26.5919 14.0857 25.1818 15.149 24.1218L15.1625 24.1085L18.5646 20.784C19.305 20.0605 20.4921 20.0738 21.216 20.8147C21.9398 21.5552 21.926 22.7423 21.1853 23.4661L17.7915 26.7826C17.4423 27.1334 17.25 27.5981 17.25 28.0921C17.25 28.5882 17.4442 29.0552 17.7967 29.4066L21.1986 32.7969Z" fill="#5DC2A7"/>
</svg>
