<svg width="30" height="15" viewBox="0 0 30 15" fill="none" xmlns="http://www.w3.org/2000/svg">
<path d="M29.1102 11.733C29.1102 13.507 27.6642 14.955 25.8862 14.955H4.13216C2.35616 14.955 0.910156 13.512 0.910156 11.733C0.910156 9.95403 2.35316 8.50903 4.13216 8.50903H25.8882C27.6652 8.51003 29.1102 9.95503 29.1102 11.733Z" fill="#5DC2A7"/>
<path fill-rule="evenodd" clip-rule="evenodd" d="M3.28878 7.49001C3.39878 7.49001 3.50778 7.44101 3.58078 7.35601L6.45278 4.03201C6.52978 3.96101 6.57678 3.86001 6.57678 3.74701C6.57678 3.53301 6.40378 3.36001 6.18978 3.36001C6.18878 3.36001 6.18678 3.36001 6.18478 3.36001H4.39778V0.545006C4.39778 0.329006 4.22378 0.156006 4.00878 0.156006H2.56178C2.34878 0.156006 2.17378 0.329006 2.17378 0.545006V3.36001H0.387777C0.234777 3.36001 0.0967768 3.44701 0.0337768 3.58701C-0.0282232 3.72501 -0.00522318 3.88701 0.0957768 4.00201L2.99178 7.35601C3.06678 7.44101 3.17578 7.49001 3.28878 7.49001Z" fill="#EB9138"/>
</svg>
