<svg width="16" height="16" viewBox="0 0 16 16" fill="none" xmlns="http://www.w3.org/2000/svg">
<path fill-rule="evenodd" clip-rule="evenodd" d="M8.70276 0L15.9945 7.99573L8.70276 15.9916V11.2024C5.92859 11.2294 3.27136 12.4158 1.39941 14.4667L0 16V12.6454C0 10.547 0.817139 8.57422 2.3009 7.09045C3.78467 5.60669 5.75745 4.78955 7.85571 4.78955H8.70276V0ZM0.937622 12.6454V13.5896C2.99365 11.4723 5.8396 10.2644 8.79907 10.2644H9.64026V13.572L14.7257 7.99573L9.64026 2.41956V5.72717H7.85571C6.00781 5.72717 4.27051 6.44678 2.96387 7.75342C1.65723 9.06006 0.937622 10.7975 0.937622 12.6454Z" fill="white"/>
</svg>
