<svg width="15" height="16" viewBox="0 0 15 16" fill="none" xmlns="http://www.w3.org/2000/svg">
<path d="M10.6889 3.0236L7.83255 0.167264C7.60948 -0.0557649 7.24784 -0.0557649 7.02478 0.167264L4.16841 3.0236C3.94923 3.25054 3.95552 3.61219 4.18247 3.83136C4.40386 4.04519 4.75482 4.04519 4.97621 3.83136L6.85742 1.95016V5.14126H7.99994V1.95019L9.88115 3.8314C10.1081 4.05058 10.4697 4.04429 10.6889 3.81734C10.9027 3.59595 10.9027 3.24499 10.6889 3.0236Z" fill="#FCF055"/>
<path d="M13.1414 5.14129H7.99999V11.4253C7.99999 11.7408 7.74422 11.9966 7.42871 11.9966C7.11319 11.9966 6.85743 11.7408 6.85743 11.4253V5.14129H1.716C0.769494 5.14129 0.00219727 5.90859 0.00219727 6.8551V14.2816C0.00219727 15.2281 0.769494 15.9954 1.716 15.9954H13.1414C14.0879 15.9954 14.8552 15.2281 14.8552 14.2816V6.8551C14.8552 5.90859 14.0879 5.14129 13.1414 5.14129Z" fill="white"/>
</svg>
