<svg width="8" height="12" viewBox="0 0 8 12" fill="none" xmlns="http://www.w3.org/2000/svg">
<path d="M0.203078 5.53181L5.54327 0.191707C5.66679 0.0680976 5.83166 0 6.00747 0C6.18327 0 6.34815 0.0680976 6.47166 0.191707L6.86493 0.584878C7.12083 0.841073 7.12083 1.25746 6.86493 1.51327L2.38064 5.99756L6.86991 10.4868C6.99342 10.6104 7.06161 10.7752 7.06161 10.9509C7.06161 11.1268 6.99342 11.2916 6.86991 11.4153L6.47664 11.8084C6.35303 11.932 6.18825 12.0001 6.01244 12.0001C5.83664 12.0001 5.67176 11.932 5.54825 11.8084L0.203078 6.46341C0.0792732 6.33941 0.0112739 6.17385 0.0116639 5.99785C0.0112739 5.82117 0.0792732 5.65571 0.203078 5.53181Z" fill="black"/>
</svg>
