<svg width="48" height="48" viewBox="0 0 48 48" fill="none" xmlns="http://www.w3.org/2000/svg">
<path d="M11.0092 42.7562C11.0137 45.0211 12.851 46.8548 15.1159 46.8548H32.646C34.4686 46.8548 35.9463 45.3771 35.9463 43.5534C35.9463 42.6421 35.5779 41.816 34.9806 41.2188C34.3834 40.6215 33.5572 40.2521 32.646 40.2521H33.8309C35.6535 40.2521 37.1323 38.7755 37.1323 36.9507C37.1323 36.0383 36.7639 35.2144 36.1645 34.6161C35.5683 34.0188 34.7433 33.6504 33.8309 33.6504H35.0168C36.8171 33.6504 38.2809 32.2079 38.3161 30.415C38.3533 28.5626 36.7947 27.0476 34.9423 27.0476H33.8308C35.6534 27.0476 37.1322 25.5699 37.1322 23.7452C37.1322 22.8328 36.7639 22.0088 36.1644 21.4105C35.5683 20.8132 34.7432 20.4449 33.8308 20.4449H24.5459C24.5327 20.4241 24.5286 20.4178 24.5154 20.397L28.1361 12.6839C29.1634 10.4972 28.2224 7.89206 26.0357 6.86474C25.4352 6.58265 24.8029 6.44952 24.1801 6.44952C22.5363 6.44952 20.9617 7.37999 20.2165 8.96624L18.6686 12.2645C17.7541 14.2116 16.2892 15.8575 14.4347 16.9456C13.2104 17.6631 12.1905 18.7576 11.5677 20.1586C11.1429 21.1146 10.9523 22.1217 10.9704 23.1108L11.0092 42.7562Z" fill="#FFDDCE"/>
<path d="M27.3889 7.85383C27.2399 7.8379 27.0908 7.8304 26.9419 7.8304C25.2981 7.8304 23.7235 8.76086 22.9783 10.3471L21.4303 13.6453C20.5158 15.5925 19.0509 17.2384 17.1964 18.3265C15.9721 19.044 11.5678 20.1587 11.4049 28.5021C11.3921 29.1536 11.1568 29.7551 10.9843 30.3556L10.9704 23.1109C10.9523 22.1218 11.1429 21.1148 11.5677 20.1587C12.1905 18.7577 13.2104 17.6633 14.4347 16.9457C16.2892 15.8576 17.7542 14.2118 18.6686 12.2646L20.2166 8.96636C20.9618 7.38011 22.5364 6.44965 24.1802 6.44965C24.8029 6.44965 25.4354 6.58268 26.0358 6.86486C26.5627 7.1118 27.0173 7.45136 27.3889 7.85383Z" fill="#FFCBBE"/>
<path d="M35.9465 43.5535C35.9465 45.3772 34.4688 46.8549 32.6462 46.8549H14.6585C12.755 46.8549 10.9898 45.935 9.89746 44.4233H32.6462C34.0398 44.4233 35.2311 43.5599 35.7155 42.3378C35.7165 42.3388 35.7165 42.341 35.7186 42.342C35.7186 42.342 35.7176 42.343 35.7186 42.343C35.8656 42.7177 35.9465 43.1266 35.9465 43.5535Z" fill="#FFCBBE"/>
<path d="M36.8996 35.7349C37.0487 36.1114 37.1315 36.5213 37.1315 36.9505C37.1315 38.775 35.654 40.2526 33.8309 40.2526H32.5659C31.8945 40.2526 31.3501 39.7083 31.3501 39.0367C31.3501 38.3653 31.8944 37.8209 32.5659 37.8209H33.8309C35.2247 37.821 36.4156 36.9569 36.8996 35.7349Z" fill="#FFCBBE"/>
<path d="M38.0852 29.1323C38.2342 29.5088 38.317 29.9187 38.317 30.3479C38.317 32.1724 36.8395 33.65 35.0165 33.65H33.7515C33.0801 33.65 32.5356 33.1057 32.5356 32.4341C32.5356 31.7627 33.08 31.2183 33.7515 31.2183H35.0165C36.4102 31.2184 37.6012 30.3543 38.0852 29.1323Z" fill="#FFCBBE"/>
<path d="M36.901 22.5297C37.0501 22.9062 37.1329 23.3162 37.1329 23.7454C37.1329 25.5698 35.6554 27.0474 33.8324 27.0474H32.5674C31.896 27.0474 31.3516 26.5031 31.3516 25.8316C31.3516 25.1602 31.8959 24.6158 32.5674 24.6158H33.8324C35.2261 24.6158 36.4171 23.7517 36.901 22.5297V22.5297Z" fill="#FFCBBE"/>
<path d="M0.702637 23.1107V43.6978C0.702637 45.1256 1.86007 46.2831 3.28789 46.2831H8.38545C9.81326 46.2831 10.9707 45.1256 10.9707 43.6978V23.1107C10.9707 21.6829 9.81326 20.5255 8.38545 20.5255H3.28798C1.86017 20.5255 0.702637 21.6829 0.702637 23.1107Z" fill="#9DC6FB"/>
<path d="M0.702148 37.2133V43.6985C0.702148 45.1262 1.86043 46.2832 3.28815 46.2832H8.38562C9.81343 46.2832 10.9703 45.1263 10.9703 43.6985V37.2133C10.9703 38.6411 9.81343 39.7994 8.38562 39.7994H3.28824C1.86043 39.7994 0.702148 38.6411 0.702148 37.2133Z" fill="#80B4FB"/>
<circle cx="5.97481" cy="26.4328" r="2.33663" fill="#26457D"/>
<path d="M41.5903 17.4482L41.5889 17.2129C41.5841 16.3829 42.2227 15.6909 43.0505 15.6293L45.5964 15.4399C46.5083 15.372 47.287 16.0907 47.2923 17.0051L47.2956 17.5898C47.3009 18.5043 46.5306 19.2319 45.618 19.1746L43.0701 19.0146C42.2417 18.9626 41.5951 18.2781 41.5903 17.4482Z" fill="#F9DA41"/>
<path d="M39.2106 11.3057L39.0917 11.1025C38.6726 10.3862 38.8798 9.46754 39.5657 9.00038L41.6759 7.56338C42.4317 7.04869 43.4654 7.28176 43.9272 8.07104L44.2225 8.57579C44.6843 9.36507 44.381 10.3804 43.562 10.7871L41.2755 11.9225C40.532 12.2916 39.6298 12.022 39.2106 11.3057Z" fill="#F9DA41"/>
<path d="M35.1075 6.13483L34.903 6.0183C34.1819 5.60749 33.9019 4.70843 34.2624 3.96077L35.3713 1.66118C35.7685 0.837488 36.7802 0.522488 37.5748 0.975113L38.0829 1.26452C38.8774 1.71714 39.1225 2.74802 38.6165 3.50974L37.204 5.63636C36.7447 6.32796 35.8286 6.54564 35.1075 6.13483Z" fill="#F9DA41"/>
<path fill-rule="evenodd" clip-rule="evenodd" d="M2.93506 26.4328C2.93506 24.7567 4.29865 23.3931 5.97471 23.3931C7.65087 23.3931 9.01446 24.7567 9.01446 26.4328C9.01446 28.109 7.65078 29.4726 5.97471 29.4726C4.29865 29.4726 2.93506 28.109 2.93506 26.4328ZM4.34131 26.4327C4.34131 27.3335 5.07406 28.0662 5.97471 28.0662C6.87546 28.0662 7.60821 27.3335 7.60821 26.4327C7.60821 25.532 6.87537 24.7992 5.97471 24.7992C5.07406 24.7992 4.34131 25.532 4.34131 26.4327Z" fill="black"/>
<path fill-rule="evenodd" clip-rule="evenodd" d="M14.6587 46.152H31.2402C31.6286 46.152 31.9433 46.4668 31.9433 46.8552C31.9433 47.2435 31.6285 47.5583 31.2402 47.5583H14.6587C13.1611 47.5583 11.7392 47.0592 10.5823 46.1424C9.99966 46.6666 9.22941 46.9863 8.38575 46.9863H3.28791C1.47497 46.9863 0 45.5113 0 43.6983V23.1108C0 21.2978 1.47497 19.8228 3.28791 19.8228H8.38584C9.24516 19.8228 10.0281 20.1546 10.6145 20.6962C10.7018 20.4177 10.8053 20.1432 10.9253 19.8732C11.5873 18.3826 12.6778 17.1603 14.0789 16.3386C15.404 15.5616 16.5518 14.448 17.3984 13.1184C17.607 12.7909 18.0414 12.6942 18.3692 12.9029C18.6967 13.1114 18.7932 13.5461 18.5846 13.8736C17.6187 15.3906 16.3067 16.6624 14.7903 17.5516C13.6445 18.2236 12.7522 19.2239 12.2103 20.4443C11.8374 21.283 11.6569 22.1759 11.6735 23.0984L11.6734 23.0995L11.6737 23.1108V43.6983C11.6737 44.1608 11.5773 44.6009 11.4042 45.0005C12.3225 45.7463 13.4601 46.152 14.6587 46.152ZM3.28791 45.58H8.38584C9.42338 45.58 10.2675 44.7358 10.2674 43.6982V23.1107C10.2674 22.0731 9.42328 21.229 8.38575 21.229H3.28791C2.25038 21.229 1.40625 22.0732 1.40625 23.1107V43.6982C1.40625 44.7358 2.25038 45.58 3.28791 45.58Z" fill="black"/>
<path d="M36.5553 26.6785C37.3424 25.9467 37.8353 24.9028 37.8353 23.7459C37.8353 22.6748 37.4184 21.6687 36.6623 20.9138C35.9077 20.158 34.9023 19.7418 33.8313 19.7418H25.5996L28.7723 12.9833C29.3491 11.7555 29.413 10.3767 28.9524 9.1008C28.492 7.82505 27.5623 6.80505 26.3348 6.22867C25.6537 5.90889 24.9286 5.7467 24.1797 5.7467C22.2193 5.7467 20.414 6.89299 19.5804 8.6673L18.6298 10.6923C18.4648 11.0439 18.616 11.4625 18.9675 11.6275C19.3189 11.7925 19.7377 11.6414 19.9027 11.2899L20.8533 9.26505C21.4561 7.98199 22.7618 7.15295 24.1797 7.15295C24.7204 7.15295 25.2444 7.27024 25.7371 7.50161C26.6245 7.91833 27.2967 8.65586 27.6297 9.57817C27.9627 10.5007 27.9165 11.4976 27.4994 12.3854L23.8788 20.0982C23.7785 20.3118 23.792 20.5615 23.9148 20.7629C23.9304 20.7885 23.9386 20.8009 23.9496 20.8175L23.9571 20.8288C24.0869 21.028 24.3085 21.148 24.5462 21.148H33.8312C34.5262 21.148 35.1782 21.4177 35.6678 21.9081C36.1587 22.3982 36.429 23.0508 36.429 23.7459C36.429 25.1788 35.2636 26.3446 33.8312 26.3446C33.4428 26.3446 33.128 26.6594 33.128 27.0477C33.128 27.436 33.4428 27.7509 33.8312 27.7509H34.9421C35.6613 27.7509 36.3648 28.048 36.8725 28.5658C37.3639 29.0674 37.627 29.719 37.6132 30.4012C37.5853 31.8052 36.4207 32.9473 35.0171 32.9473H33.8312C33.4428 32.9473 33.128 33.2621 33.128 33.6505C33.128 34.0388 33.4428 34.3536 33.8312 34.3536C34.5262 34.3536 35.1782 34.6232 35.6678 35.1137C36.1586 35.6037 36.429 36.256 36.429 36.9505C36.429 38.3834 35.2636 39.5492 33.8312 39.5492H32.6462C32.2578 39.5492 31.943 39.864 31.943 40.2523C31.943 40.6406 32.2578 40.9555 32.6462 40.9555C33.3404 40.9555 33.9929 41.2255 34.4833 41.716C34.733 41.9658 34.9261 42.2574 35.0574 42.583C35.0595 42.5887 35.0616 42.5943 35.0638 42.5999C35.1828 42.9028 35.243 43.2235 35.243 43.5533C35.243 44.5668 34.6481 45.4946 33.7274 45.917C33.3744 46.0789 33.2195 46.4963 33.3815 46.8492C33.4998 47.1072 33.7547 47.2594 34.0211 47.2594C34.1192 47.2594 34.2188 47.2388 34.3139 47.1952C35.7327 46.5443 36.6495 45.1148 36.6495 43.5533C36.6495 43.0547 36.5593 42.5683 36.3813 42.1074C36.3785 42.0994 36.3755 42.0915 36.3724 42.0836C36.1699 41.571 35.8689 41.1128 35.4779 40.7216C35.4497 40.6934 35.4212 40.6658 35.3923 40.6385C36.8268 40.0287 37.8354 38.6051 37.8354 36.9504C37.8354 35.8799 37.4185 34.8742 36.6624 34.1192C36.6335 34.0903 36.6042 34.0618 36.5747 34.0339C37.9812 33.4315 38.9873 32.0425 39.0194 30.4293C39.0408 29.3665 38.6352 28.3551 37.877 27.5815C37.4979 27.1948 37.0466 26.8892 36.5553 26.6785Z" fill="black"/>
<path fill-rule="evenodd" clip-rule="evenodd" d="M47.2612 15.3375C47.7241 15.7647 47.9918 16.3711 47.9954 17.0011L47.9988 17.5861C48.0025 18.2159 47.7419 18.8254 47.284 19.2579C46.8604 19.6581 46.2955 19.881 45.7155 19.881C45.6685 19.881 45.6213 19.8795 45.5741 19.8766L43.026 19.7166C41.8336 19.6417 40.8942 18.6472 40.8872 17.4524L40.8858 17.2171C40.8789 16.0223 41.8068 15.017 42.9983 14.9283L45.5443 14.7388C46.1721 14.6921 46.7983 14.9103 47.2612 15.3375ZM45.6621 18.4729C45.9064 18.4883 46.14 18.404 46.3183 18.2355C46.4966 18.0671 46.594 17.8392 46.5925 17.5939L46.5891 17.0091C46.5877 16.7638 46.4877 16.5371 46.3074 16.3707C46.1437 16.2196 45.9357 16.1384 45.7156 16.1384C45.6934 16.1384 45.6711 16.1393 45.6486 16.1409L43.1026 16.3304C42.6455 16.3644 42.2894 16.7502 42.2921 17.2087L42.2935 17.444C42.2961 17.9025 42.6566 18.2842 43.1142 18.3128L45.6621 18.4729Z" fill="black"/>
<path fill-rule="evenodd" clip-rule="evenodd" d="M45.0462 10.0261C44.8659 10.6297 44.4389 11.1365 43.8746 11.4168L41.5881 12.5522C41.2651 12.7126 40.9201 12.7889 40.5793 12.7889C39.7911 12.789 39.0251 12.3808 38.6038 11.6609L38.4849 11.4577C37.8815 10.4264 38.1824 9.09185 39.17 8.41929L41.2801 6.98229C41.8009 6.62772 42.4518 6.50369 43.0665 6.64235C43.681 6.78091 44.216 7.17222 44.5341 7.71597L44.8294 8.22072C45.1475 8.76438 45.2265 9.42241 45.0462 10.0261ZM39.8174 10.9505L39.8175 10.9506C40.049 11.3463 40.5522 11.4964 40.9627 11.2925L43.2493 10.1571C43.469 10.0481 43.6286 9.85854 43.6988 9.62351C43.769 9.38847 43.7394 9.14247 43.6156 8.93079L43.3203 8.42604C43.1964 8.21435 42.9964 8.06801 42.7571 8.0141C42.6921 7.99947 42.6265 7.99216 42.5617 7.99216C42.3883 7.99216 42.2192 8.0441 42.0716 8.1446L39.9615 9.5816C39.5826 9.83969 39.4671 10.3518 39.6986 10.7476L39.8174 10.9505Z" fill="black"/>
<path fill-rule="evenodd" clip-rule="evenodd" d="M34.7598 6.74567L34.5553 6.62923C33.5171 6.03786 33.1104 4.73155 33.6297 3.6552L34.7385 1.3557C35.0121 0.788328 35.5141 0.355484 36.1156 0.168171C36.717 -0.0191412 37.3759 0.05239 37.9233 0.364203L38.4314 0.653703C38.9788 0.965515 39.3762 1.49586 39.5219 2.1088C39.6676 2.72173 39.5512 3.37423 39.2026 3.89895L37.7901 6.02558C37.3541 6.68201 36.6264 7.04314 35.8837 7.04314C35.5004 7.04314 35.1132 6.94695 34.7598 6.74567ZM36.0049 1.96667L34.896 4.26617C34.6969 4.67914 34.853 5.18042 35.2513 5.40748L35.4557 5.52392C35.8543 5.7508 36.3649 5.62948 36.6185 5.24755L38.031 3.12092C38.1668 2.91655 38.2103 2.6727 38.1536 2.43402C38.0969 2.19533 37.9482 1.99705 37.7351 1.87564L37.227 1.58614C37.0926 1.50955 36.945 1.47064 36.7955 1.47064C36.708 1.47064 36.6198 1.48405 36.5333 1.51095C36.2991 1.58389 36.1115 1.7457 36.0049 1.96667Z" fill="black"/>
</svg>
