<svg width="22" height="22" viewBox="0 0 22 22" fill="none" xmlns="http://www.w3.org/2000/svg">
<path fill-rule="evenodd" clip-rule="evenodd" d="M1.95066 6.22327H19.3098C20.376 6.22327 21.2434 7.09097 21.2434 8.15752V15.8945C21.2434 16.9611 20.376 17.8288 19.3098 17.8288H1.95066C0.884489 17.8288 0.0170898 16.9611 0.0170898 15.8945V8.15752C0.0170898 7.09097 0.884489 6.22327 1.95066 6.22327ZM4.40934 13.0317C4.67287 13.0303 4.9544 13.0292 5.11918 13.0292C6.25165 13.0292 7.17302 12.1196 7.17302 11.0017C7.17302 9.88373 6.25165 8.9742 5.11918 8.9742H3.75532C3.58405 8.9742 3.41974 9.04237 3.29883 9.16376C3.17792 9.28514 3.11024 9.44968 3.1108 9.62101L3.1203 14.5188C3.1203 14.8748 3.40887 15.1635 3.76482 15.1635C4.12077 15.1635 4.40934 14.8748 4.40934 14.5188V13.0317ZM9.276 15.0185H9.27594L9.26733 15.0186H9.26488C9.09481 15.0186 8.93158 14.9513 8.81084 14.8314C8.68949 14.7109 8.621 14.5472 8.62036 14.3761L8.61073 9.6202C8.61043 9.449 8.67815 9.28467 8.79906 9.1635C8.91998 9.04233 9.08411 8.9742 9.25526 8.9742H10.6015C12.1351 8.9742 13.1655 10.1887 13.1655 11.9964C13.1655 13.716 12.1084 14.9826 10.6521 15.008C10.283 15.0145 9.38094 15.0181 9.276 15.0185ZM17.9013 11.9551C17.9013 11.599 17.6127 11.3103 17.2568 11.3103H16.0872V10.2139H17.4133C17.7693 10.2139 18.0579 9.92525 18.0579 9.56918C18.0579 9.2131 17.7693 8.92443 17.4133 8.92443H15.4427C15.0867 8.92443 14.7982 9.2131 14.7982 9.56918V14.4331C14.7982 14.7892 15.0867 15.0778 15.4427 15.0778C15.7986 15.0778 16.0872 14.7892 16.0872 14.4331V12.5998H17.2568C17.6127 12.5998 17.9013 12.3112 17.9013 11.9551Z" fill="black"/>
<path d="M10.5768 10.2599H9.87305C9.87404 10.8424 9.87758 13.1642 9.87939 13.7247C10.1488 13.723 10.4374 13.7206 10.6051 13.7177C11.4704 13.7027 11.8578 12.8411 11.8578 11.994C11.8577 11.5872 11.7654 10.2599 10.5768 10.2599V10.2599Z" fill="black"/>
<path d="M5.10651 10.2599H4.39014C4.39091 10.5471 4.39164 10.8527 4.39164 10.9987C4.39164 11.1693 4.39284 11.4652 4.39421 11.74C4.65835 11.7387 4.94051 11.7375 5.10656 11.7375C5.52052 11.7375 5.87026 11.3992 5.87026 10.9987C5.87026 10.5982 5.52048 10.2599 5.10651 10.2599V10.2599Z" fill="black"/>
<path d="M18.6193 4.94495C18.47 4.53517 18.238 4.15643 17.9309 3.83212L15.2545 1.00615C14.6489 0.366744 13.7967 0 12.9165 0H4.33831C3.27243 0 2.40527 0.868033 2.40527 1.93498V4.94495H18.6193Z" fill="black"/>
<path d="M2.40527 19.1071V20.057C2.40527 21.1284 3.27278 22 4.33908 22H16.8874C17.9537 22 18.8212 21.1284 18.8212 20.057V19.1071H2.40527Z" fill="black"/>
</svg>
