<svg width="32" height="26" viewBox="0 0 32 26" fill="none" xmlns="http://www.w3.org/2000/svg">
<path d="M23.5587 18.8545L31.2938 16.2019C30.0677 14.4327 27.7093 13.6926 25.6019 14.4157C23.6347 15.0907 22.3538 16.8835 22.4305 18.8545C22.3541 20.8254 23.6349 22.6181 25.6019 23.2933C27.7094 24.0159 30.0677 23.2756 31.2938 21.5064L23.5587 18.8545Z" fill="#EB9138"/>
<path d="M9.40332 7.38043H23.973V25.6613H9.40332V7.38043Z" fill="#FCF055"/>
<path d="M10.0757 7.30599C10.2901 3.51788 13.3036 0.559144 16.9508 0.555725C20.5973 0.56042 23.6097 3.5187 23.8244 7.30599H10.0757Z" fill="#5CD2A7"/>
<ellipse cx="19.5485" cy="12.1423" rx="2.08955" ry="2.08078" transform="rotate(-90 19.5485 12.1423)" fill="black"/>
<path fill-rule="evenodd" clip-rule="evenodd" d="M31.8153 16.1889L31.5292 15.7494C30.2262 13.7339 27.7085 12.8928 25.464 13.7231C25.0924 13.8609 24.7378 14.0413 24.4074 14.2606V7.58791C24.4078 7.30727 24.3925 7.02683 24.3613 6.74794C23.9295 2.90396 20.6932 -0.000878292 16.8434 3.39772e-06C12.9912 -0.00362696 9.7517 2.90234 9.32002 6.74872H0.412508C0.303176 6.74852 0.198251 6.79201 0.120868 6.86962C0.0434852 6.94723 0 7.05258 0 7.16244C0.000206617 7.27216 0.0437832 7.37731 0.121143 7.45475C0.198504 7.53219 0.303311 7.57558 0.412508 7.57537H9.2709V25.6628H24.4074V23.2291C24.737 23.4475 25.0904 23.627 25.4608 23.7643C26.0292 23.9718 26.6293 24.0779 27.2341 24.0777C28.9661 24.077 30.5801 23.1956 31.5229 21.7357L31.8068 21.2993L24.8027 18.7433L31.8153 16.1889ZM25.7494 14.5043C26.2263 14.3292 26.7302 14.2395 27.238 14.2395C28.5068 14.2387 29.7108 14.8024 30.5263 15.7791L24.4074 18.0099V15.2855C24.8033 14.946 25.2572 14.6814 25.747 14.5043H25.7494ZM23.5371 6.74872C23.106 3.36402 20.2393 0.828201 16.8434 0.827433C13.4472 0.827807 10.5801 3.36372 10.1489 6.74872H23.5371ZM23.5855 24.8386H10.0951V7.58869H23.5855V24.8386ZM24.4105 22.2058C24.8051 22.5458 25.2576 22.8113 25.7463 22.9894V22.9862C27.447 23.6161 29.3583 23.1061 30.524 21.7114L24.4105 19.4806V22.2058Z" fill="#1F1F1F"/>
</svg>
