<svg width="48" height="44" viewBox="0 0 48 44" fill="none" xmlns="http://www.w3.org/2000/svg">
<path d="M47.0437 17.5663L30.4573 0.97998V10.9631H24.8412C11.6498 10.9631 0.956055 21.6568 0.956055 34.8483V42.1451L9.67162 32.6068C14.5831 27.2317 21.5286 24.1697 28.8097 24.1697H30.4573V34.1529L47.0437 17.5663Z" fill="#FBB429"/>
<path fill-rule="evenodd" clip-rule="evenodd" d="M0.610313 43.0365C0.722719 43.0802 0.839906 43.1013 0.955969 43.1013C1.21941 43.1013 1.47731 42.9923 1.662 42.7901L10.3776 33.2518C15.0963 28.0876 21.8146 25.1258 28.8098 25.1258H29.5012V34.1528C29.5012 34.5396 29.7342 34.8882 30.0914 35.0362C30.4487 35.1844 30.86 35.1024 31.1334 34.829L47.7201 18.2425C47.8993 18.0631 48.0001 17.8199 48.0001 17.5663C48.0001 17.3127 47.8993 17.0695 47.7201 16.8902L31.1335 0.30378C30.8601 0.0303116 30.4488 -0.0514384 30.0915 0.0965929C29.7343 0.244624 29.5012 0.59328 29.5012 0.979999V10.0069H24.8414C18.206 10.0069 11.9678 12.5909 7.27584 17.2827C2.58394 21.9747 0 28.2129 0 34.8482V42.1451C0 42.5397 0.242344 42.8937 0.610313 43.0365ZM1.91231 34.8482C1.91231 22.2052 12.1982 11.9193 24.8413 11.9193H30.4573C30.9853 11.9193 31.4135 11.4912 31.4135 10.9632V3.28841L45.6914 17.5663L31.4134 31.8444V24.1696C31.4134 23.6415 30.9852 23.2135 30.4572 23.2135H28.8097C21.2787 23.2135 14.0458 26.4022 8.96578 31.9618L1.91231 39.6811V34.8482Z" fill="#4D4D4D"/>
<path d="M23.2036 15.4579C22.6932 15.4579 22.2696 15.0548 22.2488 14.5402C22.2276 14.0125 22.6381 13.5675 23.1657 13.5463C23.4247 13.5359 23.688 13.5306 23.9485 13.5306C24.4766 13.5306 24.9047 13.9586 24.9047 14.4867C24.9047 15.0148 24.4766 15.4429 23.9485 15.4429C23.7135 15.4429 23.4761 15.4477 23.2427 15.457C23.2297 15.4577 23.2166 15.4579 23.2036 15.4579Z" fill="#4D4D4D"/>
<path d="M13.1958 18.9562C12.9015 18.9562 12.6112 18.8209 12.4239 18.5654C12.1117 18.1395 12.2037 17.5412 12.6297 17.229C14.7231 15.6943 17.0613 14.6184 19.5795 14.0312C20.0942 13.9113 20.6079 14.231 20.7279 14.7452C20.8478 15.2595 20.5281 15.7736 20.0139 15.8935C17.7485 16.4218 15.6444 17.39 13.7604 18.7713C13.59 18.896 13.392 18.9562 13.1958 18.9562Z" fill="#4D4D4D"/>
</svg>
