<svg width="22" height="22" viewBox="0 0 22 22" fill="none" xmlns="http://www.w3.org/2000/svg">
<path fill-rule="evenodd" clip-rule="evenodd" d="M10.6497 5.51431L12.2825 3.33008H22V22H0V5.51431H10.6497ZM6.23949 10.1143H7.03523V8.82522H6.23949C5.13679 8.82522 4.23964 9.72237 4.23964 10.8251V12.1914L2.4924 13.8526L4.23964 15.5138V16.8801C4.23964 17.9828 5.13679 18.8799 6.23949 18.8799H7.03523V17.5908H6.23949C5.84757 17.5908 5.5287 17.272 5.5287 16.8801V14.9606L4.36322 13.8526L5.5287 12.7445V10.8251C5.5287 10.4332 5.84757 10.1143 6.23949 10.1143ZM9.39482 19.0309L8.22241 18.4951L12.5623 8.99899L13.7347 9.53485L9.39482 19.0309ZM17.7604 16.8801V15.5138L19.5076 13.8526L17.7604 12.1914V10.8251C17.7604 9.72237 16.8632 8.82522 15.7605 8.82522H14.9648V10.1143H15.7605C16.1524 10.1143 16.4713 10.4332 16.4713 10.8251V12.7445L17.6368 13.8526L16.4713 14.9606V16.8801C16.4713 17.272 16.1524 17.5908 15.7605 17.5908H14.9648V18.8799H15.7605C16.8632 18.8799 17.7604 17.9828 17.7604 16.8801Z" fill="black"/>
<path fill-rule="evenodd" clip-rule="evenodd" d="M11.6367 2.04102L10.0039 4.22525H0V0H22V2.04102H11.6367ZM8.67251 1.49673H7.38345V2.78579H8.67251V1.49673ZM4.73911 1.49673H6.02817V2.78579H4.73911V1.49673ZM3.38379 1.49673H2.09473V2.78579H3.38379V1.49673Z" fill="black"/>
</svg>
