<svg width="17" height="16" viewBox="0 0 17 16" fill="none" xmlns="http://www.w3.org/2000/svg">
<circle cx="11.6174" cy="5.51724" r="1.10345" fill="#FCF055"/>
<circle cx="14.9277" cy="5.51724" r="1.10345" fill="#FCF055"/>
<circle cx="8.30706" cy="5.51724" r="1.10345" fill="#FCF055"/>
<path d="M6.65659 9.37462C5.12942 7.84745 4.78459 6.32028 4.7068 5.70842C4.68506 5.53923 4.74328 5.36957 4.86431 5.24938L6.10018 4.01407C6.28197 3.83239 6.31423 3.54924 6.17797 3.33131L4.21024 0.275863C4.05949 0.0345524 3.74995 -0.052539 3.49549 0.0747597L0.336589 1.56248C0.130812 1.66381 0.00977733 1.88244 0.033141 2.11062C0.198658 3.68304 0.884175 7.54841 4.6828 11.3473C8.48142 15.1462 12.3462 15.8314 13.9195 15.997C14.1477 16.0203 14.3663 15.8993 14.4676 15.6935L15.9553 12.5346C16.0822 12.2807 15.9957 11.972 15.7553 11.821L12.6999 9.85379C12.4821 9.71739 12.199 9.74942 12.0171 9.93104L10.7818 11.1669C10.6616 11.2879 10.492 11.3462 10.3228 11.3244C9.71093 11.2466 8.18376 10.9018 6.65659 9.37462Z" fill="white"/>
</svg>
