<svg width="8" height="12" viewBox="0 0 8 12" fill="none" xmlns="http://www.w3.org/2000/svg">
<path d="M6.87026 5.53181L1.53006 0.191707C1.40655 0.0680976 1.24167 0 1.06587 0C0.89006 0 0.725182 0.0680976 0.60167 0.191707L0.208402 0.584878C-0.0475008 0.841073 -0.0475008 1.25746 0.208402 1.51327L4.69269 5.99756L0.203426 10.4868C0.0799139 10.6104 0.0117188 10.7752 0.0117188 10.9509C0.0117188 11.1268 0.0799139 11.2916 0.203426 11.4153L0.596694 11.8084C0.720304 11.932 0.885085 12.0001 1.06089 12.0001C1.23669 12.0001 1.40157 11.932 1.52508 11.8084L6.87026 6.46341C6.99406 6.33941 7.06206 6.17385 7.06167 5.99785C7.06206 5.82117 6.99406 5.65571 6.87026 5.53181Z" fill="black"/>
</svg>
