<svg width="56" height="18" viewBox="0 0 56 18" fill="none" xmlns="http://www.w3.org/2000/svg">
<g filter="url(#filter0_d)">
<path fill-rule="evenodd" clip-rule="evenodd" d="M52.6538 7.08664L45.9104 0.375738C45.4054 -0.126908 44.5884 -0.125037 44.0856 0.380125C43.5829 0.885221 43.5848 1.70219 44.0899 2.2049L48.6166 6.70967H1.29032C0.577677 6.70967 0 7.28735 0 8C0 8.71264 0.577677 9.29032 1.29032 9.29032H48.6166L44.09 13.7951C43.5849 14.2978 43.583 15.1148 44.0857 15.6199C44.5885 16.1251 45.4055 16.1268 45.9105 15.6243L52.6527 8.91458C53.1592 8.40896 53.1576 7.58935 52.6538 7.08664Z" fill="white"/>
</g>
<defs>
<filter id="filter0_d" x="0" y="0" width="55.0321" height="18" filterUnits="userSpaceOnUse" color-interpolation-filters="sRGB">
<feFlood flood-opacity="0" result="BackgroundImageFix"/>
<feColorMatrix in="SourceAlpha" type="matrix" values="0 0 0 0 0 0 0 0 0 0 0 0 0 0 0 0 0 0 127 0"/>
<feOffset dx="1" dy="1"/>
<feGaussianBlur stdDeviation="0.5"/>
<feColorMatrix type="matrix" values="0 0 0 0 0.620301 0 0 0 0 0.620301 0 0 0 0 0.620301 0 0 0 0.5 0"/>
<feBlend mode="normal" in2="BackgroundImageFix" result="effect1_dropShadow"/>
<feBlend mode="normal" in="SourceGraphic" in2="effect1_dropShadow" result="shape"/>
</filter>
</defs>
</svg>
