<svg width="24" height="24" viewBox="0 0 24 24" fill="none" xmlns="http://www.w3.org/2000/svg">
<path d="M23.6484 1.28906V22.7109C23.6484 23.2289 23.2289 23.6484 22.7109 23.6484H1.28906C0.771094 23.6484 0.351562 23.2289 0.351562 22.7109V1.28906C0.351562 0.771094 0.771094 0.351562 1.28906 0.351562H22.7109C23.2289 0.351562 23.6484 0.771094 23.6484 1.28906Z" fill="#FCF055"/>
<path d="M23.6486 1.28906V22.7109C23.6486 23.2289 23.2291 23.6484 22.7111 23.6484H16.376C22.8663 19.3608 21.776 5.39016 21.1479 0.351562H22.7111C23.2291 0.351562 23.6486 0.771094 23.6486 1.28906V1.28906Z" fill="#D9CA09"/>
<path d="M4.81055 5.99582V10.0236C4.81055 10.5336 5.23842 10.9472 5.76609 10.9472C6.03009 10.9472 6.26897 10.844 6.44208 10.6767C6.44756 10.6714 6.45277 10.6661 6.45764 10.6608C6.62152 10.4952 6.72192 10.2707 6.72192 10.0236V8.22585L9.78455 11.1862C10.1579 11.5468 10.7629 11.5468 11.1362 11.1862C11.5093 10.8254 11.5093 10.2406 11.1362 9.87974L8.07333 6.91968L9.93337 6.9194C10.4614 6.91968 10.8892 6.50615 10.8892 5.99582C10.8892 5.48577 10.4614 5.07196 9.93337 5.07196H5.76605C5.73577 5.07196 5.70577 5.07337 5.67633 5.07613C5.1908 5.11968 4.81055 5.51507 4.81055 5.99582H4.81055Z" fill="white"/>
<path d="M19.1894 5.99582V10.0236C19.1894 10.5336 18.7616 10.9472 18.2339 10.9472C17.9699 10.9472 17.731 10.844 17.5579 10.6767C17.5524 10.6714 17.5472 10.6661 17.5424 10.6608C17.3785 10.4952 17.2781 10.2707 17.2781 10.0236V8.22585L14.2154 11.1862C13.8421 11.5468 13.2371 11.5468 12.8638 11.1862C12.4907 10.8254 12.4907 10.2406 12.8638 9.87974L15.9267 6.91968L14.0666 6.9194C13.5386 6.91968 13.1107 6.50615 13.1107 5.99582C13.1107 5.48577 13.5386 5.07196 14.0666 5.07196H18.2339C18.2642 5.07196 18.2942 5.07337 18.3237 5.07613C18.8092 5.11968 19.1894 5.51507 19.1894 5.99582V5.99582Z" fill="white"/>
<path d="M19.1894 18.0041V13.9764C19.1894 13.4663 18.7616 13.0528 18.2339 13.0528C17.9699 13.0528 17.731 13.156 17.5579 13.3233C17.5524 13.3286 17.5472 13.3339 17.5424 13.3392C17.3785 13.5048 17.2781 13.7293 17.2781 13.9764V15.7742L14.2154 12.8138C13.8421 12.4533 13.2371 12.4533 12.8638 12.8138C12.4907 13.1747 12.4907 13.7594 12.8638 14.1203L15.9267 17.0803L14.0666 17.0806C13.5386 17.0803 13.1107 17.4939 13.1107 18.0042C13.1107 18.5142 13.5386 18.9281 14.0666 18.9281H18.2339C18.2642 18.9281 18.2942 18.9266 18.3237 18.9239C18.8092 18.8803 19.1894 18.4849 19.1894 18.0041V18.0041Z" fill="white"/>
<path d="M4.81055 18.0041V13.9764C4.81055 13.4663 5.23842 13.0528 5.76609 13.0528C6.03009 13.0528 6.26897 13.156 6.44208 13.3233C6.44756 13.3286 6.45277 13.3339 6.45764 13.3392C6.62152 13.5048 6.72192 13.7293 6.72192 13.9764V15.7742L9.78455 12.8138C10.1579 12.4533 10.7629 12.4533 11.1362 12.8138C11.5093 13.1747 11.5093 13.7594 11.1362 14.1203L8.07333 17.0803L9.93337 17.0806C10.4614 17.0803 10.8892 17.4939 10.8892 18.0042C10.8892 18.5142 10.4614 18.9281 9.93337 18.9281H5.76605C5.73577 18.9281 5.70577 18.9266 5.67633 18.9239C5.1908 18.8803 4.81055 18.4849 4.81055 18.0041H4.81055Z" fill="white"/>
<path d="M22.711 24H7.65869C7.46454 24 7.30713 23.8426 7.30713 23.6484C7.30713 23.4542 7.46454 23.2968 7.65869 23.2968H22.711C23.0341 23.2968 23.2969 23.034 23.2969 22.7109V7.67889C23.2969 7.48469 23.4543 7.32733 23.6485 7.32733C23.8427 7.32733 24.0001 7.48469 24.0001 7.67889V22.7109C24.0001 23.4217 23.4218 24 22.711 24Z" fill="black"/>
<path d="M6.04036 24H1.28906C0.57825 24 0 23.4218 0 22.7109V1.28906C0 0.57825 0.57825 0 1.28906 0H15.4618C15.6559 0 15.8133 0.157359 15.8133 0.351562C15.8133 0.545766 15.6559 0.703125 15.4618 0.703125H1.28906C0.965953 0.703125 0.703125 0.965953 0.703125 1.28906V22.7109C0.703125 23.034 0.965953 23.2969 1.28906 23.2969H6.04036C6.23452 23.2969 6.39192 23.4542 6.39192 23.6484C6.39192 23.8426 6.23452 24 6.04036 24Z" fill="black"/>
<path d="M23.6485 6.41227C23.4543 6.41227 23.2969 6.25491 23.2969 6.0607V1.28906C23.2969 0.965953 23.0341 0.703125 22.711 0.703125H17.0801C16.8859 0.703125 16.7285 0.545766 16.7285 0.351562C16.7285 0.157359 16.8859 0 17.0801 0H22.711C23.4218 0 24 0.578297 24 1.28906V6.0607C24 6.25491 23.8426 6.41227 23.6485 6.41227Z" fill="black"/>
<path fill-rule="evenodd" clip-rule="evenodd" d="M9.54038 11.4388C9.79406 11.684 10.1273 11.8066 10.4605 11.8066C10.7937 11.8066 11.1269 11.684 11.3807 11.4388C11.6304 11.1975 11.7679 10.8758 11.7679 10.5328C11.7679 10.1899 11.6304 9.86819 11.3808 9.62693L8.94328 7.27108L9.93366 7.27104H9.93375C10.2806 7.27104 10.6074 7.13988 10.8538 6.90175C11.1034 6.66049 11.2409 6.33869 11.2409 5.9958C11.2409 5.29258 10.6545 4.72052 9.93361 4.72052H5.76628C5.04548 4.72052 4.45898 5.29258 4.45898 5.9958V10.0235C4.45898 10.3664 4.59647 10.6882 4.84613 10.9295C5.09255 11.1677 5.41936 11.2989 5.76619 11.2988H5.76642C6.11325 11.2988 6.44002 11.1677 6.68634 10.9295C6.936 10.6883 7.07353 10.3665 7.07353 10.0236V9.05458L9.54038 11.4388ZM6.96628 7.97304C6.89939 7.90844 6.81136 7.87427 6.72187 7.87427C6.67561 7.87427 6.62892 7.88346 6.58458 7.90221C6.45469 7.95729 6.37031 8.08474 6.37031 8.22583V10.0236C6.37031 10.1741 6.309 10.3163 6.19762 10.4239C6.08302 10.5347 5.92987 10.5957 5.76623 10.5957H5.76614C5.6025 10.5957 5.44931 10.5347 5.3347 10.4239C5.22333 10.3163 5.16202 10.1741 5.16202 10.0235V5.9958C5.16206 5.68033 5.43309 5.42365 5.76619 5.42365H9.93352C10.2667 5.42365 10.5377 5.68033 10.5377 5.9958C10.5377 6.14636 10.4763 6.28854 10.365 6.39616C10.2504 6.50693 10.0972 6.56791 9.93356 6.56791H9.93352L8.07352 6.56796C7.93022 6.56796 7.80131 6.65491 7.74759 6.78775C7.69388 6.92055 7.72617 7.07271 7.8292 7.17227L10.892 10.1324C11.0033 10.2401 11.0647 10.3823 11.0647 10.5328C11.0647 10.6834 11.0033 10.8256 10.892 10.9332C10.654 11.163 10.2669 11.1631 10.029 10.9332L6.96628 7.97304Z" fill="black"/>
<path fill-rule="evenodd" clip-rule="evenodd" d="M12.6191 11.4388C12.8728 11.684 13.206 11.8066 13.5392 11.8066C13.8725 11.8066 14.2057 11.684 14.4594 11.4388L16.9263 9.05458V10.0236C16.9263 10.3665 17.0638 10.6883 17.3134 10.9295C17.5598 11.1677 17.8865 11.2988 18.2333 11.2988H18.2337C18.5805 11.2988 18.9073 11.1677 19.1537 10.9295C19.4033 10.6882 19.5408 10.3664 19.5408 10.0235V5.9958C19.5408 5.29258 18.9543 4.72052 18.2335 4.72052H14.0662C13.3454 4.72052 12.7589 5.29258 12.7589 5.9958C12.7589 6.33869 12.8964 6.66049 13.146 6.90175C13.3924 7.13993 13.7192 7.27108 14.0662 7.27104L15.0566 7.27108L12.6191 9.62693C12.3694 9.86819 12.2319 10.1899 12.2319 10.5328C12.2319 10.8758 12.3694 11.1975 12.6191 11.4388ZM13.462 5.9958C13.462 5.68033 13.733 5.42365 14.0662 5.42365V5.4236H18.2336C18.5667 5.4236 18.8377 5.68029 18.8377 5.99575V10.0235C18.8377 10.1741 18.7764 10.3163 18.6651 10.4239C18.5504 10.5347 18.3973 10.5956 18.2336 10.5956H18.2334C18.0698 10.5956 17.9167 10.5347 17.8021 10.4238C17.6907 10.3163 17.6294 10.1741 17.6294 10.0235V8.22579C17.6294 8.08474 17.545 7.95729 17.4151 7.90216C17.2852 7.84704 17.135 7.87493 17.0335 7.97304L13.9708 10.9332C13.7328 11.1631 13.3457 11.1631 13.1078 10.9332C12.9964 10.8256 12.9351 10.6834 12.9351 10.5328C12.9351 10.3823 12.9964 10.2401 13.1078 10.1324L16.1705 7.17227C16.2735 7.07271 16.3058 6.92055 16.2521 6.78775C16.1984 6.65491 16.0695 6.56796 15.9262 6.56796L14.0662 6.56791C13.9025 6.56791 13.7493 6.50693 13.6347 6.39616C13.5233 6.28854 13.462 6.14636 13.462 5.9958Z" fill="black"/>
<path fill-rule="evenodd" clip-rule="evenodd" d="M14.0662 19.2795H18.2336C18.9544 19.2795 19.5409 18.7074 19.5407 18.0042V13.9764C19.5407 13.6335 19.4032 13.3118 19.1536 13.0705C18.9072 12.8323 18.5804 12.7011 18.2335 12.7012H18.2333C17.8865 12.7012 17.5597 12.8323 17.3134 13.0704C17.0637 13.3117 16.9262 13.6335 16.9262 13.9764V14.9454L14.4593 12.5612C13.952 12.0708 13.1264 12.0708 12.6191 12.5612C12.3694 12.8025 12.2319 13.1242 12.2319 13.4671C12.2319 13.81 12.3694 14.1318 12.6191 14.373L15.0566 16.7289L14.0662 16.7289H14.0661C13.7192 16.7289 13.3925 16.8601 13.1461 17.0982C12.8964 17.3395 12.7589 17.6613 12.7589 18.0042C12.7589 18.7074 13.3454 19.2795 14.0662 19.2795ZM13.6348 17.6038C13.7494 17.493 13.9026 17.4321 14.0662 17.4321L15.9263 17.432C16.0696 17.432 16.1985 17.345 16.2523 17.2122C16.306 17.0794 16.2737 16.9272 16.1707 16.8277L13.1079 13.8675C12.9965 13.7599 12.9352 13.6177 12.9352 13.4671C12.9352 13.3165 12.9966 13.1744 13.1079 13.0667C13.3458 12.8369 13.7329 12.8368 13.9709 13.0667L17.0336 16.0269C17.1351 16.125 17.2853 16.1528 17.4152 16.0978C17.5451 16.0427 17.6295 15.9152 17.6295 15.7741V13.9764C17.6295 13.8258 17.6908 13.6837 17.8022 13.576C17.9168 13.4653 18.0699 13.4043 18.2336 13.4043H18.2337C18.3973 13.4043 18.5505 13.4653 18.6651 13.576C18.7765 13.6837 18.8378 13.8259 18.8378 13.9764V18.0042C18.8377 18.3196 18.5667 18.5763 18.2336 18.5763H14.0663C13.7332 18.5763 13.4621 18.3196 13.4621 18.0042C13.4621 17.8536 13.5235 17.7114 13.6348 17.6038Z" fill="black"/>
<path fill-rule="evenodd" clip-rule="evenodd" d="M5.76628 19.2795H9.93361C10.6544 19.2795 11.2409 18.7074 11.2408 18.0042C11.2409 17.6613 11.1033 17.3395 10.8537 17.0982C10.6073 16.8601 10.2805 16.7289 9.93356 16.729L8.94314 16.7289L11.3806 14.3731C11.6303 14.1318 11.7678 13.8101 11.7678 13.4672C11.7678 13.1242 11.6303 12.8025 11.3806 12.5612C10.8733 12.0709 10.0478 12.0709 9.54038 12.5612L7.07353 14.9454V13.9764C7.07353 13.6335 6.93605 13.3117 6.68639 13.0705C6.43997 12.8323 6.1133 12.7012 5.76652 12.7012H5.76614C5.41927 12.7012 5.09255 12.8323 4.84613 13.0705C4.59647 13.3118 4.45898 13.6336 4.45898 13.9765V18.0042C4.45903 18.7074 5.04548 19.2795 5.76628 19.2795ZM5.3348 13.5761C5.44941 13.4653 5.60259 13.4043 5.76628 13.4043L5.76638 13.4044C5.92992 13.4044 6.08306 13.4653 6.19767 13.5762C6.30905 13.6837 6.37036 13.8259 6.37036 13.9765V15.7742C6.37036 15.9153 6.45473 16.0427 6.58463 16.0978C6.71456 16.153 6.8648 16.125 6.96628 16.027L10.029 13.0668C10.2669 12.8369 10.654 12.8369 10.892 13.0668C11.0033 13.1744 11.0647 13.3166 11.0647 13.4672C11.0647 13.6177 11.0033 13.76 10.892 13.8676L7.82925 16.8277C7.72622 16.9273 7.69392 17.0795 7.74764 17.2122C7.80131 17.3451 7.93027 17.432 8.07356 17.432L9.93361 17.4321C10.0972 17.4321 10.2505 17.4931 10.3651 17.6038C10.4765 17.7115 10.5378 17.8536 10.5378 18.0042C10.5378 18.3197 10.2668 18.5764 9.93361 18.5764H5.76628C5.43314 18.5764 5.16211 18.3197 5.16211 18.0042V13.9765C5.16211 13.8259 5.22342 13.6837 5.3348 13.5761Z" fill="black"/>
</svg>
