<svg width="12" height="17" viewBox="0 0 12 17" fill="none" xmlns="http://www.w3.org/2000/svg">
<path d="M0.792139 8.14526C0.792139 8.33302 0.854639 8.52218 0.968701 8.66335L6.17651 15.7218C6.36401 15.9759 6.67651 16.1453 7.04058 16.1453H10.1656C10.739 16.1453 11.2078 15.7218 11.2078 15.2037C11.2078 15.0159 11.1453 14.8268 11.0312 14.6856L6.20776 8.14526L11.0312 1.60494C11.1453 1.46377 11.2078 1.27602 11.2078 1.08686C11.2078 0.568768 10.739 0.145264 10.1656 0.145264H7.04058C6.67651 0.145264 6.36401 0.314665 6.17651 0.568768L0.968701 7.62718C0.854639 7.76834 0.792139 7.95751 0.792139 8.14526Z" fill="white"/>
</svg>
