<svg width="30" height="48" viewBox="0 0 30 48" fill="none" xmlns="http://www.w3.org/2000/svg">
<ellipse cx="14.9973" cy="36.3871" rx="11.465" ry="11.6129" fill="#FCF055"/>
<path d="M14.9997 45.6774C13.1125 45.6774 11.3003 45.1014 9.75789 44.0113L10.633 42.7409C11.9179 43.649 13.4274 44.1282 15.0004 44.1282C19.215 44.1282 22.6437 40.6552 22.6437 36.3863C22.6437 32.1174 19.215 28.6443 15.0004 28.6443C10.7859 28.6443 7.35712 32.1174 7.35712 36.3863C7.35712 37.8216 7.74846 39.2229 8.48757 40.4392L7.18591 41.2513C6.29852 39.7904 5.82922 38.1081 5.82922 36.3863C5.82922 31.2634 9.94362 27.0959 15.0012 27.0959C20.0588 27.0959 24.1732 31.2634 24.1732 36.3863C24.1732 41.5091 20.0572 45.6774 14.9997 45.6774Z" fill="black"/>
<path fill-rule="evenodd" clip-rule="evenodd" d="M9.98108 23.2258H19.3097L29.9553 0H20.6267L9.98108 23.2258ZM18.3337 21.6774H12.3757L21.6027 1.54834H27.5607L18.3337 21.6774Z" fill="black"/>
<path fill-rule="evenodd" clip-rule="evenodd" d="M0.0452881 0L9.49395 20.6137L14.1587 10.4369L9.37395 0H0.0452881ZM9.49336 16.9362L2.43935 1.54834H8.39731L12.472 10.4369L9.49336 16.9362Z" fill="black"/>
<path fill-rule="evenodd" clip-rule="evenodd" d="M17.3759 40.9433C17.4875 41.0029 17.6098 41.0323 17.7313 41.0323C17.8895 41.0323 18.0477 40.9828 18.183 40.8837C18.4176 40.7102 18.5354 40.4168 18.4864 40.1265L18.0324 37.4462L19.9555 35.5487C20.1641 35.3428 20.2383 35.0354 20.1489 34.7552C20.0579 34.4749 19.8194 34.2705 19.5313 34.2279L16.8745 33.837L15.6859 31.399C15.4291 30.8702 14.5723 30.8702 14.3155 31.399L13.1269 33.837L10.4709 34.2279C10.1827 34.2705 9.94351 34.4749 9.85332 34.7552C9.76389 35.0354 9.8388 35.3428 10.0467 35.5487L11.969 37.447L11.515 40.1273C11.4653 40.4176 11.583 40.711 11.8184 40.8844C12.0554 41.0579 12.368 41.0795 12.6233 40.9433L14.9996 39.6782L17.3759 40.9433ZM15.355 38.1183C15.2434 38.0587 15.1219 38.0292 14.9996 38.0292C14.8773 38.0292 14.7557 38.0587 14.6426 38.1183L13.2813 38.8429L13.5412 37.3077C13.584 37.0569 13.5015 36.7998 13.3219 36.6225L12.2212 35.5356L13.7422 35.3118C13.9914 35.2754 14.2062 35.1167 14.3178 34.8883L14.9988 33.4917L15.6798 34.8883C15.7914 35.1167 16.0062 35.2754 16.2554 35.3118L17.7764 35.5356L16.6757 36.6225C16.4961 36.8006 16.4136 37.0569 16.4564 37.3077L16.7162 38.8429L15.355 38.1183Z" fill="black"/>
<rect width="1.72656" height="1.53258" transform="matrix(-0.442639 0.8967 -0.892113 -0.451812 24.8535 3.44824)" fill="black"/>
<path d="M23.3245 6.54321L22.5602 8.09142L21.193 7.39898L21.9572 5.85077L23.3245 6.54321Z" fill="black"/>
<path d="M21.7959 9.63818L21.0317 11.1864L19.6644 10.494L20.4287 8.94574L21.7959 9.63818Z" fill="black"/>
<path d="M20.2692 12.7336L19.5049 14.2818L18.1377 13.5894L18.9019 12.0412L20.2692 12.7336Z" fill="black"/>
<path d="M18.7407 15.8301L17.9765 17.3783L16.6092 16.6858L17.3735 15.1376L18.7407 15.8301Z" fill="black"/>
<rect width="1.72656" height="1.53258" transform="matrix(-0.442639 0.8967 -0.892113 -0.451812 17.2115 18.9275)" fill="black"/>
<path d="M7.27515 4.29883L5.90791 4.99127L5.14367 3.44306L6.5109 2.75062L7.27515 4.29883Z" fill="black"/>
<rect width="1.53258" height="1.72656" transform="matrix(-0.892113 0.451812 -0.442639 -0.8967 8.80432 7.39575)" fill="black"/>
<path d="M10.3329 10.4929L8.96565 11.1854L8.20141 9.63715L9.56864 8.94471L10.3329 10.4929Z" fill="black"/>
</svg>
