<svg width="32" height="32" viewBox="0 0 32 32" fill="none" xmlns="http://www.w3.org/2000/svg">
<path d="M18.6149 31.375H27.5425C28.0299 28.7689 29.059 26.0702 29.059 26.0702H2.56592C2.56592 26.0702 3.59498 28.7689 4.08242 31.375H13.0417H18.6149Z" fill="#FF7D95"/>
<path d="M26.2401 26.0702H5.38477L5.56708 20.8474C5.69458 18.5125 7.2027 16.4509 9.43783 15.7646L12.5491 14.8411H13.3193C13.9108 15.5938 14.7766 15.9706 15.6425 15.9706C16.5084 15.9706 17.3743 15.5938 17.9653 14.8411H19.0226L22.0296 15.7646C24.2647 16.4509 25.8772 18.5124 26.0047 20.8474L26.2401 26.0702Z" fill="#FFC135"/>
<path d="M15.5863 21.9271H15.5207C14.7666 21.9271 14.1553 21.3158 14.1553 20.5617V19.6063C14.1553 18.8522 14.7666 18.2409 15.5207 18.2409H15.5863C16.3405 18.2409 16.9518 18.8522 16.9518 19.6063V20.5617C16.9518 21.3158 16.3405 21.9271 15.5863 21.9271Z" fill="#838EB1"/>
<path d="M16.3873 3.91081C16.3873 3.91081 15.2384 5.98369 13.3996 5.98369V4.4205C13.3996 4.4205 10.9447 4.62438 10.1798 6.3235C10.1798 6.3235 9.47284 0.625 15.5783 0.625C21.7185 0.625 21.1542 5.94969 21.1542 5.94969H20.2137C19.4072 5.94969 18.6545 5.56681 18.1592 4.93031C17.7625 4.42056 17.1702 3.91081 16.3873 3.91081Z" fill="#838EB1"/>
<path d="M20.2757 5.94995V7.67833C20.1297 10.1866 18.1322 12.1962 15.6425 12.1988C13.1862 12.1988 11.0728 10.193 11.012 7.67702H11.0088V5.46608H11.0159C11.019 5.4072 11.0235 5.34895 11.0293 5.29133C12.0399 4.53352 13.3999 4.42027 13.3999 4.42027V5.98383C15.2387 5.98383 16.3875 3.91083 16.3875 3.91083C17.1703 3.91083 17.7626 4.42058 18.1593 4.93039C18.6546 5.56702 19.4074 5.94995 20.214 5.94995H20.2757Z" fill="#FFDAD5"/>
<path d="M17.9653 14.8411C17.3743 15.5937 16.5085 15.9706 15.6426 15.9706C14.7767 15.9706 13.9108 15.5937 13.3193 14.8411L13.7857 11.8116C14.354 12.0607 14.9821 12.1987 15.6426 12.1987C16.3031 12.1987 16.9306 12.0607 17.4989 11.8116L17.9653 14.8411Z" fill="#FFDAD5"/>
<path fill-rule="evenodd" clip-rule="evenodd" d="M26.8375 25.4452H30.9953C31.3404 25.4452 31.6203 25.7251 31.6203 26.0702C31.6203 26.4153 31.3404 26.6952 30.9953 26.6952H29.4963C29.1983 27.5337 28.5193 29.5516 28.1567 31.4899C28.1014 31.7856 27.8432 32 27.5424 32H18.6148C18.2697 32 17.9898 31.7201 17.9898 31.375C17.9898 31.0299 18.2697 30.75 18.6148 30.75H27.0295C27.365 29.1576 27.8563 27.6131 28.1712 26.6952H3.45327C3.76821 27.6131 4.25958 29.1576 4.59502 30.75H13.0416C13.3867 30.75 13.6666 31.0299 13.6666 31.375C13.6666 31.7201 13.3867 32 13.0416 32H4.08227C3.78146 32 3.52327 31.7856 3.46796 31.4899C3.10539 29.5516 2.42639 27.5337 2.12833 26.6952H0.629395C0.28427 26.6952 0.00439453 26.4153 0.00439453 26.0702C0.00439453 25.7251 0.28427 25.4452 0.629395 25.4452H4.78102L4.94227 20.8256L4.94283 20.8133C5.08639 18.184 6.81896 15.9149 9.25414 15.1671L12.3711 14.2419C12.4288 14.2249 12.4888 14.2161 12.549 14.2161H12.783L13.1001 12.1559C11.5177 11.269 10.3836 9.51631 10.3836 7.677V6.91288C10.3187 6.93538 10.2503 6.94856 10.1799 6.94856C9.86921 6.94856 9.59764 6.70862 9.55939 6.40044C9.54564 6.28988 9.24239 3.67013 10.9 1.79419C11.952 0.603625 13.526 0 15.5781 0C17.7196 0 19.3541 0.61 20.4364 1.81306C22.0148 3.56763 21.7861 5.9165 21.7756 6.01562C21.742 6.33356 21.4738 6.57475 21.1541 6.57475H20.9004V7.67831C20.9004 9.48063 19.713 11.2673 18.1822 12.1437L18.5012 14.2162H19.0224C19.0846 14.2162 19.1465 14.2254 19.2059 14.2437L22.2129 15.1671C24.7115 15.9344 26.486 18.2034 26.6285 20.8133L26.8375 25.4452ZM15.5781 1.25C13.8998 1.25 12.6411 1.71156 11.8367 2.62188C11.2922 3.23806 11.0223 3.97681 10.8923 4.62619C11.6086 4.16519 12.4984 3.86806 13.3478 3.79744C13.7065 3.76863 14.0246 4.05956 14.0246 4.42031V5.24906C14.7777 4.9855 15.458 4.30087 15.8406 3.60781C15.9508 3.40912 16.16 3.28581 16.3873 3.28581C17.2273 3.28581 18.0106 3.72181 18.6524 4.5465C19.0372 5.04106 19.6063 5.32469 20.2136 5.32469H20.5333C20.4945 4.659 20.3014 3.52612 19.4992 2.64031C18.6637 1.71775 17.3445 1.25 15.5781 1.25ZM11.6336 7.66194C11.6332 7.64575 11.6336 5.63613 11.6336 5.63613C12.0153 5.40306 12.4348 5.2585 12.7745 5.17056V5.98369C12.7745 6.32319 13.06 6.60881 13.3996 6.60881C15.0764 6.60881 16.2313 5.25213 16.7007 4.5795C17.0353 4.67375 17.3588 4.91963 17.6657 5.31413C18.1545 5.94225 18.865 6.38494 19.6503 6.52513V7.58881C19.6503 8.64431 19.2116 9.60713 18.4216 10.4004C17.6885 11.1366 16.6841 11.5726 15.6423 11.5737C13.5085 11.5738 11.6851 9.7945 11.6336 7.66194ZM16.9951 12.6484C16.476 12.7864 15.9356 12.8419 15.3992 12.8176C15.0244 12.8 14.6518 12.7448 14.289 12.6483L13.981 14.6489C14.163 14.8364 14.3793 14.9904 14.6128 15.1068C15.4981 15.5481 16.6139 15.3577 17.3031 14.6491L16.9951 12.6484ZM15.5861 21.3021H15.5205C15.1123 21.3021 14.7801 20.97 14.7801 20.5617V19.6063C14.7801 19.1981 15.1122 18.8659 15.5205 18.8659H15.5861C15.9944 18.8659 16.3266 19.198 16.3266 19.6063V20.5617C16.3266 20.97 15.9944 21.3021 15.5861 21.3021ZM23.2666 23.2394V25.4452H25.5863L25.3801 20.8755C25.3249 19.8642 24.9565 18.893 24.315 18.0728C23.6736 17.2526 22.8198 16.6611 21.846 16.362L18.9286 15.4661H18.2518C17.9645 15.7733 17.6218 16.0294 17.2462 16.2183C15.8493 16.9206 14.0996 16.6058 13.0326 15.4661H12.6398L9.61546 16.3637C7.68652 16.9561 6.30883 18.7696 6.19133 20.8754L6.03183 25.4452H8.48646V23.2394C8.48646 22.8942 8.76633 22.6144 9.11146 22.6144C9.45658 22.6144 9.73646 22.8942 9.73646 23.2394V25.4452H14.9705V22.4742C14.1398 22.235 13.5301 21.4685 13.5301 20.5617V19.6064C13.5301 18.5088 14.423 17.6159 15.5205 17.6159H15.5861C16.6837 17.6159 17.5766 18.5088 17.5766 19.6064V20.5617C17.5766 21.4374 17.0079 22.1823 16.2206 22.4479V25.4452H22.0166V23.2394C22.0166 22.8942 22.2965 22.6144 22.6416 22.6144C22.9867 22.6144 23.2666 22.8942 23.2666 23.2394Z" fill="black"/>
<path d="M16.3891 31.1363C16.192 30.6551 15.4901 30.6305 15.2555 31.0916C15.0175 31.5593 15.4665 32.1156 15.974 31.9784C16.332 31.8816 16.5322 31.48 16.3891 31.1363Z" fill="black"/>
<path d="M16.181 9.53613C16.5261 9.53613 16.806 9.25625 16.806 8.91113C16.806 8.566 16.5261 8.28613 16.181 8.28613H16.0434L16.3303 7.52075C16.4514 7.19756 16.2876 6.83731 15.9644 6.71619C15.6412 6.595 15.2809 6.75881 15.1598 7.08206L14.5564 8.69181C14.4844 8.88369 14.5111 9.09875 14.6279 9.26719C14.7448 9.43563 14.9366 9.53619 15.1416 9.53619H16.181V9.53613Z" fill="black"/>
</svg>
