<svg width="16" height="11" viewBox="0 0 16 11" fill="none" xmlns="http://www.w3.org/2000/svg">
<path fill-rule="evenodd" clip-rule="evenodd" d="M7.99991 0.0258789C12.3496 0.0258789 15.7553 4.61803 15.8983 4.81357C16.0338 4.99888 16.0338 5.25066 15.8983 5.43613C15.7553 5.63147 12.3496 10.2237 7.99991 10.2237C3.65019 10.2237 0.244312 5.6315 0.101531 5.43597C-0.0338437 5.25047 -0.0338437 4.99888 0.101531 4.81338C0.244312 4.61803 3.65019 0.0258789 7.99991 0.0258789ZM1.19938 5.12441C2.02084 6.12082 4.79588 9.16872 7.99991 9.16872C11.2108 9.16872 13.98 6.12238 14.8004 5.12513C13.9786 4.12819 11.2038 1.08082 7.99991 1.08082C4.789 1.08082 2.01978 4.12713 1.19938 5.12441Z" fill="white"/>
<path fill-rule="evenodd" clip-rule="evenodd" d="M4.83508 5.1248C4.83508 3.37974 6.25486 1.95996 7.99993 1.95996C9.74499 1.95996 11.1648 3.37974 11.1648 5.1248C11.1648 6.86987 9.74499 8.28965 7.99993 8.28965C6.25486 8.28965 4.83508 6.86987 4.83508 5.1248ZM5.89005 5.1248C5.89005 6.28821 6.83649 7.23468 7.99993 7.23468C9.16336 7.23468 10.1098 6.28821 10.1098 5.1248C10.1098 3.9614 9.16333 3.01493 7.99993 3.01493C6.83652 3.01493 5.89005 3.9614 5.89005 5.1248Z" fill="white"/>
</svg>
