<svg width="48" height="35" viewBox="0 0 48 35" fill="none" xmlns="http://www.w3.org/2000/svg">
<path d="M46.0987 6.0611C45.5682 4.04435 44.0052 2.45594 42.0207 1.91688C38.4237 0.937378 27.6889 0.937378 24 0.937378C20.3111 0.937378 9.57628 0.937378 5.97928 1.91688C3.99478 2.45594 2.43178 4.04435 1.90134 6.0611C0.9375 9.7166 0.9375 17.3436 0.9375 17.3436C0.9375 17.3436 0.9375 24.9706 1.90134 28.6262C2.43178 30.6429 3.99478 32.2313 5.97928 32.7704C9.57628 33.7499 18.5625 33.7499 24 33.7499C29.4375 33.7499 38.4237 33.7499 42.0207 32.7704C44.0052 32.2313 45.5682 30.6429 46.0987 28.6262C47.0625 24.9706 47.0625 17.3436 47.0625 17.3436C47.0625 17.3436 47.0625 9.7166 46.0987 6.0611Z" fill="#FF5A5A"/>
<path d="M24.2345 1.87531C24.2336 1.87531 24.2328 1.87531 24.2319 1.87531L24.164 1.87512C23.6469 1.87372 23.2288 1.45409 23.229 0.937341C23.229 0.936591 23.229 0.935841 23.229 0.935091C23.2304 0.418153 23.6499 0.00012207 24.1665 0.00012207C24.1674 0.00012207 24.1682 0.00012207 24.1691 0.00012207L24.237 0.00030957C24.754 0.00171582 25.1722 0.421341 25.172 0.938091C25.172 0.938841 25.172 0.939591 25.172 0.940341C25.1706 1.45728 24.751 1.87531 24.2345 1.87531Z" fill="black"/>
<path d="M24 34.6874C23.406 34.6874 9.40866 34.6759 5.73291 33.6749C3.426 33.0483 1.61016 31.2051 0.994594 28.8646C0.0113437 25.135 0 17.6601 0 17.3437C0 17.0273 0.0113438 9.5523 0.994781 5.82217C1.61016 3.48227 3.426 1.63895 5.73347 1.01223C8.16169 0.351015 14.9933 0.114953 20.2966 0.033484C20.813 0.028984 21.2405 0.438765 21.2484 0.956453C21.2563 1.47414 20.8432 1.90033 20.3255 1.9082C12.9811 2.02117 7.97372 2.34545 6.22556 2.82152C4.56281 3.2732 3.25341 4.60586 2.80791 6.29964C1.88625 9.79539 1.875 17.2686 1.875 17.3437C1.875 17.4187 1.88625 24.8919 2.80781 28.3871C3.25341 30.0815 4.56281 31.4141 6.225 31.8656C9.66131 32.8014 23.857 32.8124 24 32.8124C24.143 32.8124 38.3387 32.8015 41.7744 31.8658C43.4372 31.4141 44.7466 30.0815 45.1921 28.3877C46.1138 24.8919 46.125 17.4187 46.125 17.3436C46.125 17.2686 46.1138 9.79539 45.1922 6.30011C44.7466 4.60577 43.4372 3.27311 41.775 2.82161C40.0643 2.35577 35.2008 2.03373 28.0795 1.91467C27.5618 1.90605 27.1492 1.4793 27.1578 0.961609C27.1664 0.443921 27.5962 0.0328277 28.1108 0.039859C33.2558 0.125828 39.8882 0.364421 42.2671 1.01233C44.574 1.63895 46.3898 3.48217 47.0054 5.82264C47.9887 9.5523 48 17.0273 48 17.3437C48 17.6601 47.9887 25.135 47.0052 28.8652C46.3898 31.2051 44.574 33.0484 42.2665 33.6751C38.5913 34.6759 24.594 34.6874 24 34.6874Z" fill="black"/>
<path d="M19.5078 10.7363L31.1328 17.4863L19.5078 24.2363V10.7363Z" fill="white"/>
<path d="M5.4375 24.377C4.91972 24.377 4.5 23.9572 4.5 23.4395V15.7988C4.5 15.281 4.91972 14.8613 5.4375 14.8613C5.95528 14.8613 6.375 15.281 6.375 15.7988V23.4395C6.375 23.9572 5.95528 24.377 5.4375 24.377Z" fill="black"/>
<path d="M5.4375 12.4818C4.91972 12.4818 4.5 12.062 4.5 11.5443V11.5332C4.5 11.0154 4.91972 10.5957 5.4375 10.5957C5.95528 10.5957 6.375 11.0154 6.375 11.5332V11.5443C6.375 12.062 5.95528 12.4818 5.4375 12.4818Z" fill="black"/>
<path fill-rule="evenodd" clip-rule="evenodd" d="M19.0401 25.0489C19.1848 25.1322 19.3463 25.1738 19.5078 25.1738C19.6705 25.1738 19.8331 25.1317 19.9786 25.0471L31.6036 18.2971C31.8927 18.1293 32.0704 17.8205 32.0704 17.4863C32.0704 17.1522 31.8926 16.8434 31.6036 16.6756L19.9786 9.92559C19.6886 9.75712 19.3307 9.75646 19.0401 9.92381C18.7495 10.0912 18.5703 10.401 18.5703 10.7363V24.2363C18.5703 24.5718 18.7495 24.8815 19.0401 25.0489ZM29.2658 17.4863L20.4453 22.6079V12.3648L29.2658 17.4863Z" fill="black"/>
</svg>
