<svg width="24" height="16" viewBox="0 0 24 16" fill="none" xmlns="http://www.w3.org/2000/svg">
<path fill-rule="evenodd" clip-rule="evenodd" d="M19.5724 0.133818C20.9673 0.212364 21.6524 0.418909 22.2836 1.54182C22.9411 2.66327 23.2727 4.59491 23.2727 7.99709V8.00145V8.00873C23.2727 11.3949 22.9411 13.3411 22.2851 14.4509C21.6538 15.5738 20.9687 15.7775 19.5738 15.872C18.1789 15.952 14.6749 16 11.6393 16C8.59782 16 5.09236 15.952 3.69891 15.8705C2.30691 15.776 1.62182 15.5724 0.984727 14.4495C0.334545 13.3396 0 11.3935 0 8.00727V8.00436V8V7.99564C0 4.59491 0.334545 2.66327 0.984727 1.54182C1.62182 0.417454 2.30836 0.212364 3.70036 0.132364C5.09236 0.0392727 8.59782 0 11.6393 0C14.6749 0 18.1789 0.0392727 19.5724 0.133818ZM16 8L8.72727 3.63636V12.3636L16 8Z" fill="#FF0000"/>
</svg>
