<svg width="36" height="48" viewBox="0 0 36 48" fill="none" xmlns="http://www.w3.org/2000/svg">
<path d="M34.3633 15.7507V2.86731C34.3633 1.81155 33.5074 0.95575 32.4517 0.95575H2.93207C1.87631 0.95575 1.02051 1.81155 1.02051 2.86731V15.7507H34.3633Z" fill="#FAF7F5"/>
<path d="M34.3633 25.4348V45.1327C34.3633 46.1884 33.5074 47.0443 32.4517 47.0443H9.90763C9.40068 47.0443 8.91448 46.8429 8.55597 46.4844L1.5804 39.5088C1.22189 39.1503 1.02051 38.6641 1.02051 38.1571V15.7508H34.3633V17.7125" fill="#FCF055"/>
<path d="M9.29594 46.8796V40.6959C9.29594 39.6401 8.44014 38.7843 7.38438 38.7843H1.20068" fill="#5DC2A7"/>
<path d="M14.7507 25.1887L19.0495 29.4875L23.3484 25.1885L22.2114 24.0515L27.4755 23.4266L26.8507 28.6909L25.7003 27.5404L21.4014 31.8394L21.4021 31.8402L19.0502 34.1921L14.7507 29.8925L10.451 34.1921L8.09912 31.8402L14.7507 25.1887Z" fill="#FAF7F5"/>
<path fill-rule="evenodd" clip-rule="evenodd" d="M0.0649414 38.1571C0.0649414 38.923 0.36324 39.643 0.904785 40.1846L7.88035 47.1601C8.42189 47.7016 9.14198 47.9999 9.90784 47.9999H32.4519C34.033 47.9999 35.3192 46.7136 35.3192 45.1326V25.4348C35.3192 24.2076 33.4077 24.2058 33.4077 25.4348V45.1327C33.4077 45.6597 32.9789 46.0884 32.4519 46.0884H10.252V40.6959C10.252 39.1149 8.96573 37.8286 7.38468 37.8286H1.9765V16.7065H33.4077V17.7125C33.4077 18.9397 35.3192 18.9415 35.3192 17.7125V2.86734C35.3192 1.28629 34.033 0 32.4519 0H2.93228C1.35123 0 0.0649414 1.28629 0.0649414 2.86734V38.1571ZM1.9765 2.86734C1.9765 2.34032 2.40526 1.91156 2.93228 1.91156H32.4519C32.9789 1.91156 33.4077 2.34032 33.4077 2.86734V14.795H1.9765V2.86734ZM7.38468 39.7401H3.16358L8.34046 44.9169V40.6958C8.34046 40.1688 7.9117 39.7401 7.38468 39.7401Z" fill="black"/>
<path fill-rule="evenodd" clip-rule="evenodd" d="M9.16629 3.85718C10.4955 3.80313 12.0288 3.74079 12.9986 4.57529C14.143 5.56003 14.1135 8.04448 12.961 9.00867C12.0878 9.73962 10.964 9.72804 9.88624 9.71692C9.75514 9.71557 9.62473 9.71423 9.49553 9.71423V12.4117C9.49553 13.2432 7.54736 13.2432 7.54736 12.4117V4.4692C7.54736 4.08545 7.93359 3.88216 8.27175 3.88216C8.55195 3.88216 8.85347 3.8699 9.16629 3.85718ZM10.7319 8.21566C11.4813 8.21566 11.8559 7.79952 11.8559 6.96684C11.8821 6.21646 11.5555 5.58067 10.7319 5.58067H9.49562V8.21566H10.7319Z" fill="black"/>
<path fill-rule="evenodd" clip-rule="evenodd" d="M16.8968 3.85718C18.2259 3.80313 19.7593 3.74079 20.729 4.57529C21.8735 5.56003 21.8438 8.04448 20.6915 9.00867C19.8183 9.73962 18.6944 9.72804 17.6167 9.71692C17.4856 9.71557 17.3552 9.71423 17.226 9.71423V12.4117C17.226 13.2432 15.2778 13.2432 15.2778 12.4117V4.4692C15.2778 4.08545 15.6641 3.88216 16.0022 3.88216C16.2824 3.88216 16.5839 3.8699 16.8968 3.85718ZM18.4623 8.21566C19.2116 8.21566 19.5863 7.79952 19.5863 6.96684C19.6126 6.21646 19.286 5.58067 18.4623 5.58067H17.226V8.21566H18.4623Z" fill="black"/>
<path d="M28.4154 3.8822H23.0205C22.2132 3.8822 22.2211 5.58072 23.0205 5.58072H24.7438V12.4078C24.7438 13.2441 26.692 13.2441 26.692 12.4078V5.58072H28.4154C29.2148 5.58072 29.2226 3.8822 28.4154 3.8822Z" fill="black"/>
<path d="M35.2457 21.2411C35.0454 20.7606 34.4794 20.5242 33.9975 20.7241C33.5164 20.9236 33.2818 21.4913 33.4804 21.9723C33.6793 22.454 34.2477 22.688 34.7286 22.4894C35.2117 22.2899 35.4432 21.7231 35.2457 21.2411Z" fill="black"/>
<path fill-rule="evenodd" clip-rule="evenodd" d="M7.42348 32.5161C7.05025 32.1427 7.05025 31.5375 7.42348 31.1643L14.0748 24.5126C14.4399 24.1474 15.0663 24.1521 15.4269 24.5126L19.0497 28.1357L21.9969 25.1885L21.5358 24.7273C20.9842 24.1759 21.332 23.1934 22.0989 23.1024L27.3631 22.4775C27.9641 22.406 28.496 22.9407 28.4249 23.5393L27.8 28.8034C27.7082 29.5781 26.7212 29.9127 26.1751 29.3667L25.7006 28.8921L19.7264 34.8679C19.3576 35.2367 18.7433 35.2367 18.3746 34.8679L14.7509 31.2441L11.1271 34.8679C10.7538 35.2412 10.1486 35.2412 9.77536 34.8679L7.42348 32.5161ZM15.4267 29.2165L19.0504 32.8404L25.0246 26.8644C25.3227 26.5664 25.7687 26.5063 26.1265 26.6845L26.3835 24.5187L24.211 24.7765C24.3786 25.1274 24.2986 25.5899 24.0243 25.8642L19.7254 30.1632C19.3521 30.5364 18.7469 30.5364 18.3736 30.1632L14.7508 26.54L9.45097 31.8401L10.4512 32.8404L14.0749 29.2165C14.4437 28.8478 15.058 28.8478 15.4267 29.2165Z" fill="black"/>
</svg>
