<svg width="15" height="16" viewBox="0 0 15 16" fill="none" xmlns="http://www.w3.org/2000/svg">
<path fill-rule="evenodd" clip-rule="evenodd" d="M10.7287 0.614897C10.7279 0.263074 10.4594 -0.000794187 10.1197 3.60025e-06C9.77219 0.000805012 9.51154 0.264673 9.51233 0.616497L9.51312 1.17622L4.82134 1.18261L4.82055 0.622893C4.81976 0.27107 4.5591 0.00720181 4.21156 0.00800141C3.86402 0.00800141 3.60337 0.272669 3.60416 0.624493L3.60495 1.22419C1.40123 1.42649 -0.00314354 2.92414 1.0586e-05 5.24218L0.00870439 11.9036C0.0118638 14.4216 1.60897 16.0032 4.12152 16L10.2975 15.992C12.8258 15.988 14.4032 14.4432 14.4 11.9324L14.3913 5.19181C14.3889 2.88896 12.9332 1.38731 10.7295 1.2146L10.7287 0.614897ZM10.4341 11.3535H10.442C10.8132 11.3535 11.1142 11.6566 11.1142 12.0324C11.115 12.4082 10.8148 12.7128 10.4444 12.7136C10.081 12.7056 9.78799 12.4026 9.7872 12.0348C9.7793 11.667 10.0708 11.3623 10.4341 11.3535ZM3.93353 11.3543C3.57019 11.3703 3.28584 11.675 3.28663 12.0428C3.30322 12.4106 3.60337 12.6984 3.9667 12.6817C4.32293 12.6657 4.60649 12.361 4.58991 11.9932C4.58201 11.6334 4.28897 11.3535 3.93353 11.3543ZM6.54087 12.0388C6.54087 11.671 6.82443 11.3671 7.18776 11.3503C7.5432 11.3495 7.83624 11.6294 7.84414 11.9884C7.86073 12.357 7.57638 12.6609 7.22094 12.6777C6.8576 12.6936 6.55745 12.4066 6.54087 12.0388ZM3.92958 8.47576C3.56624 8.49175 3.28268 8.7964 3.28347 9.16422C3.29927 9.53203 3.60021 9.81989 3.96355 9.80309C4.31898 9.7871 4.60254 9.48246 4.58596 9.11464C4.57806 8.75482 4.28581 8.47496 3.92958 8.47576ZM6.5377 9.13623C6.53692 8.76841 6.82127 8.46377 7.1846 8.44777C7.54004 8.44697 7.83229 8.72683 7.84098 9.08665C7.85678 9.45447 7.57322 9.75832 7.21778 9.77511C6.85444 9.7911 6.5535 9.50405 6.5377 9.13623ZM10.4388 8.45177C10.0755 8.45977 9.79115 8.75562 9.79194 9.12344V9.13223C9.79984 9.50005 10.1 9.77911 10.4641 9.77111C10.8195 9.76232 11.1031 9.45767 11.0952 9.08985C11.0786 8.73803 10.7935 8.45097 10.4388 8.45177ZM4.82292 2.414L9.5147 2.4076L9.51549 3.05528C9.51549 3.3991 9.77693 3.67097 10.1245 3.67017C10.4641 3.67017 10.7319 3.3975 10.7319 3.05368L10.7311 2.43798C12.2792 2.57232 13.1417 3.47427 13.1757 5.1934V5.47326L1.21719 5.48926L1.2164 5.24058C1.21403 3.50625 2.0663 2.6011 3.60653 2.44678L3.60732 3.06247C3.60732 3.4071 3.86876 3.67816 4.2163 3.67736C4.56384 3.67736 4.82371 3.4055 4.82371 3.06087L4.82292 2.414Z" fill="white"/>
</svg>
