<svg width="48" height="48" viewBox="0 0 48 48" fill="none" xmlns="http://www.w3.org/2000/svg">
<path d="M7.50002 36.7073V21.051C7.50002 15.8733 11.7565 11.676 16.9341 11.676H11.4966C6.31886 11.676 2.12158 15.8733 2.12158 21.051V36.7073C2.12158 41.885 6.31886 46.0823 11.4966 46.0823H16.9341C11.7565 46.0823 7.50002 41.885 7.50002 36.7073Z" fill="#5DC2A7" fill-opacity="0.2"/>
<path fill-rule="evenodd" clip-rule="evenodd" d="M16.9688 48H11.25C5.04675 48 0 42.9533 0 36.75V21.375C0 15.1718 5.04675 10.125 11.25 10.125H36.75C42.9533 10.125 48 15.1718 48 21.375V27C48 28.0356 47.1606 28.875 46.125 28.875C45.0894 28.875 44.25 28.0356 44.25 27V21.375C44.25 17.2395 40.8855 13.875 36.75 13.875H11.25C7.1145 13.875 3.75 17.2395 3.75 21.375V36.75C3.75 40.8855 7.1145 44.25 11.25 44.25H16.9688C18.0043 44.25 18.8438 45.0894 18.8438 46.125C18.8438 47.1606 18.0043 48 16.9688 48ZM48 42.2812V37.329C48 34.1665 45.4272 31.5938 42.2648 31.5938H37.3125C36.2769 31.5938 35.4375 32.4332 35.4375 33.4688C35.4375 34.5043 36.2769 35.3438 37.3125 35.3438H42.2648C43.3594 35.3438 44.25 36.2344 44.25 37.329V42.2812C44.25 43.3168 45.0894 44.1562 46.125 44.1562C47.1606 44.1562 48 43.3168 48 42.2812ZM41.419 38.4868C42.1679 39.202 42.1953 40.3889 41.4802 41.1378C37.3156 45.4988 31.4687 48 25.4386 48H24.5625C23.5269 48 22.6875 47.1606 22.6875 46.125C22.6875 45.0894 23.5269 44.25 24.5625 44.25H25.4386C30.4492 44.25 35.3076 42.1717 38.7681 38.5479C39.4833 37.7991 40.6702 37.7717 41.419 38.4868ZM12.2812 18.9375C10.9868 18.9375 9.9375 19.9868 9.9375 21.2812C9.9375 22.5757 10.9868 23.625 12.2812 23.625C13.5757 23.625 14.625 22.5757 14.625 21.2812C14.625 19.9868 13.5757 18.9375 12.2812 18.9375ZM18 21.2812C18 19.9868 19.0493 18.9375 20.3438 18.9375C21.6382 18.9375 22.6875 19.9868 22.6875 21.2812C22.6875 22.5757 21.6382 23.625 20.3438 23.625C19.0493 23.625 18 22.5757 18 21.2812ZM28.4062 18.9375C27.1118 18.9375 26.0625 19.9868 26.0625 21.2812C26.0625 22.5757 27.1118 23.625 28.4062 23.625C29.7007 23.625 30.75 22.5757 30.75 21.2812C30.75 19.9868 29.7007 18.9375 28.4062 18.9375ZM9.9375 29.3438C9.9375 28.0493 10.9868 27 12.2812 27C13.5757 27 14.625 28.0493 14.625 29.3438C14.625 30.6382 13.5757 31.6875 12.2812 31.6875C10.9868 31.6875 9.9375 30.6382 9.9375 29.3438ZM12.2812 35.0625C10.9868 35.0625 9.9375 36.1118 9.9375 37.4062C9.9375 38.7007 10.9868 39.75 12.2812 39.75C13.5757 39.75 14.625 38.7007 14.625 37.4062C14.625 36.1118 13.5757 35.0625 12.2812 35.0625ZM18 29.3438C18 28.0493 19.0493 27 20.3438 27C21.6382 27 22.6875 28.0493 22.6875 29.3438C22.6875 30.6382 21.6382 31.6875 20.3438 31.6875C19.0493 31.6875 18 30.6382 18 29.3438ZM20.3438 35.0625C19.0493 35.0625 18 36.1118 18 37.4062C18 38.7007 19.0493 39.75 20.3438 39.75C21.6382 39.75 22.6875 38.7007 22.6875 37.4062C22.6875 36.1118 21.6382 35.0625 20.3438 35.0625ZM26.0625 29.3438C26.0625 28.0493 27.1118 27 28.4062 27C29.7007 27 30.75 28.0493 30.75 29.3438C30.75 30.6382 29.7007 31.6875 28.4062 31.6875C27.1118 31.6875 26.0625 30.6382 26.0625 29.3438Z" fill="#5DC2A7"/>
<path fill-rule="evenodd" clip-rule="evenodd" d="M17.0625 7.5C16.0269 7.5 15.1875 6.66056 15.1875 5.625C15.1875 4.59113 14.3464 3.75 13.3125 3.75C12.2786 3.75 11.4375 4.59113 11.4375 5.625C11.4375 6.66056 10.5981 7.5 9.5625 7.5C8.52694 7.5 7.6875 6.66056 7.6875 5.625C7.6875 2.52338 10.2109 0 13.3125 0C16.4141 0 18.9375 2.52338 18.9375 5.625C18.9375 6.66056 18.0981 7.5 17.0625 7.5ZM40.5 5.625C40.5 2.52338 37.9766 0 34.875 0C31.7734 0 29.25 2.52338 29.25 5.625C29.25 6.66056 30.0894 7.5 31.125 7.5C32.1606 7.5 33 6.66056 33 5.625C33 4.59113 33.8411 3.75 34.875 3.75C35.9089 3.75 36.75 4.59113 36.75 5.625C36.75 6.66056 37.5894 7.5 38.625 7.5C39.6606 7.5 40.5 6.66056 40.5 5.625ZM34.125 21.2812C34.125 19.9868 35.1743 18.9375 36.4688 18.9375C37.7632 18.9375 38.8125 19.9868 38.8125 21.2812C38.8125 22.5757 37.7632 23.625 36.4688 23.625C35.1743 23.625 34.125 22.5757 34.125 21.2812Z" fill="#FCF055"/>
</svg>
