<svg width="48" height="48" viewBox="0 0 48 48" fill="none" xmlns="http://www.w3.org/2000/svg">
<path fill-rule="evenodd" clip-rule="evenodd" d="M7.5 11.2462V36.7538C7.5 41.9294 11.6854 46.125 16.8484 46.125H11.1562C5.97853 46.125 1.78125 41.9276 1.78125 36.75V11.25C1.78125 6.07228 5.97853 1.875 11.1562 1.875H16.8484C11.6854 1.875 7.5 6.07059 7.5 11.2462ZM36.6562 30.9375C37.6711 30.9375 38.6272 30.688 39.4688 30.2492C37.5193 29.2327 36.1875 27.1943 36.1875 24.8438C36.1875 22.4932 37.5193 20.4548 39.4688 19.4383C38.6272 18.9995 37.6711 18.75 36.6562 18.75C33.2908 18.75 30.5625 21.4783 30.5625 24.8438C30.5625 28.2092 33.2908 30.9375 36.6562 30.9375Z" fill="#5DC2A7" fill-opacity="0.2"/>
<path fill-rule="evenodd" clip-rule="evenodd" d="M21.75 46.125C21.75 45.0894 20.9106 44.25 19.875 44.25H11.248C7.11366 44.25 3.75 40.8863 3.75 36.752V11.248C3.75 7.11366 7.11366 3.75 11.248 3.75H28.5038C32.6383 3.75 36.0019 7.11366 36.0019 11.248C36.0019 12.2836 36.8413 13.123 37.8769 13.123C38.9124 13.123 39.7519 12.2836 39.7519 11.248C39.752 5.04591 34.7061 0 28.502 0H11.248C5.04591 0 0 5.04591 0 11.248V36.7519C0 42.9541 5.04591 48 11.248 48H19.875C20.9106 48 21.75 47.1606 21.75 46.125ZM28.6875 24.8438C28.6875 29.2377 32.2623 32.8125 36.6562 32.8125C41.0502 32.8125 44.625 29.2377 44.625 24.8438C44.625 20.4498 41.0502 16.875 36.6562 16.875C32.2623 16.875 28.6875 20.4498 28.6875 24.8438ZM32.4375 24.8438C32.4375 22.5175 34.33 20.625 36.6562 20.625C38.9825 20.625 40.875 22.5175 40.875 24.8438C40.875 27.17 38.9825 29.0625 36.6562 29.0625C34.33 29.0625 32.4375 27.17 32.4375 24.8438ZM22.9688 19.4062C24.0043 19.4062 24.8438 20.2457 24.8438 21.2812C24.8438 22.3168 24.0043 23.1562 22.9688 23.1562H13.7812C12.7457 23.1562 11.9062 22.3168 11.9062 21.2812C11.9062 20.2457 12.7457 19.4062 13.7812 19.4062H22.9688ZM24.8438 35.625C24.8438 34.5894 24.0043 33.75 22.9688 33.75H13.7812C12.7457 33.75 11.9062 34.5894 11.9062 35.625C11.9062 36.6606 12.7457 37.5 13.7812 37.5H22.9688C24.0043 37.5 24.8438 36.6606 24.8438 35.625ZM22.9688 26.5312C24.0043 26.5312 24.8438 27.3707 24.8438 28.4062C24.8438 29.4418 24.0043 30.2812 22.9688 30.2812H13.7812C12.7457 30.2812 11.9062 29.4418 11.9062 28.4062C11.9062 27.3707 12.7457 26.5312 13.7812 26.5312H22.9688Z" fill="#5DC2A7"/>
<path fill-rule="evenodd" clip-rule="evenodd" d="M26.7188 12.1875C27.7543 12.1875 28.5938 13.0269 28.5938 14.0625C28.5938 15.0981 27.7543 15.9375 26.7188 15.9375H13.7812C12.7457 15.9375 11.9062 15.0981 11.9062 14.0625C11.9062 13.0269 12.7457 12.1875 13.7812 12.1875H26.7188ZM44.25 46.125C44.25 47.1606 45.0894 48 46.125 48C47.1606 48 48 47.1606 48 46.125C48 40.3353 43.3097 35.625 37.5444 35.625H35.9555C30.1903 35.625 25.5 40.3353 25.5 46.125C25.5 47.1606 26.3394 48 27.375 48C28.4106 48 29.25 47.1606 29.25 46.125C29.25 42.403 32.2581 39.375 35.9556 39.375H37.5445C41.2419 39.375 44.25 42.403 44.25 46.125Z" fill="#FCF055"/>
</svg>
