<svg width="185" height="153" viewBox="0 0 185 153" fill="none" xmlns="http://www.w3.org/2000/svg">
<g clip-path="url(#clip0)">
<path d="M0 93C0 93 36.0391 152.992 94.5 152.992C152.961 152.992 185 93 185 93" stroke="white" stroke-linecap="square"/>
<path d="M37.6293 149.12C37.0533 149.12 36.5413 149.048 36.0933 148.904C35.6453 148.76 35.2253 148.516 34.8333 148.172C34.6173 147.98 34.5093 147.768 34.5093 147.536C34.5093 147.352 34.5773 147.192 34.7133 147.056C34.8493 146.912 35.0133 146.84 35.2053 146.84C35.3573 146.84 35.4933 146.888 35.6133 146.984C35.9333 147.248 36.2453 147.44 36.5493 147.56C36.8533 147.68 37.2133 147.74 37.6293 147.74C38.0773 147.74 38.4613 147.64 38.7813 147.44C39.1093 147.24 39.2733 146.992 39.2733 146.696C39.2733 146.336 39.1133 146.056 38.7933 145.856C38.4733 145.648 37.9653 145.492 37.2693 145.388C35.5173 145.132 34.6413 144.316 34.6413 142.94C34.6413 142.436 34.7733 142 35.0373 141.632C35.3013 141.256 35.6613 140.972 36.1173 140.78C36.5733 140.58 37.0813 140.48 37.6413 140.48C38.1453 140.48 38.6173 140.556 39.0573 140.708C39.5053 140.86 39.8773 141.06 40.1733 141.308C40.4053 141.492 40.5213 141.704 40.5213 141.944C40.5213 142.128 40.4533 142.292 40.3173 142.436C40.1813 142.572 40.0213 142.64 39.8373 142.64C39.7173 142.64 39.6093 142.604 39.5133 142.532C39.3053 142.364 39.0133 142.212 38.6373 142.076C38.2693 141.932 37.9373 141.86 37.6413 141.86C37.1373 141.86 36.7453 141.956 36.4653 142.148C36.1933 142.332 36.0573 142.576 36.0573 142.88C36.0573 143.224 36.1973 143.484 36.4773 143.66C36.7653 143.836 37.2133 143.98 37.8213 144.092C38.5093 144.212 39.0573 144.368 39.4653 144.56C39.8813 144.744 40.1933 145 40.4013 145.328C40.6093 145.648 40.7133 146.076 40.7133 146.612C40.7133 147.116 40.5693 147.56 40.2813 147.944C40.0013 148.32 39.6253 148.612 39.1533 148.82C38.6813 149.02 38.1733 149.12 37.6293 149.12ZM45.0655 147.644C45.1775 147.644 45.2775 147.7 45.3655 147.812C45.4615 147.916 45.5095 148.056 45.5095 148.232C45.5095 148.448 45.3895 148.632 45.1495 148.784C44.9175 148.928 44.6535 149 44.3575 149C43.8615 149 43.4415 148.896 43.0975 148.688C42.7615 148.472 42.5935 148.02 42.5935 147.332V144.02H42.0415C41.8495 144.02 41.6895 143.956 41.5615 143.828C41.4335 143.7 41.3695 143.54 41.3695 143.348C41.3695 143.164 41.4335 143.012 41.5615 142.892C41.6895 142.764 41.8495 142.7 42.0415 142.7H42.5935V141.932C42.5935 141.724 42.6615 141.552 42.7975 141.416C42.9415 141.272 43.1175 141.2 43.3255 141.2C43.5255 141.2 43.6935 141.272 43.8295 141.416C43.9655 141.552 44.0335 141.724 44.0335 141.932V142.7H44.8855C45.0775 142.7 45.2375 142.764 45.3655 142.892C45.4935 143.02 45.5575 143.18 45.5575 143.372C45.5575 143.556 45.4935 143.712 45.3655 143.84C45.2375 143.96 45.0775 144.02 44.8855 144.02H44.0335V147.272C44.0335 147.44 44.0775 147.564 44.1655 147.644C44.2535 147.716 44.3735 147.752 44.5255 147.752C44.5895 147.752 44.6775 147.736 44.7895 147.704C44.8855 147.664 44.9775 147.644 45.0655 147.644ZM51.6436 142.58C51.8516 142.58 52.0236 142.652 52.1596 142.796C52.2956 142.932 52.3636 143.104 52.3636 143.312V146.36C52.3636 147.224 52.1236 147.9 51.6436 148.388C51.1716 148.876 50.4956 149.12 49.6156 149.12C48.7356 149.12 48.0596 148.876 47.5876 148.388C47.1156 147.9 46.8796 147.224 46.8796 146.36V143.312C46.8796 143.104 46.9476 142.932 47.0836 142.796C47.2196 142.652 47.3916 142.58 47.5996 142.58C47.8076 142.58 47.9796 142.652 48.1156 142.796C48.2516 142.932 48.3196 143.104 48.3196 143.312V146.36C48.3196 146.848 48.4276 147.212 48.6436 147.452C48.8596 147.684 49.1836 147.8 49.6156 147.8C50.0556 147.8 50.3836 147.684 50.5996 147.452C50.8156 147.212 50.9236 146.848 50.9236 146.36V143.312C50.9236 143.104 50.9916 142.932 51.1276 142.796C51.2636 142.652 51.4356 142.58 51.6436 142.58ZM59.1186 140.12C59.3266 140.12 59.4986 140.188 59.6346 140.324C59.7706 140.46 59.8386 140.636 59.8386 140.852V148.268C59.8386 148.476 59.7706 148.652 59.6346 148.796C59.4986 148.932 59.3266 149 59.1186 149C58.9106 149 58.7386 148.932 58.6026 148.796C58.4746 148.66 58.4066 148.488 58.3986 148.28C58.1986 148.512 57.9266 148.712 57.5826 148.88C57.2466 149.04 56.8906 149.12 56.5146 149.12C55.9626 149.12 55.4626 148.98 55.0146 148.7C54.5666 148.412 54.2106 148.016 53.9466 147.512C53.6906 147.008 53.5626 146.436 53.5626 145.796C53.5626 145.156 53.6906 144.584 53.9466 144.08C54.2026 143.568 54.5506 143.172 54.9906 142.892C55.4386 142.604 55.9306 142.46 56.4666 142.46C56.8506 142.46 57.2106 142.532 57.5466 142.676C57.8826 142.812 58.1666 142.988 58.3986 143.204V140.852C58.3986 140.644 58.4666 140.472 58.6026 140.336C58.7386 140.192 58.9106 140.12 59.1186 140.12ZM56.6946 147.8C57.2146 147.8 57.6386 147.612 57.9666 147.236C58.2946 146.852 58.4586 146.372 58.4586 145.796C58.4586 145.22 58.2946 144.74 57.9666 144.356C57.6386 143.972 57.2146 143.78 56.6946 143.78C56.1826 143.78 55.7626 143.972 55.4346 144.356C55.1066 144.74 54.9426 145.22 54.9426 145.796C54.9426 146.372 55.1026 146.852 55.4226 147.236C55.7506 147.612 56.1746 147.8 56.6946 147.8ZM67.1591 145.64C67.1511 145.832 67.0751 145.988 66.9311 146.108C66.7871 146.228 66.6191 146.288 66.4271 146.288H62.4671C62.5631 146.76 62.7831 147.132 63.1271 147.404C63.4711 147.668 63.8591 147.8 64.2911 147.8C64.6191 147.8 64.8751 147.772 65.0591 147.716C65.2431 147.652 65.3871 147.588 65.4911 147.524C65.6031 147.452 65.6791 147.404 65.7191 147.38C65.8631 147.308 65.9991 147.272 66.1271 147.272C66.2951 147.272 66.4391 147.332 66.5591 147.452C66.6791 147.572 66.7391 147.712 66.7391 147.872C66.7391 148.088 66.6271 148.284 66.4031 148.46C66.1791 148.644 65.8791 148.8 65.5031 148.928C65.1271 149.056 64.7471 149.12 64.3631 149.12C63.6911 149.12 63.1031 148.98 62.5991 148.7C62.1031 148.42 61.7191 148.036 61.4471 147.548C61.1751 147.052 61.0391 146.496 61.0391 145.88C61.0391 145.192 61.1831 144.588 61.4711 144.068C61.7591 143.548 62.1391 143.152 62.6111 142.88C63.0831 142.6 63.5871 142.46 64.1231 142.46C64.6511 142.46 65.1471 142.604 65.6111 142.892C66.0831 143.18 66.4591 143.568 66.7391 144.056C67.0191 144.544 67.1591 145.072 67.1591 145.64ZM64.1231 143.78C63.1951 143.78 62.6471 144.216 62.4791 145.088H65.6231V145.004C65.5911 144.668 65.4271 144.38 65.1311 144.14C64.8351 143.9 64.4991 143.78 64.1231 143.78ZM71.7921 142.46C72.6081 142.46 73.1721 142.704 73.4841 143.192C73.7961 143.672 73.9521 144.34 73.9521 145.196V148.268C73.9521 148.476 73.8841 148.652 73.7481 148.796C73.6121 148.932 73.4401 149 73.2321 149C73.0241 149 72.8521 148.932 72.7161 148.796C72.5801 148.652 72.5121 148.476 72.5121 148.268V145.196C72.5121 144.756 72.4201 144.412 72.2361 144.164C72.0521 143.908 71.7361 143.78 71.2881 143.78C70.8241 143.78 70.4601 143.916 70.1961 144.188C69.9321 144.452 69.8001 144.788 69.8001 145.196V148.268C69.8001 148.476 69.7321 148.652 69.5961 148.796C69.4601 148.932 69.2881 149 69.0801 149C68.8721 149 68.7001 148.932 68.5641 148.796C68.4281 148.652 68.3601 148.476 68.3601 148.268V143.312C68.3601 143.104 68.4281 142.932 68.5641 142.796C68.7001 142.652 68.8721 142.58 69.0801 142.58C69.2881 142.58 69.4601 142.652 69.5961 142.796C69.7321 142.932 69.8001 143.104 69.8001 143.312V143.516C70.0161 143.228 70.2961 142.98 70.6401 142.772C70.9921 142.564 71.3761 142.46 71.7921 142.46ZM78.6045 147.644C78.7165 147.644 78.8165 147.7 78.9045 147.812C79.0005 147.916 79.0485 148.056 79.0485 148.232C79.0485 148.448 78.9285 148.632 78.6885 148.784C78.4565 148.928 78.1925 149 77.8965 149C77.4005 149 76.9805 148.896 76.6365 148.688C76.3005 148.472 76.1325 148.02 76.1325 147.332V144.02H75.5805C75.3885 144.02 75.2285 143.956 75.1005 143.828C74.9725 143.7 74.9085 143.54 74.9085 143.348C74.9085 143.164 74.9725 143.012 75.1005 142.892C75.2285 142.764 75.3885 142.7 75.5805 142.7H76.1325V141.932C76.1325 141.724 76.2005 141.552 76.3365 141.416C76.4805 141.272 76.6565 141.2 76.8645 141.2C77.0645 141.2 77.2325 141.272 77.3685 141.416C77.5045 141.552 77.5725 141.724 77.5725 141.932V142.7H78.4245C78.6165 142.7 78.7765 142.764 78.9045 142.892C79.0325 143.02 79.0965 143.18 79.0965 143.372C79.0965 143.556 79.0325 143.712 78.9045 143.84C78.7765 143.96 78.6165 144.02 78.4245 144.02H77.5725V147.272C77.5725 147.44 77.6165 147.564 77.7045 147.644C77.7925 147.716 77.9125 147.752 78.0645 147.752C78.1285 147.752 78.2165 147.736 78.3285 147.704C78.4245 147.664 78.5165 147.644 78.6045 147.644ZM89.95 145.796C89.95 146.436 89.806 147.012 89.518 147.524C89.23 148.028 88.834 148.42 88.33 148.7C87.834 148.98 87.286 149.12 86.686 149.12C86.078 149.12 85.526 148.98 85.03 148.7C84.534 148.42 84.142 148.028 83.854 147.524C83.566 147.012 83.422 146.436 83.422 145.796C83.422 145.156 83.566 144.584 83.854 144.08C84.142 143.568 84.534 143.172 85.03 142.892C85.526 142.604 86.078 142.46 86.686 142.46C87.286 142.46 87.834 142.604 88.33 142.892C88.834 143.172 89.23 143.568 89.518 144.08C89.806 144.584 89.95 145.156 89.95 145.796ZM88.51 145.796C88.51 145.404 88.426 145.056 88.258 144.752C88.098 144.44 87.878 144.2 87.598 144.032C87.326 143.864 87.022 143.78 86.686 143.78C86.35 143.78 86.042 143.864 85.762 144.032C85.49 144.2 85.27 144.44 85.102 144.752C84.942 145.056 84.862 145.404 84.862 145.796C84.862 146.188 84.942 146.536 85.102 146.84C85.27 147.144 85.49 147.38 85.762 147.548C86.042 147.716 86.35 147.8 86.686 147.8C87.022 147.8 87.326 147.716 87.598 147.548C87.878 147.38 88.098 147.144 88.258 146.84C88.426 146.536 88.51 146.188 88.51 145.796ZM94.237 141.392C93.965 141.392 93.773 141.472 93.661 141.632C93.549 141.784 93.493 141.952 93.493 142.136V142.7H94.585C94.777 142.7 94.937 142.764 95.065 142.892C95.193 143.012 95.257 143.168 95.257 143.36C95.257 143.552 95.193 143.712 95.065 143.84C94.937 143.96 94.777 144.02 94.585 144.02H93.493V148.268C93.493 148.476 93.425 148.652 93.289 148.796C93.153 148.932 92.981 149 92.773 149C92.565 149 92.393 148.932 92.257 148.796C92.121 148.652 92.053 148.476 92.053 148.268V144.02H91.405C91.213 144.02 91.053 143.96 90.925 143.84C90.797 143.712 90.733 143.552 90.733 143.36C90.733 143.168 90.797 143.012 90.925 142.892C91.053 142.764 91.213 142.7 91.405 142.7H92.053V142.148C92.053 141.548 92.257 141.06 92.665 140.684C93.081 140.308 93.677 140.12 94.453 140.12C94.749 140.12 95.005 140.18 95.221 140.3C95.445 140.42 95.557 140.604 95.557 140.852C95.557 141.044 95.501 141.2 95.389 141.32C95.277 141.44 95.141 141.5 94.981 141.5C94.941 141.5 94.897 141.496 94.849 141.488C94.809 141.48 94.765 141.472 94.717 141.464C94.525 141.416 94.365 141.392 94.237 141.392ZM102.616 147.644C102.728 147.644 102.828 147.7 102.916 147.812C103.012 147.916 103.06 148.056 103.06 148.232C103.06 148.448 102.94 148.632 102.7 148.784C102.468 148.928 102.204 149 101.908 149C101.412 149 100.992 148.896 100.648 148.688C100.312 148.472 100.144 148.02 100.144 147.332V144.02H99.5922C99.4002 144.02 99.2402 143.956 99.1122 143.828C98.9842 143.7 98.9202 143.54 98.9202 143.348C98.9202 143.164 98.9842 143.012 99.1122 142.892C99.2402 142.764 99.4002 142.7 99.5922 142.7H100.144V141.932C100.144 141.724 100.212 141.552 100.348 141.416C100.492 141.272 100.668 141.2 100.876 141.2C101.076 141.2 101.244 141.272 101.38 141.416C101.516 141.552 101.584 141.724 101.584 141.932V142.7H102.436C102.628 142.7 102.788 142.764 102.916 142.892C103.044 143.02 103.108 143.18 103.108 143.372C103.108 143.556 103.044 143.712 102.916 143.84C102.788 143.96 102.628 144.02 102.436 144.02H101.584V147.272C101.584 147.44 101.628 147.564 101.716 147.644C101.804 147.716 101.924 147.752 102.076 147.752C102.14 147.752 102.228 147.736 102.34 147.704C102.436 147.664 102.528 147.644 102.616 147.644ZM107.802 142.46C108.594 142.46 109.142 142.704 109.446 143.192C109.75 143.672 109.902 144.34 109.902 145.196V148.268C109.902 148.476 109.834 148.652 109.698 148.796C109.562 148.932 109.39 149 109.182 149C108.974 149 108.802 148.932 108.666 148.796C108.53 148.652 108.462 148.476 108.462 148.268V145.196C108.462 144.756 108.374 144.412 108.198 144.164C108.03 143.908 107.73 143.78 107.298 143.78C106.85 143.78 106.498 143.916 106.242 144.188C105.994 144.452 105.87 144.788 105.87 145.196V148.268C105.87 148.476 105.802 148.652 105.666 148.796C105.53 148.932 105.358 149 105.15 149C104.942 149 104.77 148.932 104.634 148.796C104.498 148.652 104.43 148.476 104.43 148.268V140.852C104.43 140.644 104.498 140.472 104.634 140.336C104.77 140.192 104.942 140.12 105.15 140.12C105.358 140.12 105.53 140.192 105.666 140.336C105.802 140.472 105.87 140.644 105.87 140.852V143.504C106.086 143.216 106.358 142.972 106.686 142.772C107.022 142.564 107.394 142.46 107.802 142.46ZM117.222 145.64C117.214 145.832 117.138 145.988 116.994 146.108C116.85 146.228 116.682 146.288 116.49 146.288H112.53C112.626 146.76 112.846 147.132 113.19 147.404C113.534 147.668 113.922 147.8 114.354 147.8C114.682 147.8 114.938 147.772 115.122 147.716C115.306 147.652 115.45 147.588 115.554 147.524C115.666 147.452 115.742 147.404 115.782 147.38C115.926 147.308 116.062 147.272 116.19 147.272C116.358 147.272 116.502 147.332 116.622 147.452C116.742 147.572 116.802 147.712 116.802 147.872C116.802 148.088 116.69 148.284 116.466 148.46C116.242 148.644 115.942 148.8 115.566 148.928C115.19 149.056 114.81 149.12 114.426 149.12C113.754 149.12 113.166 148.98 112.662 148.7C112.166 148.42 111.782 148.036 111.51 147.548C111.238 147.052 111.102 146.496 111.102 145.88C111.102 145.192 111.246 144.588 111.534 144.068C111.822 143.548 112.202 143.152 112.674 142.88C113.146 142.6 113.65 142.46 114.186 142.46C114.714 142.46 115.21 142.604 115.674 142.892C116.146 143.18 116.522 143.568 116.802 144.056C117.082 144.544 117.222 145.072 117.222 145.64ZM114.186 143.78C113.258 143.78 112.71 144.216 112.542 145.088H115.686V145.004C115.654 144.668 115.49 144.38 115.194 144.14C114.898 143.9 114.562 143.78 114.186 143.78ZM129.178 142.58C129.37 142.58 129.53 142.652 129.658 142.796C129.794 142.932 129.862 143.108 129.862 143.324C129.862 143.396 129.846 143.488 129.814 143.6L127.978 148.544C127.93 148.688 127.842 148.804 127.714 148.892C127.594 148.972 127.462 149.012 127.318 149.012L127.222 149C126.95 148.984 126.746 148.832 126.61 148.544L125.59 145.592L124.618 148.544C124.482 148.832 124.278 148.984 124.006 149L123.91 149.012C123.766 149.012 123.63 148.972 123.502 148.892C123.382 148.804 123.298 148.688 123.25 148.544L121.414 143.6C121.382 143.512 121.366 143.42 121.366 143.324C121.366 143.124 121.43 142.952 121.558 142.808C121.694 142.656 121.87 142.58 122.086 142.58C122.246 142.58 122.382 142.62 122.494 142.7C122.614 142.772 122.698 142.884 122.746 143.036L124.042 146.552L124.99 143.984C125.118 143.688 125.338 143.54 125.65 143.54C125.818 143.54 125.946 143.576 126.034 143.648C126.13 143.72 126.21 143.832 126.274 143.984L127.198 146.492L128.482 143.036C128.53 142.884 128.614 142.772 128.734 142.7C128.854 142.62 129.002 142.58 129.178 142.58ZM136.757 145.64C136.749 145.832 136.673 145.988 136.529 146.108C136.385 146.228 136.217 146.288 136.025 146.288H132.065C132.161 146.76 132.381 147.132 132.725 147.404C133.069 147.668 133.457 147.8 133.889 147.8C134.217 147.8 134.473 147.772 134.657 147.716C134.841 147.652 134.985 147.588 135.089 147.524C135.201 147.452 135.277 147.404 135.317 147.38C135.461 147.308 135.597 147.272 135.725 147.272C135.893 147.272 136.037 147.332 136.157 147.452C136.277 147.572 136.337 147.712 136.337 147.872C136.337 148.088 136.225 148.284 136.001 148.46C135.777 148.644 135.477 148.8 135.101 148.928C134.725 149.056 134.345 149.12 133.961 149.12C133.289 149.12 132.701 148.98 132.197 148.7C131.701 148.42 131.317 148.036 131.045 147.548C130.773 147.052 130.637 146.496 130.637 145.88C130.637 145.192 130.781 144.588 131.069 144.068C131.357 143.548 131.737 143.152 132.209 142.88C132.681 142.6 133.185 142.46 133.721 142.46C134.249 142.46 134.745 142.604 135.209 142.892C135.681 143.18 136.057 143.568 136.337 144.056C136.617 144.544 136.757 145.072 136.757 145.64ZM133.721 143.78C132.793 143.78 132.245 144.216 132.077 145.088H135.221V145.004C135.189 144.668 135.025 144.38 134.729 144.14C134.433 143.9 134.097 143.78 133.721 143.78ZM143.718 145.64C143.71 145.832 143.634 145.988 143.49 146.108C143.346 146.228 143.178 146.288 142.986 146.288H139.026C139.122 146.76 139.342 147.132 139.686 147.404C140.03 147.668 140.418 147.8 140.85 147.8C141.178 147.8 141.434 147.772 141.618 147.716C141.802 147.652 141.946 147.588 142.05 147.524C142.162 147.452 142.238 147.404 142.278 147.38C142.422 147.308 142.558 147.272 142.686 147.272C142.854 147.272 142.998 147.332 143.118 147.452C143.238 147.572 143.298 147.712 143.298 147.872C143.298 148.088 143.186 148.284 142.962 148.46C142.738 148.644 142.438 148.8 142.062 148.928C141.686 149.056 141.306 149.12 140.922 149.12C140.25 149.12 139.662 148.98 139.158 148.7C138.662 148.42 138.278 148.036 138.006 147.548C137.734 147.052 137.598 146.496 137.598 145.88C137.598 145.192 137.742 144.588 138.03 144.068C138.318 143.548 138.698 143.152 139.17 142.88C139.642 142.6 140.146 142.46 140.682 142.46C141.21 142.46 141.706 142.604 142.17 142.892C142.642 143.18 143.018 143.568 143.298 144.056C143.578 144.544 143.718 145.072 143.718 145.64ZM140.682 143.78C139.754 143.78 139.206 144.216 139.038 145.088H142.182V145.004C142.15 144.668 141.986 144.38 141.69 144.14C141.394 143.9 141.058 143.78 140.682 143.78ZM150.259 147.74C150.411 147.9 150.487 148.08 150.487 148.28C150.487 148.48 150.407 148.648 150.247 148.784C150.095 148.92 149.931 148.988 149.755 148.988C149.547 148.988 149.371 148.908 149.227 148.748L147.067 146.468L146.479 147.008V148.268C146.479 148.476 146.411 148.652 146.275 148.796C146.139 148.932 145.967 149 145.759 149C145.551 149 145.379 148.932 145.243 148.796C145.107 148.652 145.039 148.476 145.039 148.268V140.852C145.039 140.644 145.107 140.472 145.243 140.336C145.379 140.192 145.551 140.12 145.759 140.12C145.967 140.12 146.139 140.192 146.275 140.336C146.411 140.472 146.479 140.644 146.479 140.852V145.292L149.047 142.808C149.199 142.656 149.375 142.58 149.575 142.58C149.751 142.58 149.907 142.656 150.043 142.808C150.187 142.952 150.259 143.1 150.259 143.252C150.259 143.444 150.163 143.624 149.971 143.792L148.159 145.46L150.259 147.74Z" fill="#875617"/>
</g>
<path d="M92.562 139.511C54.6973 139.511 24 110.339 24 74.3553C24 52.8967 34.92 33.8647 51.7333 22C35.9513 33.6567 25.7853 51.8567 25.7853 72.336C25.7853 107.531 55.8153 136.071 92.8567 136.071L92.562 139.511Z" fill="url(#paint0_linear)"/>
<path d="M92.2327 139.511C130.097 139.511 160.786 110.339 160.786 74.3553C160.786 52.8967 149.866 33.8647 133.053 22C148.835 33.6567 159.001 51.8567 159.001 72.336C159.001 107.531 128.979 136.071 91.938 136.071L92.2327 139.511Z" fill="url(#paint1_linear)"/>
<path d="M44.0585 117.04C44.0585 117.04 34.1092 101.7 45.9045 88.9949C45.8959 88.9949 57.3532 103.226 44.0585 117.04Z" fill="url(#paint2_linear)"/>
<path d="M41.8748 118.938C41.8748 118.938 23.2155 122.119 15.1035 107.039C15.1035 107.039 33.2255 102.125 41.8748 118.938Z" fill="url(#paint3_linear)"/>
<path d="M30.2961 103.347C30.2961 103.347 14.0634 106.111 7.00009 92.9468C6.95676 92.9815 22.7301 88.7088 30.2961 103.347Z" fill="url(#paint4_linear)"/>
<path d="M25.4342 89.3242C25.4342 89.3242 9.5222 85.1816 9.08887 70.4482C9.08887 70.4482 25.2609 73.0396 25.4342 89.3242Z" fill="url(#paint5_linear)"/>
<path d="M25.538 70.6735C25.538 70.6735 11.8013 65.4735 12.928 52.3348C12.9627 52.3348 27.0633 56.1482 25.538 70.6735Z" fill="url(#paint6_linear)"/>
<path d="M26.3615 55.3422C26.3615 55.3422 17.0535 44.4135 24.8535 33.4849C24.8535 33.4849 35.1928 43.3995 26.3615 55.3422Z" fill="url(#paint7_linear)"/>
<path d="M36.3626 39.5342C36.3626 39.5342 28.7273 30.5729 35.1233 21.6029C35.0886 21.6462 43.5733 29.7409 36.3626 39.5342Z" fill="url(#paint8_linear)"/>
<path d="M42.5679 24.6622C42.5679 24.6622 42.7932 15.2935 51.7199 12.9275C52.0078 18.5694 48.11 23.5672 42.5679 24.6622H42.5679Z" fill="url(#paint9_linear)"/>
<path d="M31.3275 100.452C31.3275 100.452 26.7341 84.8522 40.2628 76.6276C40.2628 76.6276 46.4421 91.6469 31.3275 100.452Z" fill="url(#paint10_linear)"/>
<path d="M26.8903 80.5795C26.8903 80.5795 26.691 66.1322 40.315 62.0155C40.315 62.0242 42.0223 76.2895 26.8903 80.5795Z" fill="url(#paint11_linear)"/>
<path d="M25.5469 62.3796C25.5469 62.3796 29.5769 49.5616 42.8109 49.5009C42.8109 49.4749 40.1675 62.5269 25.5469 62.3796Z" fill="url(#paint12_linear)"/>
<path d="M32.3589 46.5282C32.3589 46.5282 38.0876 34.8109 50.7496 36.4922C50.7496 36.4922 46.3122 48.6342 32.3589 46.5282Z" fill="url(#paint13_linear)"/>
<path d="M41.7188 29.9749C41.7188 29.9749 48.8601 20.7622 59.5287 24.3502C59.5287 24.3502 53.4274 34.1349 41.7188 29.9749Z" fill="url(#paint14_linear)"/>
<path d="M53.2192 19.0462C53.2192 19.0462 60.3606 9.84215 71.0292 13.4302C71.0292 13.4302 64.9626 23.2062 53.2192 19.0462Z" fill="url(#paint15_linear)"/>
<path d="M141.429 117.04C141.429 117.04 151.378 101.7 139.583 88.9949C139.583 88.9949 128.134 103.226 141.429 117.04Z" fill="url(#paint16_linear)"/>
<path d="M143.613 118.938C143.613 118.938 162.272 122.119 170.384 107.039C170.384 107.039 152.262 102.125 143.613 118.938Z" fill="url(#paint17_linear)"/>
<path d="M155.235 103.347C155.235 103.347 171.476 106.111 178.531 92.9468C178.496 92.9815 162.766 88.7088 155.235 103.347Z" fill="url(#paint18_linear)"/>
<path d="M160.062 89.3242C160.062 89.3242 175.974 85.1816 176.407 70.4482C176.407 70.4482 160.235 73.0396 160.062 89.3242Z" fill="url(#paint19_linear)"/>
<path d="M159.95 70.6735C159.95 70.6735 173.695 65.4735 172.56 52.3348C172.56 52.3348 158.424 56.1482 159.95 70.6735Z" fill="url(#paint20_linear)"/>
<path d="M159.126 55.3422C159.126 55.3422 168.434 44.4135 160.643 33.4849C160.643 33.4849 150.295 43.3995 159.126 55.3422Z" fill="url(#paint21_linear)"/>
<path d="M149.159 39.5342C149.159 39.5342 156.829 30.5729 150.399 21.6462C150.399 21.6462 141.914 29.7409 149.159 39.5342Z" fill="url(#paint22_linear)"/>
<path d="M142.963 24.6622C142.963 24.6622 142.729 15.2935 133.802 12.9275C133.519 18.5709 137.419 23.5676 142.963 24.6622Z" fill="url(#paint23_linear)"/>
<path d="M154.169 100.452C154.169 100.452 158.753 84.8522 145.225 76.6276C145.225 76.6276 139.045 91.6469 154.169 100.452Z" fill="url(#paint24_linear)"/>
<path d="M158.606 80.5795C158.606 80.5795 158.797 66.1322 145.173 62.0155C145.173 62.0242 143.474 76.2895 158.606 80.5795Z" fill="url(#paint25_linear)"/>
<path d="M159.941 62.3796C159.941 62.3796 155.911 49.5616 142.686 49.5009C142.686 49.4749 145.32 62.5269 159.941 62.3796Z" fill="url(#paint26_linear)"/>
<path d="M153.129 46.5282C153.129 46.5282 147.4 34.8109 134.738 36.4922C134.738 36.4922 139.176 48.6342 153.129 46.5282Z" fill="url(#paint27_linear)"/>
<path d="M143.769 29.9749C143.769 29.9749 136.628 20.7622 125.959 24.3502C125.959 24.3502 132.06 34.1349 143.769 29.9749Z" fill="url(#paint28_linear)"/>
<path d="M132.268 19.0462C132.268 19.0462 125.127 9.84215 114.467 13.4302C114.467 13.4302 120.568 23.2062 132.268 19.0462Z" fill="url(#paint29_linear)"/>
<path d="M93.4243 0L96.0936 8.216H104.734L97.7489 13.4333L100.418 21.7273L93.4243 16.6833L86.4389 21.7793L89.1083 13.4247L82.1143 8.216H90.7549L93.4243 0Z" fill="url(#paint30_linear)"/>
<defs>
<linearGradient id="paint0_linear" x1="-38.0447" y1="500.124" x2="453.425" y2="500.124" gradientUnits="userSpaceOnUse">
<stop stop-color="#B9873D"/>
<stop offset="0.47" stop-color="#F5E382"/>
<stop offset="1" stop-color="#996D33"/>
</linearGradient>
<linearGradient id="paint1_linear" x1="-268.483" y1="500.162" x2="222.969" y2="500.162" gradientUnits="userSpaceOnUse">
<stop stop-color="#B9873D"/>
<stop offset="0.47" stop-color="#F5E382"/>
<stop offset="1" stop-color="#996D33"/>
</linearGradient>
<linearGradient id="paint2_linear" x1="-37.7028" y1="768.984" x2="453.749" y2="768.984" gradientUnits="userSpaceOnUse">
<stop stop-color="#B9873D"/>
<stop offset="0.47" stop-color="#F5E382"/>
<stop offset="1" stop-color="#996D33"/>
</linearGradient>
<linearGradient id="paint3_linear" x1="-37.6938" y1="230.711" x2="453.715" y2="230.711" gradientUnits="userSpaceOnUse">
<stop stop-color="#B9873D"/>
<stop offset="0.47" stop-color="#F5E382"/>
<stop offset="1" stop-color="#996D33"/>
</linearGradient>
<linearGradient id="paint4_linear" x1="-37.6939" y1="216.093" x2="453.732" y2="216.093" gradientUnits="userSpaceOnUse">
<stop stop-color="#B9873D"/>
<stop offset="0.47" stop-color="#F5E382"/>
<stop offset="1" stop-color="#996D33"/>
</linearGradient>
<linearGradient id="paint5_linear" x1="-37.7025" y1="363.677" x2="453.784" y2="363.677" gradientUnits="userSpaceOnUse">
<stop stop-color="#B9873D"/>
<stop offset="0.47" stop-color="#F5E382"/>
<stop offset="1" stop-color="#996D33"/>
</linearGradient>
<linearGradient id="paint6_linear" x1="-37.7027" y1="413.816" x2="453.767" y2="413.816" gradientUnits="userSpaceOnUse">
<stop stop-color="#B9873D"/>
<stop offset="0.47" stop-color="#F5E382"/>
<stop offset="1" stop-color="#996D33"/>
</linearGradient>
<linearGradient id="paint7_linear" x1="-37.6939" y1="700.052" x2="453.741" y2="700.052" gradientUnits="userSpaceOnUse">
<stop stop-color="#B9873D"/>
<stop offset="0.47" stop-color="#F5E382"/>
<stop offset="1" stop-color="#996D33"/>
</linearGradient>
<linearGradient id="paint8_linear" x1="-37.694" y1="688.313" x2="453.723" y2="688.313" gradientUnits="userSpaceOnUse">
<stop stop-color="#B9873D"/>
<stop offset="0.47" stop-color="#F5E382"/>
<stop offset="1" stop-color="#996D33"/>
</linearGradient>
<linearGradient id="paint9_linear" x1="-37.7028" y1="333.366" x2="453.775" y2="333.366" gradientUnits="userSpaceOnUse">
<stop stop-color="#B9873D"/>
<stop offset="0.47" stop-color="#F5E382"/>
<stop offset="1" stop-color="#996D33"/>
</linearGradient>
<linearGradient id="paint10_linear" x1="-37.7025" y1="623.839" x2="453.775" y2="623.839" gradientUnits="userSpaceOnUse">
<stop stop-color="#B9873D"/>
<stop offset="0.47" stop-color="#F5E382"/>
<stop offset="1" stop-color="#996D33"/>
</linearGradient>
<linearGradient id="paint11_linear" x1="-37.6937" y1="409.622" x2="453.732" y2="409.622" gradientUnits="userSpaceOnUse">
<stop stop-color="#B9873D"/>
<stop offset="0.47" stop-color="#F5E382"/>
<stop offset="1" stop-color="#996D33"/>
</linearGradient>
<linearGradient id="paint12_linear" x1="-37.7025" y1="239.253" x2="453.784" y2="239.253" gradientUnits="userSpaceOnUse">
<stop stop-color="#B9873D"/>
<stop offset="0.47" stop-color="#F5E382"/>
<stop offset="1" stop-color="#996D33"/>
</linearGradient>
<linearGradient id="paint13_linear" x1="-37.7024" y1="181.133" x2="453.75" y2="181.133" gradientUnits="userSpaceOnUse">
<stop stop-color="#B9873D"/>
<stop offset="0.47" stop-color="#F5E382"/>
<stop offset="1" stop-color="#996D33"/>
</linearGradient>
<linearGradient id="paint14_linear" x1="-37.7026" y1="130.527" x2="453.767" y2="130.527" gradientUnits="userSpaceOnUse">
<stop stop-color="#B9873D"/>
<stop offset="0.47" stop-color="#F5E382"/>
<stop offset="1" stop-color="#996D33"/>
</linearGradient>
<linearGradient id="paint15_linear" x1="-37.7114" y1="119.504" x2="453.793" y2="119.504" gradientUnits="userSpaceOnUse">
<stop stop-color="#B9873D"/>
<stop offset="0.47" stop-color="#F5E382"/>
<stop offset="1" stop-color="#996D33"/>
</linearGradient>
<linearGradient id="paint16_linear" x1="-268.106" y1="768.782" x2="223.303" y2="768.782" gradientUnits="userSpaceOnUse">
<stop stop-color="#B9873D"/>
<stop offset="0.47" stop-color="#F5E382"/>
<stop offset="1" stop-color="#996D33"/>
</linearGradient>
<linearGradient id="paint17_linear" x1="-268.158" y1="230.726" x2="223.311" y2="230.726" gradientUnits="userSpaceOnUse">
<stop stop-color="#B9873D"/>
<stop offset="0.47" stop-color="#F5E382"/>
<stop offset="1" stop-color="#996D33"/>
</linearGradient>
<linearGradient id="paint18_linear" x1="-268.14" y1="216.1" x2="223.312" y2="216.1" gradientUnits="userSpaceOnUse">
<stop stop-color="#B9873D"/>
<stop offset="0.47" stop-color="#F5E382"/>
<stop offset="1" stop-color="#996D33"/>
</linearGradient>
<linearGradient id="paint19_linear" x1="-268.149" y1="363.662" x2="223.311" y2="363.662" gradientUnits="userSpaceOnUse">
<stop stop-color="#B9873D"/>
<stop offset="0.47" stop-color="#F5E382"/>
<stop offset="1" stop-color="#996D33"/>
</linearGradient>
<linearGradient id="paint20_linear" x1="-268.106" y1="413.759" x2="223.312" y2="413.759" gradientUnits="userSpaceOnUse">
<stop stop-color="#B9873D"/>
<stop offset="0.47" stop-color="#F5E382"/>
<stop offset="1" stop-color="#996D33"/>
</linearGradient>
<linearGradient id="paint21_linear" x1="-268.054" y1="699.854" x2="223.303" y2="699.854" gradientUnits="userSpaceOnUse">
<stop stop-color="#B9873D"/>
<stop offset="0.47" stop-color="#F5E382"/>
<stop offset="1" stop-color="#996D33"/>
</linearGradient>
<linearGradient id="paint22_linear" x1="-268.271" y1="683.368" x2="223.337" y2="683.368" gradientUnits="userSpaceOnUse">
<stop stop-color="#B9873D"/>
<stop offset="0.47" stop-color="#F5E382"/>
<stop offset="1" stop-color="#996D33"/>
</linearGradient>
<linearGradient id="paint23_linear" x1="-268.149" y1="333.074" x2="223.311" y2="333.074" gradientUnits="userSpaceOnUse">
<stop stop-color="#B9873D"/>
<stop offset="0.47" stop-color="#F5E382"/>
<stop offset="1" stop-color="#996D33"/>
</linearGradient>
<linearGradient id="paint24_linear" x1="-268.201" y1="623.653" x2="223.32" y2="623.653" gradientUnits="userSpaceOnUse">
<stop stop-color="#B9873D"/>
<stop offset="0.47" stop-color="#F5E382"/>
<stop offset="1" stop-color="#996D33"/>
</linearGradient>
<linearGradient id="paint25_linear" x1="-268.21" y1="409.502" x2="223.329" y2="409.502" gradientUnits="userSpaceOnUse">
<stop stop-color="#B9873D"/>
<stop offset="0.47" stop-color="#F5E382"/>
<stop offset="1" stop-color="#996D33"/>
</linearGradient>
<linearGradient id="paint26_linear" x1="-268.192" y1="239.355" x2="223.32" y2="239.355" gradientUnits="userSpaceOnUse">
<stop stop-color="#B9873D"/>
<stop offset="0.47" stop-color="#F5E382"/>
<stop offset="1" stop-color="#996D33"/>
</linearGradient>
<linearGradient id="paint27_linear" x1="-268.158" y1="181.138" x2="223.312" y2="181.138" gradientUnits="userSpaceOnUse">
<stop stop-color="#B9873D"/>
<stop offset="0.47" stop-color="#F5E382"/>
<stop offset="1" stop-color="#996D33"/>
</linearGradient>
<linearGradient id="paint28_linear" x1="-268.08" y1="130.508" x2="223.303" y2="130.508" gradientUnits="userSpaceOnUse">
<stop stop-color="#B9873D"/>
<stop offset="0.47" stop-color="#F5E382"/>
<stop offset="1" stop-color="#996D33"/>
</linearGradient>
<linearGradient id="paint29_linear" x1="-268.141" y1="119.543" x2="223.311" y2="119.543" gradientUnits="userSpaceOnUse">
<stop stop-color="#B9873D"/>
<stop offset="0.47" stop-color="#F5E382"/>
<stop offset="1" stop-color="#996D33"/>
</linearGradient>
<linearGradient id="paint30_linear" x1="82.1143" y1="21.775" x2="104.734" y2="21.775" gradientUnits="userSpaceOnUse">
<stop stop-color="#B9873D"/>
<stop offset="0.47" stop-color="#F5E382"/>
<stop offset="1" stop-color="#996D33"/>
</linearGradient>
<clipPath id="clip0">
<rect width="185" height="60" fill="white" transform="translate(0 93)"/>
</clipPath>
</defs>
</svg>
