<svg width="7" height="12" viewBox="0 0 7 12" fill="none" xmlns="http://www.w3.org/2000/svg">
<path d="M0.620992 5.32611H6.21119C6.43745 5.32611 6.64497 5.20076 6.75054 5.00087C6.85596 4.80056 6.84209 4.55893 6.71425 4.37184L3.8847 0.237378C3.78341 0.0893943 3.6157 0.00080325 3.4363 1.63105e-06C3.25711 -0.000435616 3.08886 0.0870624 2.98674 0.234609L0.119883 4.36914C-0.0093237 4.55541 -0.0243601 4.79823 0.0808463 4.99929C0.186053 5.20001 0.394134 5.32611 0.620992 5.32611Z" fill="#9EA9C9"/>
<path d="M6.21119 6.65582H0.620984C0.394126 6.65582 0.186045 6.78197 0.0808384 6.98266C-0.0243681 7.18373 -0.00930736 7.42654 0.119875 7.61276L2.98673 11.7473C3.08885 11.8948 3.2571 11.9823 3.4363 11.982C3.61569 11.9812 3.7834 11.8925 3.88469 11.7446L6.71424 7.61004C6.84209 7.42302 6.85596 7.18134 6.75053 6.98101C6.64496 6.78117 6.43744 6.65582 6.21119 6.65582Z" fill="#9EA9C9"/>
</svg>
