<svg width="111" height="40" viewBox="0 0 111 40" fill="none" xmlns="http://www.w3.org/2000/svg">
<path d="M62.7391 15.901C62.7377 17.4297 63.3547 18.8987 64.4593 19.9966C63.3543 21.0942 62.7372 22.5634 62.7391 24.0921C62.7369 25.6583 63.3815 27.161 64.5308 28.2691C65.68 29.3773 67.2397 30 68.8661 30H77.7907C77.9392 29.9994 78.0594 29.8836 78.06 29.7406V26.6553C78.06 26.512 77.9394 26.3959 77.7907 26.3959H68.8661C67.5678 26.3724 66.5279 25.3527 66.5268 24.1024C66.5266 22.8515 67.5673 21.8312 68.8661 21.8089H77.7907C77.9396 21.8082 78.06 21.6918 78.06 21.5484V18.4528C78.06 18.3095 77.9394 18.1934 77.7907 18.1934H68.8295C67.5462 18.1517 66.528 17.1385 66.5268 15.9022C66.5273 14.6516 67.5676 13.6316 68.8661 13.6086H77.7907C77.9394 13.6086 78.06 13.4925 78.06 13.3493V10.2594C78.06 10.1161 77.9394 10 77.7907 10H68.8661C67.2409 10 65.6823 10.6217 64.5333 11.7284C63.3842 12.8351 62.7388 14.3361 62.7391 15.901Z" fill="white"/>
<path d="M61.6626 10H58.2751C56.8944 10 55.5995 10.4958 54.3904 11.4874C53.1805 10.4966 51.8856 10.0008 50.5057 10H47.1182C47.0148 9.9997 46.9156 10.0399 46.8425 10.1117C46.7694 10.1834 46.7285 10.2809 46.7288 10.3824V13.1729C46.7288 13.274 46.7699 13.3709 46.843 13.4421C46.9161 13.5132 47.0152 13.5528 47.1182 13.5518H49.8173C51.1807 13.5492 52.308 14.5946 52.3831 15.9315C52.3837 15.9345 52.3837 15.9376 52.3831 15.9406V29.6165C52.3831 29.8283 52.558 30 52.7737 30H56.0105C56.114 30 56.2132 29.9596 56.2863 29.8876C56.3594 29.8156 56.4002 29.7181 56.3999 29.6165V15.9406V15.9315C56.4756 14.5966 57.5997 13.5522 58.9612 13.5518H61.6591C61.7622 13.5527 61.8614 13.5133 61.9347 13.4421C62.008 13.371 62.0494 13.2741 62.0497 13.1729V10.3824C62.0497 10.1721 61.8767 10.0013 61.6626 10Z" fill="white"/>
<path d="M94.5289 14.9849V10.3824C94.5292 10.2809 94.4882 10.1835 94.415 10.1117C94.3418 10.0399 94.2425 9.9997 94.139 10H90.9179C90.8144 9.9997 90.7151 10.0399 90.6419 10.1117C90.5687 10.1835 90.5278 10.2809 90.5281 10.3824V15.8761C90.5281 16.4854 90.2812 17.0697 89.8418 17.5005C89.4025 17.9312 88.8066 18.1731 88.1854 18.1728H83.2169V10.3824C83.2169 10.2808 83.1756 10.1833 83.1023 10.1116C83.0289 10.0399 82.9294 9.9997 82.8258 10H79.599C79.4955 9.9997 79.3961 10.0399 79.323 10.1117C79.2498 10.1835 79.2088 10.2809 79.2091 10.3824V29.6165C79.2094 29.7176 79.2507 29.8144 79.3238 29.8857C79.3969 29.957 79.4959 29.9969 79.599 29.9966H82.8258C82.9294 29.9969 83.0289 29.9567 83.1023 29.885C83.1756 29.8132 83.2169 29.7158 83.2169 29.6142V21.7783H88.1854C88.8074 21.7777 89.4041 22.0199 89.8438 22.4514C90.2835 22.8829 90.5301 23.4683 90.5292 24.0784V29.6176C90.5289 29.7191 90.5699 29.8165 90.6431 29.8883C90.7163 29.9601 90.8156 30.0003 90.9191 30H94.1401C94.2436 30.0003 94.343 29.9601 94.4162 29.8883C94.4893 29.8165 94.5303 29.7191 94.53 29.6176L94.5196 24.4016C94.5218 22.8177 93.9066 21.2929 92.8 20.1394C93.905 18.9865 94.5193 17.463 94.5173 15.8806L94.5289 14.9849Z" fill="white"/>
<path d="M110.621 14.6154H107.401C107.192 14.616 107.023 14.7903 107.022 15.0055V15.4648C107.02 17.1928 105.66 18.5932 103.982 18.5952H102.696C101.018 18.5932 99.6575 17.1928 99.6556 15.4648V15.0055C99.6556 14.79 99.486 14.6154 99.2767 14.6154H96.058C95.8487 14.6154 95.6791 14.79 95.6791 15.0055V16.0517C95.6823 19.5054 98.4007 22.3044 101.755 22.3077H103.339H104.923C108.277 22.3044 110.996 19.5056 111 16.0517V15.0055C110.999 14.7903 110.83 14.616 110.621 14.6154V14.6154Z" fill="white"/>
<path d="M97.5948 13.8462C96.5374 13.8447 95.6805 12.9843 95.6791 11.9224C95.6805 10.8608 96.5376 10.0007 97.5948 10C98.6519 10.0007 99.5086 10.861 99.5093 11.9224C99.5086 12.9841 98.6521 13.8447 97.5948 13.8462Z" fill="#FCF055"/>
<path fill-rule="evenodd" clip-rule="evenodd" d="M95.6791 11.9225C95.6791 10.8607 96.5363 10 97.5936 10C98.6512 10 99.5087 10.8606 99.5093 11.9225C99.5093 12.9849 98.6516 13.8462 97.5936 13.8462C97.0857 13.8462 96.5985 13.6434 96.2394 13.2827C95.8804 12.9219 95.6788 12.4326 95.6791 11.9225ZM98.9921 11.9225C98.9915 11.1472 98.3657 10.5188 97.5936 10.5182C96.8218 10.5194 96.1964 11.1474 96.1951 11.9225C96.1958 12.698 96.8213 13.3267 97.5936 13.3279C98.3662 13.3273 98.9921 12.6983 98.9921 11.9225Z" fill="white"/>
<path d="M109.084 13.8462C108.027 13.8447 107.171 12.9841 107.17 11.9224C107.171 10.861 108.027 10.0007 109.084 10C110.142 10.0007 110.999 10.8608 111 11.9224C110.999 12.9843 110.142 13.8447 109.084 13.8462Z" fill="#FCF055"/>
<path fill-rule="evenodd" clip-rule="evenodd" d="M107.17 11.9231C107.17 10.861 108.027 10 109.085 10C109.593 10 110.08 10.2026 110.439 10.5633C110.798 10.9239 111 11.413 111 11.9231C111 12.4332 110.799 12.9225 110.439 13.2832C110.08 13.6439 109.593 13.8465 109.085 13.8462C108.577 13.8462 108.09 13.6435 107.731 13.2829C107.372 12.9223 107.17 12.4331 107.17 11.9231ZM110.484 11.9231C110.483 11.1476 109.857 10.5192 109.085 10.5186C108.313 10.5198 107.687 11.1479 107.686 11.9231C107.687 12.6987 108.313 13.3275 109.085 13.3287C109.857 13.3275 110.483 12.6987 110.484 11.9231Z" fill="white"/>
<path d="M105.638 22.7211V30.347C105.638 30.4589 105.596 30.5663 105.522 30.6455C105.448 30.7247 105.348 30.7692 105.243 30.7692H101.426C101.214 30.7679 101.043 30.5852 101.041 30.3596V22.7174C101.042 22.4914 101.214 22.3084 101.426 22.3077H105.254C105.357 22.3073 105.455 22.351 105.527 22.4287C105.599 22.5065 105.639 22.6118 105.638 22.7211Z" fill="white"/>
<path d="M34.6018 27.6925L45.9627 23.7965C44.1618 21.198 40.6979 20.111 37.6027 21.1731C34.7134 22.1644 32.8321 24.7976 32.9447 27.6925C32.8324 30.5873 34.7136 33.2203 37.6027 34.212C40.6982 35.2734 44.1619 34.186 45.9627 31.5875L34.6018 27.6925Z" fill="#EB9138"/>
<path d="M13.8109 10.84H35.2101V37.69H13.8109V10.84Z" fill="#FCF055"/>
<path d="M14.7986 10.7307C15.1135 5.16689 19.5396 0.821241 24.8965 0.816219C30.2523 0.823115 34.6766 5.16809 34.9921 10.7307H14.7986Z" fill="#5CD2A7"/>
<ellipse cx="28.712" cy="17.834" rx="3.06902" ry="3.05614" transform="rotate(-90 28.712 17.834)" fill="black"/>
<path fill-rule="evenodd" clip-rule="evenodd" d="M46.7288 23.7775L46.3084 23.1319C44.3947 20.1717 40.6969 18.9364 37.4002 20.1558C36.8544 20.3582 36.3337 20.6231 35.8483 20.9453V11.1447C35.849 10.7326 35.8264 10.3207 35.7807 9.91104C35.1465 4.26518 30.3932 -0.00128999 24.7388 4.9904e-06C19.0809 -0.0053271 14.3228 4.26282 13.6888 9.91219H0.605871C0.445289 9.91188 0.291181 9.97577 0.177525 10.0898C0.0638689 10.2037 0 10.3585 0 10.5198C0.000303468 10.681 0.0643066 10.8354 0.17793 10.9492C0.291552 11.0629 0.445487 11.1266 0.605871 11.1263H13.6166V37.6923H35.8483V34.1178C36.3324 34.4385 36.8516 34.7022 37.3956 34.9038C38.2304 35.2086 39.1119 35.3644 40.0001 35.3642C42.544 35.363 44.9145 34.0685 46.2993 31.9243L46.7162 31.2833L36.429 27.5292L46.7288 23.7775ZM37.8194 21.3032C38.5199 21.046 39.26 20.9143 40.0058 20.9142C41.8694 20.913 43.6378 21.7411 44.8356 23.1756L35.8483 26.4521V22.4506C36.4299 21.952 37.0965 21.5632 37.816 21.3032H37.8194ZM34.5701 9.91219C33.9369 4.9409 29.7265 1.21642 24.7388 1.21529C19.7506 1.21584 15.5396 4.94047 14.9063 9.91219H34.5701ZM34.6411 36.4816H14.8272V11.1459H34.6411V36.4816ZM35.8529 32.6148C36.4324 33.1142 37.0971 33.504 37.8148 33.7656V33.761C40.3128 34.6861 43.1199 33.9371 44.8321 31.8886L35.8529 28.6122V32.6148Z" fill="#1F1F1F"/>
<path d="M53.8321 35.5372L52.0911 32.3151V32.3077H52.4925L54.0031 35.1379L55.5188 32.3077H55.9213V32.3151L54.1752 35.5372V37.6923H53.8321V35.5372Z" fill="white"/>
<path fill-rule="evenodd" clip-rule="evenodd" d="M58.6031 33.8462C57.5459 33.8462 56.6874 34.6023 56.6874 35.785C56.6874 36.9689 57.5471 37.6923 58.6031 37.6923C59.6591 37.6923 60.5176 36.9689 60.5176 35.785C60.5176 34.6011 59.6603 33.8462 58.6031 33.8462ZM58.6031 34.1951C59.4579 34.1951 60.1521 34.8156 60.1521 35.785C60.1521 36.7508 59.4579 37.3312 58.6031 37.3312C57.7483 37.3312 57.0541 36.7496 57.0541 35.785C57.0541 34.8204 57.7483 34.1951 58.6031 34.1951Z" fill="white"/>
<path d="M64.0289 37.6358V36.955C63.7684 37.4748 63.2937 37.6923 62.8147 37.6923C61.9084 37.6923 61.2837 37.0779 61.2837 36.0261V33.8462H61.6148V36.0174C61.6148 36.8776 62.0895 37.3323 62.829 37.3249C63.5288 37.3175 64.0167 36.7277 64.0167 35.9486V33.8462H64.3479V37.6309L64.0289 37.6358Z" fill="white"/>
<path d="M65.4427 33.9101V34.5834C65.7023 34.0637 66.1741 33.8462 66.6526 33.8462C67.5556 33.8462 68.1781 34.4606 68.1781 35.5136V37.6923H67.8426V35.521C67.8426 34.6608 67.3708 34.2062 66.6383 34.2136C65.941 34.2209 65.4548 34.8095 65.4548 35.5898V37.6923H65.1139V33.9101H65.4427Z" fill="white"/>
<path fill-rule="evenodd" clip-rule="evenodd" d="M72.6387 34.0572L72.3967 33.8462L72.0082 34.2973C71.6641 34.0846 71.2677 33.9721 70.8634 33.9723C69.9679 33.9723 68.9441 34.5787 68.9441 35.7915C68.9441 36.9546 69.7416 37.6107 70.8634 37.6107C71.5568 37.6107 72.3773 37.9115 72.3773 38.6368C72.3773 39.3621 71.6052 39.6483 70.8634 39.6483C70.1216 39.6483 69.3955 39.2784 69.3955 38.5167H69.0324C69.0324 39.4591 69.882 40 70.8682 40C71.8545 40 72.7428 39.5246 72.7428 38.6344C72.7428 37.9552 72.2539 37.5562 71.5835 37.4046C72.3967 37.2081 72.773 36.4392 72.773 35.7903C72.7918 35.3077 72.6027 34.8403 72.2539 34.5071L72.6387 34.0572ZM70.8682 37.2639C69.9957 37.2639 69.318 36.7957 69.318 35.7927C69.318 34.774 70.153 34.3216 70.8682 34.3216C71.6367 34.3216 72.4124 34.7594 72.4124 35.7927C72.4124 36.5617 71.8098 37.2639 70.8682 37.2639Z" fill="white"/>
<path d="M78.1367 37.1347C77.8 37.4942 77.3428 37.695 76.8668 37.6923C75.8851 37.6923 75.0725 36.9456 75.0725 35.7698C75.0725 34.594 75.8567 33.8462 76.8668 33.8462C77.3422 33.8476 77.7982 34.0483 78.1367 34.405L77.9177 34.6389C77.6356 34.349 77.2581 34.1893 76.8668 34.194C76.0723 34.194 75.4118 34.7674 75.4118 35.7698C75.4118 36.7723 76.0757 37.3456 76.8668 37.3456C77.2557 37.3445 77.6285 37.1794 77.904 36.8862L78.1367 37.1347Z" fill="white"/>
<path fill-rule="evenodd" clip-rule="evenodd" d="M82.3646 37.6361H82.7329V33.8956L82.3646 33.892V34.7097C82.0521 34.16 81.4576 33.8277 80.8214 33.8469C80.3066 33.835 79.8095 34.0334 79.4468 34.3957C79.0841 34.7579 78.8877 35.2521 78.9037 35.7622C78.8871 36.2738 79.0829 36.7697 79.4453 37.1344C79.8077 37.4991 80.305 37.7006 80.8214 37.692C81.4524 37.7019 82.0408 37.3772 82.3646 36.8403V37.6361ZM80.8152 37.3331C79.9595 37.3331 79.272 36.7052 79.272 35.7658C79.272 34.8277 79.9595 34.2059 80.8152 34.2059C82.9159 34.2059 82.9159 37.3331 80.8152 37.3331Z" fill="white"/>
<path d="M83.8235 33.9101V34.5834C84.084 34.0637 84.5576 33.8462 85.0322 33.8462C85.9384 33.8462 86.5632 34.4606 86.5632 35.5136V37.6923H86.2321V35.521C86.2321 34.6608 85.7585 34.2062 85.0179 34.2136C84.3181 34.2209 83.8302 34.8095 83.8302 35.5898V37.6923H83.499V33.9101H83.8235Z" fill="white"/>
<path fill-rule="evenodd" clip-rule="evenodd" d="M93.4575 37.6321V32.3077H93.089V34.6954C92.7831 34.0878 92.1726 33.8127 91.5228 33.8127C90.4676 33.8127 89.6273 34.5059 89.6273 35.753C89.6273 37 90.4602 37.692 91.5142 37.692C92.1627 37.7037 92.7662 37.3631 93.089 36.8032V37.6321H93.4575ZM91.5387 37.3277C90.6899 37.3277 89.9946 36.7946 89.9946 35.753C89.9946 34.6954 90.6911 34.1709 91.5387 34.1709C92.4109 34.1709 93.0829 34.8104 93.0829 35.7456C93.0829 36.6809 92.4257 37.3277 91.5387 37.3277Z" fill="white"/>
<path fill-rule="evenodd" clip-rule="evenodd" d="M96.1394 33.8462C95.0822 33.8462 94.2236 34.6023 94.2236 35.785C94.2236 36.9689 95.0834 37.6923 96.1394 37.6923C97.1953 37.6923 98.0539 36.9689 98.0539 35.785C98.0539 34.6011 97.1966 33.8462 96.1394 33.8462ZM96.1394 34.1951C96.993 34.1951 97.6871 34.8156 97.6871 35.785C97.6871 36.7508 96.9954 37.3312 96.1394 37.3312C95.2833 37.3312 94.5903 36.7496 94.5903 35.785C94.5903 34.8204 95.2857 34.1951 96.1394 34.1951Z" fill="white"/>
<path d="M101.118 37.6923V32.3077H101.439V37.6923H101.118Z" fill="white"/>
<path d="M103.614 32.679H101.884V32.3077H105.714V32.679H103.984V37.6923H103.614V32.679Z" fill="white"/>
</svg>
