<svg width="32" height="25" viewBox="0 0 32 25" fill="none" xmlns="http://www.w3.org/2000/svg">
<path fill-rule="evenodd" clip-rule="evenodd" d="M22.3205 1.1842L30.8385 9.70214C31.5871 10.4478 32 11.4418 32 12.4996C32 12.7667 31.9731 13.0342 31.9199 13.2947C31.7644 14.0552 31.3902 14.748 30.8377 15.2984L22.3189 23.8171C21.5725 24.5634 20.5806 24.9743 19.5257 24.9743V24.0368L19.5257 24.9743H19.5254C17.3474 24.9743 15.5752 23.2022 15.5752 21.0241C15.5752 19.968 15.9868 18.9753 16.7342 18.229L18.5132 16.4499L3.95055 16.4498C2.89273 16.4498 1.90111 16.039 1.15505 15.2929C-0.385016 13.7528 -0.385016 11.2468 1.15505 9.70658C1.90105 8.96045 2.89305 8.54952 3.94836 8.54952H18.5129L16.7322 6.76883C15.9859 6.02245 15.575 5.03033 15.5752 3.97527C15.5754 1.79733 17.3474 0.0253906 19.5253 0.0253906C20.5817 0.0253906 21.5745 0.436891 22.3205 1.1842ZM29.5129 13.9713C29.8047 13.6806 30.0012 13.3172 30.0827 12.9192C30.1106 12.7822 30.1249 12.641 30.1248 12.4997C30.1249 11.944 29.9079 11.4219 29.5139 11.0295L20.994 2.5097C20.6017 2.1167 20.0802 1.90058 19.5252 1.90058C18.3812 1.90058 17.4503 2.83139 17.4502 3.97552C17.4501 4.5297 17.666 5.05089 18.0581 5.44295L21.4394 8.82402C21.7075 9.09214 21.7877 9.49545 21.6426 9.84577C21.4975 10.1961 21.1556 10.4246 20.7764 10.4246H3.94836C3.39398 10.4246 2.87286 10.6405 2.48105 11.0324C1.67198 11.8416 1.67198 13.158 2.48098 13.9671C2.87286 14.359 3.39361 14.5748 3.94736 14.5748L20.7765 14.5749C21.1557 14.5749 21.4975 14.8034 21.6427 15.1537C21.7877 15.504 21.7075 15.9073 21.4394 16.1755L18.0595 19.5555C17.6664 19.948 17.4502 20.4694 17.4502 21.0242C17.4502 22.1683 18.3811 23.0993 19.5254 23.0993L19.5255 24.0368L19.5256 23.0993C20.0797 23.0993 20.6008 22.8833 20.9929 22.4912L29.5129 13.9713Z" fill="#5DC2A7"/>
</svg>
