<svg width="32" height="25" viewBox="0 0 32 25" fill="none" xmlns="http://www.w3.org/2000/svg">
<path fill-rule="evenodd" clip-rule="evenodd" d="M9.67945 1.1842L1.16145 9.70214C0.412891 10.4478 -4.57764e-05 11.4418 -4.57764e-05 12.4996C-4.57764e-05 12.7667 0.0268917 13.0342 0.0801411 13.2947C0.235641 14.0552 0.609829 14.748 1.16233 15.2984L9.68108 23.8171C10.4275 24.5634 11.4194 24.9743 12.4743 24.9743V24.0368L12.4743 24.9743H12.4746C14.6526 24.9743 16.4248 23.2022 16.4248 21.0241C16.4248 19.968 16.0132 18.9753 15.2658 18.229L13.4868 16.4499L28.0495 16.4498C29.1073 16.4498 30.0989 16.039 30.845 15.2929C32.385 13.7528 32.385 11.2468 30.845 9.70658C30.099 8.96045 29.107 8.54952 28.0516 8.54952H13.4871L15.2678 6.76883C16.0141 6.02245 16.425 5.03033 16.4248 3.97527C16.4246 1.79733 14.6526 0.0253906 12.4747 0.0253906C11.4183 0.0253906 10.4255 0.436891 9.67945 1.1842ZM2.48714 13.9713C2.19533 13.6806 1.99877 13.3172 1.91733 12.9192C1.88939 12.7822 1.87514 12.641 1.8752 12.4997C1.87514 11.944 2.09214 11.4219 2.48614 11.0295L11.006 2.5097C11.3983 2.1167 11.9198 1.90058 12.4748 1.90058C13.6188 1.90058 14.5497 2.83139 14.5498 3.97552C14.5499 4.5297 14.334 5.05089 13.9419 5.44295L10.5606 8.82402C10.2925 9.09214 10.2123 9.49545 10.3574 9.84577C10.5025 10.1961 10.8444 10.4246 11.2236 10.4246H28.0516C28.606 10.4246 29.1271 10.6405 29.519 11.0324C30.328 11.8416 30.328 13.158 29.519 13.9671C29.1271 14.359 28.6064 14.5748 28.0526 14.5748L11.2235 14.5749C10.8443 14.5749 10.5025 14.8034 10.3573 15.1537C10.2123 15.504 10.2925 15.9073 10.5606 16.1755L13.9405 19.5555C14.3336 19.948 14.5498 20.4694 14.5498 21.0242C14.5498 22.1683 13.6189 23.0993 12.4746 23.0993L12.4745 24.0368L12.4744 23.0993C11.9203 23.0993 11.3992 22.8833 11.0071 22.4912L2.48714 13.9713Z" fill="#5DC2A7"/>
</svg>
